<svg xmlns="http://www.w3.org/2000/svg" xmlns:xlink="http://www.w3.org/1999/xlink" width="179" height="122" viewBox="0 0 179 122">
  <defs>
    <clipPath id="clip-path">
      <rect id="Rectángulo_318975" data-name="Rectángulo 318975" width="112" height="99" transform="translate(-4941 6040.463)" fill="#fff"/>
    </clipPath>
  </defs>
  <g id="Grupo_796937" data-name="Grupo 796937" transform="translate(-461.115 -13208.505)">
    <g id="Rectángulo_316221" data-name="Rectángulo 316221" transform="translate(461.115 13208.505)" fill="none" stroke="#3d672f" stroke-width="2">
      <rect width="179" height="122" rx="6" stroke="none"/>
      <rect x="1" y="1" width="177" height="120" rx="5" fill="none"/>
    </g>
    <g id="Enmascarar_grupo_744797" data-name="Enmascarar grupo 744797" transform="translate(5436.115 7180.042)" clip-path="url(#clip-path)">
      <rect id="Rectángulo_318974" data-name="Rectángulo 318974" width="19" height="99" transform="translate(-4941 6040.463)" fill="#3d672f"/>
      <circle id="Elipse_6807" data-name="Elipse 6807" cx="4.5" cy="4.5" r="4.5" transform="translate(-4915 6043.463)" fill="#3d672f"/>
      <ellipse id="Elipse_6808" data-name="Elipse 6808" cx="5" cy="4.5" rx="5" ry="4.5" transform="translate(-4902 6061.463)" fill="#3d672f"/>
      <circle id="Elipse_6809" data-name="Elipse 6809" cx="4.5" cy="4.5" r="4.5" transform="translate(-4918 6059.463)" fill="#3d672f"/>
      <path id="Trazado_562061" data-name="Trazado 562061" d="M0,4.5Z" transform="translate(-4914 6088.463)" fill="#3d672f"/>
      <circle id="Elipse_6814" data-name="Elipse 6814" cx="5" cy="5" r="5" transform="translate(-4914 6114.463)" fill="#3d672f"/>
      <circle id="Elipse_6815" data-name="Elipse 6815" cx="5" cy="5" r="5" transform="translate(-4906 6103.463)" fill="#3d672f"/>
      <circle id="Elipse_6816" data-name="Elipse 6816" cx="5" cy="5" r="5" transform="translate(-4902 6086.463)" fill="#3d672f"/>
      <circle id="Elipse_6817" data-name="Elipse 6817" cx="4.5" cy="4.5" r="4.5" transform="translate(-4894 6072.463)" fill="#3d672f"/>
      <circle id="Elipse_6865" data-name="Elipse 6865" cx="4.5" cy="4.5" r="4.5" transform="translate(-4907 6075.463)" fill="#3d672f"/>
      <circle id="Elipse_6859" data-name="Elipse 6859" cx="4.5" cy="4.5" r="4.5" transform="translate(-4918 6074.463)" fill="#3d672f"/>
      <circle id="Elipse_6860" data-name="Elipse 6860" cx="4.5" cy="4.5" r="4.5" transform="translate(-4913 6089.463)" fill="#3d672f"/>
      <circle id="Elipse_6861" data-name="Elipse 6861" cx="4.5" cy="4.5" r="4.5" transform="translate(-4919 6102.463)" fill="#3d672f"/>
      <circle id="Elipse_6862" data-name="Elipse 6862" cx="4.5" cy="4.5" r="4.5" transform="translate(-4851 6067.463)" fill="#3d672f"/>
      <circle id="Elipse_6863" data-name="Elipse 6863" cx="4.5" cy="4.5" r="4.5" transform="translate(-4862 6065.463)" fill="#3d672f"/>
      <circle id="Elipse_6864" data-name="Elipse 6864" cx="4.5" cy="4.5" r="4.5" transform="translate(-4885 6081.463)" fill="#3d672f"/>
      <circle id="Elipse_6818" data-name="Elipse 6818" cx="4.5" cy="4.5" r="4.5" transform="translate(-4900 6046.463)" fill="#3d672f"/>
      <ellipse id="Elipse_6819" data-name="Elipse 6819" cx="4.5" cy="5" rx="4.5" ry="5" transform="translate(-4900 6034.463)" fill="#3d672f"/>
      <ellipse id="Elipse_6820" data-name="Elipse 6820" cx="4.5" cy="5" rx="4.5" ry="5" transform="translate(-4886 6040.463)" fill="#3d672f"/>
      <circle id="Elipse_6821" data-name="Elipse 6821" cx="4.5" cy="4.5" r="4.5" transform="translate(-4872 6043.463)" fill="#3d672f"/>
      <ellipse id="Elipse_6822" data-name="Elipse 6822" cx="4.5" cy="5" rx="4.5" ry="5" transform="translate(-4866 6032.463)" fill="#3d672f"/>
      <ellipse id="Elipse_6823" data-name="Elipse 6823" cx="5" cy="4.5" rx="5" ry="4.5" transform="translate(-4890 6055.463)" fill="#3d672f"/>
      <circle id="Elipse_6824" data-name="Elipse 6824" cx="5" cy="5" r="5" transform="translate(-4884 6065.463)" fill="#3d672f"/>
      <circle id="Elipse_6825" data-name="Elipse 6825" cx="4.5" cy="4.5" r="4.5" transform="translate(-4876 6057.463)" fill="#3d672f"/>
      <circle id="Elipse_6826" data-name="Elipse 6826" cx="4.5" cy="4.5" r="4.5" transform="translate(-4862 6054.463)" fill="#3d672f"/>
      <ellipse id="Elipse_6827" data-name="Elipse 6827" cx="4.5" cy="5" rx="4.5" ry="5" transform="translate(-4856 6040.463)" fill="#3d672f"/>
      <ellipse id="Elipse_6828" data-name="Elipse 6828" cx="5" cy="4.5" rx="5" ry="4.5" transform="translate(-4842 6042.463)" fill="#3d672f"/>
      <circle id="Elipse_6829" data-name="Elipse 6829" cx="4.5" cy="4.5" r="4.5" transform="translate(-4850 6053.463)" fill="#3d672f"/>
      <ellipse id="Elipse_6830" data-name="Elipse 6830" cx="5" cy="4.5" rx="5" ry="4.5" transform="translate(-4838 6057.463)" fill="#3d672f"/>
      <circle id="Elipse_6833" data-name="Elipse 6833" cx="4.5" cy="4.5" r="4.5" transform="translate(-4872 6072.463)" fill="#3d672f"/>
      <circle id="Elipse_6835" data-name="Elipse 6835" cx="5" cy="5" r="5" transform="translate(-4890 6093.463)" fill="#3d672f"/>
      <circle id="Elipse_6836" data-name="Elipse 6836" cx="4.5" cy="4.5" r="4.5" transform="translate(-4876 6089.463)" fill="#3d672f"/>
      <ellipse id="Elipse_6837" data-name="Elipse 6837" cx="5" cy="4.5" rx="5" ry="4.5" transform="translate(-4863 6081.463)" fill="#3d672f"/>
      <circle id="Elipse_6838" data-name="Elipse 6838" cx="4.5" cy="4.5" r="4.5" transform="translate(-4848 6081.463)" fill="#3d672f"/>
      <ellipse id="Elipse_6839" data-name="Elipse 6839" cx="5" cy="4.5" rx="5" ry="4.5" transform="translate(-4839 6074.463)" fill="#3d672f"/>
      <ellipse id="Elipse_6840" data-name="Elipse 6840" cx="5" cy="4.5" rx="5" ry="4.5" transform="translate(-4839 6090.463)" fill="#3d672f"/>
      <circle id="Elipse_6841" data-name="Elipse 6841" cx="4.5" cy="4.5" r="4.5" transform="translate(-4852 6095.463)" fill="#3d672f"/>
      <ellipse id="Elipse_6842" data-name="Elipse 6842" cx="4.5" cy="5" rx="4.5" ry="5" transform="translate(-4866 6097.463)" fill="#3d672f"/>
      <circle id="Elipse_6843" data-name="Elipse 6843" cx="5" cy="5" r="5" transform="translate(-4857 6109.463)" fill="#3d672f"/>
      <ellipse id="Elipse_6844" data-name="Elipse 6844" cx="5" cy="4.5" rx="5" ry="4.5" transform="translate(-4844 6104.463)" fill="#3d672f"/>
      <ellipse id="Elipse_6845" data-name="Elipse 6845" cx="5" cy="4.5" rx="5" ry="4.5" transform="translate(-4838 6120.463)" fill="#3d672f"/>
      <circle id="Elipse_6846" data-name="Elipse 6846" cx="5" cy="5" r="5" transform="translate(-4855 6122.463)" fill="#3d672f"/>
      <circle id="Elipse_6847" data-name="Elipse 6847" cx="5" cy="5" r="5" transform="translate(-4871 6116.463)" fill="#3d672f"/>
      <circle id="Elipse_6848" data-name="Elipse 6848" cx="4.5" cy="4.5" r="4.5" transform="translate(-4875 6130.463)" fill="#3d672f"/>
      <ellipse id="Elipse_6849" data-name="Elipse 6849" cx="4.5" cy="5" rx="4.5" ry="5" transform="translate(-4863 6134.463)" fill="#3d672f"/>
      <circle id="Elipse_6850" data-name="Elipse 6850" cx="4.5" cy="4.5" r="4.5" transform="translate(-4850 6135.463)" fill="#3d672f"/>
      <ellipse id="Elipse_6851" data-name="Elipse 6851" cx="4.5" cy="5" rx="4.5" ry="5" transform="translate(-4836 6133.463)" fill="#3d672f"/>
      <circle id="Elipse_6852" data-name="Elipse 6852" cx="5" cy="5" r="5" transform="translate(-4890 6132.463)" fill="#3d672f"/>
      <ellipse id="Elipse_6853" data-name="Elipse 6853" cx="4.5" cy="5" rx="4.5" ry="5" transform="translate(-4906 6133.463)" fill="#3d672f"/>
      <circle id="Elipse_6854" data-name="Elipse 6854" cx="4.5" cy="4.5" r="4.5" transform="translate(-4902 6121.463)" fill="#3d672f"/>
      <circle id="Elipse_6855" data-name="Elipse 6855" cx="4.5" cy="4.5" r="4.5" transform="translate(-4887 6121.463)" fill="#3d672f"/>
      <ellipse id="Elipse_6856" data-name="Elipse 6856" cx="4.5" cy="5" rx="4.5" ry="5" transform="translate(-4892 6107.463)" fill="#3d672f"/>
      <ellipse id="Elipse_6857" data-name="Elipse 6857" cx="5" cy="4.5" rx="5" ry="4.5" transform="translate(-4879 6103.463)" fill="#3d672f"/>
      <circle id="Elipse_6858" data-name="Elipse 6858" cx="5" cy="5" r="5" transform="translate(-4918 6127.463)" fill="#3d672f"/>
    </g>
  </g>
</svg>
