<svg xmlns="http://www.w3.org/2000/svg" width="179" height="122" viewBox="0 0 179 122">
  <g id="Grupo_870571" data-name="Grupo 870571" transform="translate(5369 -3438.312)">
    <g id="Grupo_794921" data-name="Grupo 794921" transform="translate(-5830.115 -9770.193)">
      <g id="Rectángulo_316221" data-name="Rectángulo 316221" transform="translate(461.115 13208.505)" fill="none" stroke="#3d672f" stroke-width="2">
        <rect width="179" height="122" rx="6" stroke="none"/>
        <rect x="1" y="1" width="177" height="120" rx="5" fill="none"/>
      </g>
    </g>
    <g id="Grupo_796940" data-name="Grupo 796940" transform="translate(-339.984 -2538.38)">
      <path id="Trazado_562060" data-name="Trazado 562060" d="M-4965.287,5987.291h30.435v60.169h28.563v-60.169h30.436V6078.6h-89.434Z" transform="translate(-19.837 -0.182)" fill="#3d672f"/>
      <ellipse id="Elipse_6789" data-name="Elipse 6789" cx="3.558" cy="5.617" rx="3.558" ry="5.617" transform="translate(-4889.148 5987)" fill="#3d672f"/>
      <ellipse id="Elipse_6800" data-name="Elipse 6800" cx="3.558" cy="5.617" rx="3.558" ry="5.617" transform="translate(-4997 5987)" fill="#3d672f"/>
      <ellipse id="Elipse_6790" data-name="Elipse 6790" cx="3.558" cy="5.617" rx="3.558" ry="5.617" transform="translate(-4889.148 6003.103)" fill="#3d672f"/>
      <ellipse id="Elipse_6799" data-name="Elipse 6799" cx="3.558" cy="5.617" rx="3.558" ry="5.617" transform="translate(-4997 6003.103)" fill="#3d672f"/>
      <ellipse id="Elipse_6791" data-name="Elipse 6791" cx="3.558" cy="5.617" rx="3.558" ry="5.617" transform="translate(-4889.148 6019.206)" fill="#3d672f"/>
      <ellipse id="Elipse_6798" data-name="Elipse 6798" cx="3.558" cy="5.617" rx="3.558" ry="5.617" transform="translate(-4997 6019.206)" fill="#3d672f"/>
      <ellipse id="Elipse_6792" data-name="Elipse 6792" cx="3.558" cy="5.617" rx="3.558" ry="5.617" transform="translate(-4889.148 6035.309)" fill="#3d672f"/>
      <ellipse id="Elipse_6797" data-name="Elipse 6797" cx="3.558" cy="5.617" rx="3.558" ry="5.617" transform="translate(-4997 6035.309)" fill="#3d672f"/>
      <ellipse id="Elipse_6793" data-name="Elipse 6793" cx="3.558" cy="5.617" rx="3.558" ry="5.617" transform="translate(-4889.148 6051.412)" fill="#3d672f"/>
      <ellipse id="Elipse_6796" data-name="Elipse 6796" cx="3.558" cy="5.617" rx="3.558" ry="5.617" transform="translate(-4997 6051.412)" fill="#3d672f"/>
      <ellipse id="Elipse_6794" data-name="Elipse 6794" cx="3.558" cy="5.617" rx="3.558" ry="5.617" transform="translate(-4889.148 6067.515)" fill="#3d672f"/>
      <ellipse id="Elipse_6801" data-name="Elipse 6801" cx="3.558" cy="5.617" rx="3.558" ry="5.617" transform="translate(-4985.953 6089.422) rotate(-90)" fill="#3d672f"/>
      <ellipse id="Elipse_6802" data-name="Elipse 6802" cx="3.558" cy="5.617" rx="3.558" ry="5.617" transform="translate(-4969.101 6089.422) rotate(-90)" fill="#3d672f"/>
      <ellipse id="Elipse_6803" data-name="Elipse 6803" cx="3.558" cy="5.617" rx="3.558" ry="5.617" transform="translate(-4953.372 6089.422) rotate(-90)" fill="#3d672f"/>
      <ellipse id="Elipse_6804" data-name="Elipse 6804" cx="3.558" cy="5.617" rx="3.558" ry="5.617" transform="translate(-4936.521 6089.422) rotate(-90)" fill="#3d672f"/>
      <ellipse id="Elipse_6805" data-name="Elipse 6805" cx="3.558" cy="5.617" rx="3.558" ry="5.617" transform="translate(-4921.541 6089.422) rotate(-90)" fill="#3d672f"/>
      <ellipse id="Elipse_6806" data-name="Elipse 6806" cx="3.558" cy="5.617" rx="3.558" ry="5.617" transform="translate(-4904.689 6089.422) rotate(-90)" fill="#3d672f"/>
      <ellipse id="Elipse_6795" data-name="Elipse 6795" cx="3.558" cy="5.617" rx="3.558" ry="5.617" transform="translate(-4997 6067.515)" fill="#3d672f"/>
    </g>
  </g>
</svg>
