<svg id="Grupo_786765" data-name="Grupo 786765" xmlns="http://www.w3.org/2000/svg" xmlns:xlink="http://www.w3.org/1999/xlink" width="71.836" height="72.042" viewBox="0 0 71.836 72.042">
  <defs>
    <clipPath id="clip-path">
      <rect id="Rectángulo_309970" data-name="Rectángulo 309970" width="71.836" height="72.042" fill="none"/>
    </clipPath>
  </defs>
  <g id="Grupo_786764" data-name="Grupo 786764" clip-path="url(#clip-path)">
    <path id="Trazado_549399" data-name="Trazado 549399" d="M271.075,0c.162.079.321.164.487.235a3.258,3.258,0,0,1,2.205,3.059q.075,4.813,0,9.628a3.352,3.352,0,0,1-3.055,3.3,2.327,2.327,0,0,1-.629.038,7.526,7.526,0,0,0-5.538,1.6c-2.566,1.758-5.26,3.33-7.9,4.979-.175.11-.359.207-.669.385l1.18-6.957h-2.552c-2.658,0-4.036-1.372-4.037-4.016,0-2.624.064-5.25-.02-7.871-.069-2.16.7-3.668,2.809-4.377ZM259.152,18.519c1.548-.967,3.022-1.751,4.338-2.743A8.667,8.667,0,0,1,270,13.9c1.063.127,1.475-.377,1.477-1.465q.007-4.286,0-8.573c0-1.135-.379-1.516-1.517-1.517q-7.765-.006-15.53,0c-1.157,0-1.51.356-1.511,1.507q0,4.251,0,8.5c0,1.236.339,1.567,1.591,1.568,1.776,0,3.552,0,5.4,0l-.766,4.6" transform="translate(-201.969)"/>
    <path id="Trazado_549400" data-name="Trazado 549400" d="M58.258,111.013H33.633l-.1.147,1.806,1.5c-2.344,2.118-4.426,4.191-6.708,6.015a7.805,7.805,0,0,1-10.194-.487c-3.717-3.57-7.318-7.262-10.967-10.9Q5.031,104.848,2.6,102.41a8.1,8.1,0,0,1-.043-11.852c1.647-1.665,3.31-3.314,4.915-4.919l8.642,8.647c-.32.3-.735.665-1.128,1.055q-1.624,1.607-3.231,3.231a1.211,1.211,0,0,0,0,1.952c1.23,1.245,2.472,2.478,3.781,3.788.2-.578.363-1.06.545-1.533A7.961,7.961,0,0,1,22.388,97.5c2.525-.48,5.055-.933,7.831-1.443a3.68,3.68,0,0,0-.626-.817,11.877,11.877,0,0,1-5.065-7.094,1.006,1.006,0,0,0-.553-.583,4.666,4.666,0,0,1-3.232-4.544c-.011-2.718-.022-5.436,0-8.154a15.089,15.089,0,0,1,29.892-2.8,17.089,17.089,0,0,1,.294,3.141c.032,4.452.016,8.9.012,13.356,0,2.414-1.444,3.931-3.836,3.838a3.311,3.311,0,0,0-3.191,1.314,10.577,10.577,0,0,1-1.829,1.516,6.28,6.28,0,0,0-.653.814c1.787.329,3.345.614,4.9.9,1.173.218,2.358.39,3.515.675a7.653,7.653,0,0,1,5.635,4.917c1.009,2.693,1.854,5.447,2.767,8.176a1.3,1.3,0,0,1,0,.3m-3.176-2.386c-.717-2.032-1.28-3.941-2.064-5.753a5,5,0,0,0-3.727-2.935c-2.539-.529-5.1-.948-7.642-1.467a1.272,1.272,0,0,0-1.342.427c-1.282,1.334-2.606,2.628-3.916,3.936-.174.174-.36.336-.584.544-1.573-1.581-3.1-3.1-4.6-4.639a.951.951,0,0,0-.985-.3c-2.2.426-4.411.853-6.63,1.193-2.387.366-4.259,1.4-5.215,3.718a21.485,21.485,0,0,0-.806,2.392.9.9,0,0,0,.184.722c.649.708,1.339,1.377,2.026,2.049a1.192,1.192,0,0,0,1.9.046c.79-.7,1.565-1.413,2.347-2.12l2.589-2.336c1.335,1.347,2.636,2.627,3.9,3.947a1.751,1.751,0,0,0,1.4.594c6.3-.022,12.605-.013,18.908-.013Zm-19.3-36.471a1.465,1.465,0,0,1,.211.121q.6.589,1.2,1.182a12.707,12.707,0,0,0,9.651,3.78c.375-.011.615-.057.631-.522a15.549,15.549,0,0,0-1.158-7.288c-1.28-2.734-2.972-5.13-5.914-6.285a12.688,12.688,0,0,0-15.195,4.9,12.251,12.251,0,0,0-2.058,6.82q0,1.99,0,3.973c1.269.056.9-.935,1.108-1.617a13.7,13.7,0,0,0,6.375-1.087,16.493,16.493,0,0,0,5.146-3.979m0,3.435c.021-.006-.008-.006-.023.008a15.141,15.141,0,0,1-8.732,3.96c-.406.041-.478.256-.475.612.014,1.8-.047,3.61.022,5.41a8.917,8.917,0,0,0,5.117,8.126,8.843,8.843,0,0,0,9.385-.658c.216-.143.411-.319.615-.479l-.074-.154H35.856V90.059h.8c2.225-.006,4.451-.024,6.676-.007.418,0,.683-.129.785-.511a21.556,21.556,0,0,0,.9-3.642c.156-1.838.027-3.7.067-5.548.012-.577-.194-.753-.74-.819A13.838,13.838,0,0,1,38.677,77.6c-.99-.609-1.914-1.326-2.891-2.011m-.023,24.191,3.117-3.109a11.7,11.7,0,0,1-6.263-.035l3.146,3.144m12.76-12.631c-.5.266-1.1.386-1.293.733a10.363,10.363,0,0,0-.655,2.123c1.821.289,2.286-.361,1.948-2.855M24.177,81.2a2.211,2.211,0,0,0-1.067,2,2.16,2.16,0,0,0,1.067,1.84ZM47.5,85.046a2.217,2.217,0,0,0,1.06-2.251,2,2,0,0,0-1.06-1.56Z" transform="translate(0 -48.292)"/>
    <path id="Trazado_549401" data-name="Trazado 549401" d="M6.62,43.228l3.157-1.885,1.189,1.981L4.171,47.407.1,40.623l1.976-1.21L4.24,43C7.1,32.442,13.337,24.872,23.3,20.516a31.9,31.9,0,0,1,22.231-1.069l-.653,2.116C34.863,18.85,25.656,20.354,17.4,26.654A29.585,29.585,0,0,0,6.62,43.228" transform="translate(-0.077 -14.463)"/>
    <path id="Trazado_549402" data-name="Trazado 549402" d="M308.96,119.555l-1.983-1.192,4.076-6.8,6.789,4.073-1.18,1.991-3.341-1.988c3.327,11.232,1.447,21.435-5.575,30.759-.184-.126-.282-.184-.369-.254-.473-.381-.944-.765-1.489-1.207a30.275,30.275,0,0,0,5.106-28.75l-2.034,3.362" transform="translate(-246.581 -89.937)"/>
    <rect id="Rectángulo_309967" data-name="Rectángulo 309967" width="13.86" height="2.245" transform="translate(53.291 4.676)"/>
    <rect id="Rectángulo_309968" data-name="Rectángulo 309968" width="9.219" height="2.251" transform="translate(53.288 9.32)"/>
    <rect id="Rectángulo_309969" data-name="Rectángulo 309969" width="2.226" height="2.271" transform="translate(64.919 9.318)"/>
  </g>
</svg>
