<svg xmlns="http://www.w3.org/2000/svg" xmlns:xlink="http://www.w3.org/1999/xlink" width="689.994" height="205.009" viewBox="0 0 689.994 205.009">
  <defs>
    <filter id="Trazado_501706" x="0" y="0.962" width="204.045" height="204.047" filterUnits="userSpaceOnUse">
      <feOffset dy="3" input="SourceAlpha"/>
      <feGaussianBlur stdDeviation="9" result="blur"/>
      <feFlood flood-opacity="0.161"/>
      <feComposite operator="in" in2="blur"/>
      <feComposite in="SourceGraphic"/>
    </filter>
    <filter id="Trazado_501703" x="241.186" y="0" width="204.047" height="204.047" filterUnits="userSpaceOnUse">
      <feOffset dy="3" input="SourceAlpha"/>
      <feGaussianBlur stdDeviation="9" result="blur-2"/>
      <feFlood flood-opacity="0.161"/>
      <feComposite operator="in" in2="blur-2"/>
      <feComposite in="SourceGraphic"/>
    </filter>
    <filter id="Rectángulo_277788" x="485.947" y="0.962" width="204.047" height="204.047" filterUnits="userSpaceOnUse">
      <feOffset dy="3" input="SourceAlpha"/>
      <feGaussianBlur stdDeviation="9" result="blur-3"/>
      <feFlood flood-opacity="0.161"/>
      <feComposite operator="in" in2="blur-3"/>
      <feComposite in="SourceGraphic"/>
    </filter>
  </defs>
  <g id="Grupo_870138" data-name="Grupo 870138" transform="translate(-225.139 -11384.965)">
    <g id="Grupo_786782" data-name="Grupo 786782" transform="translate(230.5 11388.289)">
      <g id="Grupo_736622" data-name="Grupo 736622" transform="translate(0 0)">
        <g id="Grupo_870138-2" data-name="Grupo 870138" transform="translate(0 0)">
          <path id="Trazado_501677" data-name="Trazado 501677" d="M7.75,104.411A7.75,7.75,0,0,1,0,96.661v-64.9A31.8,31.8,0,0,1,31.767,0h129.79a31.8,31.8,0,0,1,31.767,31.765V67.024a7.75,7.75,0,1,1-15.5,0V31.765A16.285,16.285,0,0,0,161.557,15.5H31.767A16.284,16.284,0,0,0,15.5,31.765v64.9a7.75,7.75,0,0,1-7.75,7.75" transform="translate(0)" fill="#efd800"/>
          <path id="Trazado_501678" data-name="Trazado 501678" d="M4.911,94.791a.968.968,0,0,1-.969-.969v-64.9A25.013,25.013,0,0,1,28.927,3.941h129.79A25.014,25.014,0,0,1,183.7,28.926V64.184a.969.969,0,1,1-1.937,0V28.926A23.075,23.075,0,0,0,158.718,5.88H28.927A23.073,23.073,0,0,0,5.879,28.926v64.9a.968.968,0,0,1-.969.969" transform="translate(2.839 2.839)" fill="#333"/>
          <path id="Trazado_501679" data-name="Trazado 501679" d="M5.721,60.3a2.918,2.918,0,0,1-2.054-4.979,3.038,3.038,0,0,1,4.106,0,4.035,4.035,0,0,1,.37.446,4.129,4.129,0,0,1,.27.5,5.338,5.338,0,0,1,.155.542,2.9,2.9,0,0,1,.058.581,2.937,2.937,0,0,1-.853,2.054,2.9,2.9,0,0,1-2.052.852" transform="translate(2.028 39.273)" fill="#333"/>
          <path id="Trazado_501680" data-name="Trazado 501680" d="M155.237,141.487a2.906,2.906,0,1,1,2.906,2.906,2.921,2.921,0,0,1-2.906-2.906m-11.547,0a2.906,2.906,0,1,1,2.906,2.906,2.92,2.92,0,0,1-2.906-2.906m-11.548,0a2.906,2.906,0,1,1,2.906,2.906,2.921,2.921,0,0,1-2.906-2.906m-11.567,0a2.906,2.906,0,1,1,2.906,2.906,2.933,2.933,0,0,1-2.906-2.906m-11.547,0a2.906,2.906,0,1,1,2.906,2.906,2.92,2.92,0,0,1-2.906-2.906m-11.548,0a2.906,2.906,0,1,1,2.906,2.906,2.921,2.921,0,0,1-2.906-2.906m-11.547,0a2.906,2.906,0,1,1,2.906,2.906,2.92,2.92,0,0,1-2.906-2.906m-11.548,0a2.9,2.9,0,1,1,2.907,2.906,2.908,2.908,0,0,1-2.907-2.906m-11.567,0a2.906,2.906,0,1,1,2.906,2.906,2.921,2.921,0,0,1-2.906-2.906m-11.547,0a2.906,2.906,0,1,1,2.906,2.906,2.92,2.92,0,0,1-2.906-2.906m-11.548,0a2.906,2.906,0,1,1,2.907,2.906,2.921,2.921,0,0,1-2.907-2.906m-11.567,0a2.906,2.906,0,1,1,2.907,2.906,2.934,2.934,0,0,1-2.907-2.906m138.59-.931a2.9,2.9,0,1,1,5.29-2.383,2.874,2.874,0,0,1-1.454,3.835h.019a2.875,2.875,0,0,1-3.855-1.452M18.624,141.99a2.877,2.877,0,1,1,1.2.272,2.925,2.925,0,0,1-1.2-.272m157.982-7.4a2.9,2.9,0,1,1,4.089-.485v.019a2.954,2.954,0,0,1-2.286,1.1,2.859,2.859,0,0,1-1.8-.638M8.55,134.066a2.905,2.905,0,1,1,4.087.5,3.038,3.038,0,0,1-1.8.621,2.86,2.86,0,0,1-2.285-1.125m174.043-9.321a2.9,2.9,0,1,1,1.067-5.694,2.9,2.9,0,0,1-.523,5.753,2.689,2.689,0,0,1-.544-.058M3.261,122.383a2.907,2.907,0,1,1,3.391,2.324,2.47,2.47,0,0,1-.523.057,2.937,2.937,0,0,1-2.868-2.381m177.377-12.014a2.906,2.906,0,1,1,2.907,2.907,2.9,2.9,0,0,1-2.907-2.907M2.815,110.331a2.906,2.906,0,1,1,2.906,2.907,2.9,2.9,0,0,1-2.906-2.907M180.637,98.822a2.906,2.906,0,1,1,2.907,2.906,2.9,2.9,0,0,1-2.907-2.906M2.815,98.764a2.906,2.906,0,1,1,2.906,2.906,2.917,2.917,0,0,1-2.906-2.906m177.822-11.49a2.906,2.906,0,1,1,2.907,2.907,2.9,2.9,0,0,1-2.907-2.907M2.815,87.216a2.906,2.906,0,1,1,2.906,2.907,2.9,2.9,0,0,1-2.906-2.907M180.637,75.709a2.906,2.906,0,1,1,2.907,2.924,2.914,2.914,0,0,1-2.907-2.924M2.815,75.669a2.906,2.906,0,1,1,2.906,2.906,2.9,2.9,0,0,1-2.906-2.906M180.637,64.16a2.906,2.906,0,1,1,2.907,2.907,2.915,2.915,0,0,1-2.907-2.907M2.815,64.123a2.906,2.906,0,1,1,2.906,2.906,2.9,2.9,0,0,1-2.906-2.906" transform="translate(2.028 44.094)" fill="#333"/>
          <path id="Trazado_501681" data-name="Trazado 501681" d="M109.09,60.315a2.588,2.588,0,0,1-.563-.058,2.492,2.492,0,0,1-.542-.174,2.458,2.458,0,0,1-.5-.272,2.492,2.492,0,0,1-.446-.347,2.943,2.943,0,0,1-.852-2.054,2.678,2.678,0,0,1,.232-1.123,2.377,2.377,0,0,1,.251-.5,4.022,4.022,0,0,1,.368-.446,2.962,2.962,0,0,1,2.617-.776,3.1,3.1,0,0,1,.561.155,4.111,4.111,0,0,1,.485.272,2.7,2.7,0,0,1,.446.349,4.018,4.018,0,0,1,.368.446,4.138,4.138,0,0,1,.272.5c.057.174.115.368.155.542a3.029,3.029,0,0,1,.057.581,2.943,2.943,0,0,1-.852,2.054,2.909,2.909,0,0,1-2.054.852" transform="translate(76.483 39.259)" fill="#333"/>
          <path id="Trazado_501682" data-name="Trazado 501682" d="M114.2,57.41a2.906,2.906,0,1,1,2.906,2.906A2.9,2.9,0,0,1,114.2,57.41" transform="translate(82.258 39.258)" fill="#333"/>
          <path id="Trazado_501683" data-name="Trazado 501683" d="M125.127,60.3a2.839,2.839,0,0,1-.561-.058,2.507,2.507,0,0,1-.544-.174,2.6,2.6,0,0,1-1.3-1.067,3.063,3.063,0,0,1-.446-1.046,2.839,2.839,0,0,1-.059-.561,2.942,2.942,0,0,1,.853-2.073,3.038,3.038,0,0,1,4.106,0,2.926,2.926,0,0,1,0,4.127,2.9,2.9,0,0,1-2.054.852" transform="translate(88.034 39.273)" fill="#333"/>
          <path id="Trazado_501685" data-name="Trazado 501685" d="M147.951,51.125a7.75,7.75,0,0,0-7.75,7.75v64.9a31.8,31.8,0,0,0,31.767,31.767h129.79a31.8,31.8,0,0,0,31.767-31.767V88.512a7.75,7.75,0,1,0-15.5,0v35.259a16.285,16.285,0,0,1-16.267,16.265H171.968A16.284,16.284,0,0,1,155.7,123.771v-64.9a7.75,7.75,0,0,0-7.75-7.75" transform="translate(100.985 36.825)" fill="#94bf10"/>
          <path id="Trazado_501686" data-name="Trazado 501686" d="M145.111,55.067a.968.968,0,0,0-.968.969v64.9a25.013,25.013,0,0,0,24.985,24.985h129.79A25.014,25.014,0,0,0,323.9,120.932V85.673a.969.969,0,1,0-1.937,0v35.259a23.075,23.075,0,0,1-23.048,23.047H169.128a23.073,23.073,0,0,1-23.048-23.047v-64.9a.968.968,0,0,0-.969-.969" transform="translate(103.824 39.664)" fill="#333"/>
          <path id="Trazado_501687" data-name="Trazado 501687" d="M145.923,53.937a2.918,2.918,0,0,0-2.054,4.979,3.038,3.038,0,0,0,4.106,0,3.845,3.845,0,0,0,.37-.446,4.129,4.129,0,0,0,.27-.5,5.333,5.333,0,0,0,.155-.542,2.909,2.909,0,0,0-2.847-3.487" transform="translate(103.013 38.85)" fill="#333"/>
          <path id="Trazado_501688" data-name="Trazado 501688" d="M298.345,2.253h0a2.916,2.916,0,1,1-2.906,2.906,2.914,2.914,0,0,1,2.906-2.906m-11.547,0h0a2.916,2.916,0,1,1-2.907,2.906A2.915,2.915,0,0,1,286.8,2.253m-11.548,0h0a2.916,2.916,0,1,1-2.906,2.906,2.927,2.927,0,0,1,2.906-2.906m-11.567,0h0a2.916,2.916,0,1,1-2.906,2.906,2.914,2.914,0,0,1,2.906-2.906m-11.547,0h0a2.916,2.916,0,1,1-2.907,2.906,2.915,2.915,0,0,1,2.907-2.906m-11.548,0h0a2.916,2.916,0,1,1-2.906,2.906,2.914,2.914,0,0,1,2.906-2.906m-11.547,0h0a2.916,2.916,0,1,1-2.907,2.906,2.915,2.915,0,0,1,2.907-2.906m-11.548,0h0a2.916,2.916,0,1,1-2.906,2.906,2.911,2.911,0,0,1,2.906-2.906m-11.567,0h0a2.916,2.916,0,1,1-2.906,2.906,2.915,2.915,0,0,1,2.906-2.906m-11.547,0h0a2.916,2.916,0,1,1-2.907,2.906,2.915,2.915,0,0,1,2.907-2.906m-11.548,0h0a2.916,2.916,0,1,1-2.906,2.906,2.915,2.915,0,0,1,2.906-2.906m-11.567,0h0a2.916,2.916,0,1,1-2.906,2.906,2.915,2.915,0,0,1,2.906-2.906M309.6,4.366h0a2.939,2.939,0,0,1,1.2.27h-.019a2.9,2.9,0,0,1-2.384,5.29,2.911,2.911,0,0,1,1.2-5.56m-149.575.019h0a2.936,2.936,0,1,1-1.2.27,2.912,2.912,0,0,1,1.2-.27m158.584,7.033h0a2.953,2.953,0,0,1,2.285,1.106v.019a2.9,2.9,0,1,1-4.087-.485,2.857,2.857,0,0,1,1.8-.64m-167.575.038h0a3.038,3.038,0,0,1,1.8.621,2.911,2.911,0,1,1-4.089.5,2.866,2.866,0,0,1,2.286-1.125m172.3,10.387h0a2.952,2.952,0,1,1-.544.058,2.688,2.688,0,0,1,.544-.058m-177.01.04h0a2.474,2.474,0,0,1,.525.057,2.862,2.862,0,1,1-.525-.057M323.745,33.37h0a2.906,2.906,0,1,1-2.906,2.906,2.9,2.9,0,0,1,2.906-2.906m-177.822.038h0a2.906,2.906,0,1,1-2.906,2.906,2.9,2.9,0,0,1,2.906-2.906M323.745,44.916h0a2.906,2.906,0,1,1-2.906,2.907,2.9,2.9,0,0,1,2.906-2.907m-177.822.06h0a2.906,2.906,0,1,1-2.906,2.906,2.9,2.9,0,0,1,2.906-2.906M323.745,56.464h0a2.906,2.906,0,1,1-2.906,2.906,2.9,2.9,0,0,1,2.906-2.906m-177.822.058h0a2.906,2.906,0,1,1-2.906,2.906,2.9,2.9,0,0,1,2.906-2.906M323.745,68.011h0a2.916,2.916,0,1,1-2.906,2.926,2.92,2.92,0,0,1,2.906-2.926m-177.822.06h0a2.906,2.906,0,1,1-2.906,2.906,2.9,2.9,0,0,1,2.906-2.906M323.745,79.578h0a2.906,2.906,0,1,1-2.906,2.907,2.9,2.9,0,0,1,2.906-2.907m-177.822.04h0a2.906,2.906,0,1,1-2.906,2.906,2.9,2.9,0,0,1,2.906-2.906" transform="translate(103.013 1.623)" fill="#333"/>
          <path id="Trazado_501689" data-name="Trazado 501689" d="M249.291,53.937a2.7,2.7,0,0,0-.563.057,3.262,3.262,0,0,0-1.491.795,2.943,2.943,0,0,0-.852,2.054,3.041,3.041,0,0,0,.057.581,3.01,3.01,0,0,0,.175.542,2.377,2.377,0,0,0,.251.5,4.219,4.219,0,0,0,.368.446,2.962,2.962,0,0,0,2.617.776,3.1,3.1,0,0,0,.561-.155,4.114,4.114,0,0,0,.485-.272,2.8,2.8,0,0,0,.446-.349,4.019,4.019,0,0,0,.368-.446,4.141,4.141,0,0,0,.272-.5c.057-.174.115-.368.155-.542a3.041,3.041,0,0,0,.057-.581,2.943,2.943,0,0,0-.852-2.054,2.909,2.909,0,0,0-2.054-.852" transform="translate(177.468 38.85)" fill="#333"/>
          <path id="Trazado_501690" data-name="Trazado 501690" d="M254.4,56.844a2.906,2.906,0,1,0,2.9-2.906,2.9,2.9,0,0,0-2.9,2.906" transform="translate(183.244 38.851)" fill="#333"/>
          <path id="Trazado_501691" data-name="Trazado 501691" d="M265.329,53.937a2.97,2.97,0,0,0-.562.057,3.154,3.154,0,0,0-1.046.446,2.337,2.337,0,0,0-.795.8,2.581,2.581,0,0,0-.272.5,2.508,2.508,0,0,0-.174.544,2.9,2.9,0,0,0,.795,2.634,3.038,3.038,0,0,0,4.106,0,2.922,2.922,0,0,0,0-4.127,2.9,2.9,0,0,0-2.052-.852" transform="translate(189.019 38.85)" fill="#333"/>
          <path id="Trazado_501693" data-name="Trazado 501693" d="M290.232,104.411a7.75,7.75,0,0,1-7.75-7.75v-64.9A31.8,31.8,0,0,1,314.249,0h129.79a31.8,31.8,0,0,1,31.767,31.765V67.024a7.75,7.75,0,1,1-15.5,0V31.765A16.285,16.285,0,0,0,444.039,15.5H314.249a16.284,16.284,0,0,0-16.267,16.265v64.9a7.75,7.75,0,0,1-7.75,7.75" transform="translate(203.468)" fill="#08afaf"/>
          <path id="Trazado_501694" data-name="Trazado 501694" d="M287.393,94.791a.968.968,0,0,1-.969-.969v-64.9A25.013,25.013,0,0,1,311.409,3.941H441.2a25.014,25.014,0,0,1,24.985,24.985V64.184a.969.969,0,1,1-1.937,0V28.926A23.075,23.075,0,0,0,441.2,5.88H311.409a23.073,23.073,0,0,0-23.048,23.047v64.9a.968.968,0,0,1-.968.969" transform="translate(206.307 2.839)" fill="#333"/>
          <path id="Trazado_501695" data-name="Trazado 501695" d="M288.2,60.3a2.918,2.918,0,0,1-2.054-4.979,3.038,3.038,0,0,1,4.106,0,3.856,3.856,0,0,1,.37.446,4.129,4.129,0,0,1,.27.5,5.357,5.357,0,0,1,.155.542,2.9,2.9,0,0,1,.058.581,2.937,2.937,0,0,1-.853,2.054,2.9,2.9,0,0,1-2.052.852" transform="translate(205.495 39.273)" fill="#333"/>
          <path id="Trazado_501696" data-name="Trazado 501696" d="M437.719,141.487a2.906,2.906,0,1,1,2.906,2.906,2.921,2.921,0,0,1-2.906-2.906m-11.547,0a2.906,2.906,0,1,1,2.906,2.906,2.92,2.92,0,0,1-2.906-2.906m-11.548,0a2.906,2.906,0,1,1,2.906,2.906,2.921,2.921,0,0,1-2.906-2.906m-11.567,0a2.906,2.906,0,1,1,2.906,2.906,2.933,2.933,0,0,1-2.906-2.906m-11.547,0a2.906,2.906,0,1,1,2.906,2.906,2.92,2.92,0,0,1-2.906-2.906m-11.548,0a2.906,2.906,0,1,1,2.906,2.906,2.921,2.921,0,0,1-2.906-2.906m-11.548,0a2.906,2.906,0,1,1,2.907,2.906,2.921,2.921,0,0,1-2.907-2.906m-11.547,0a2.9,2.9,0,1,1,2.906,2.906,2.908,2.908,0,0,1-2.906-2.906m-11.567,0a2.906,2.906,0,1,1,2.906,2.906,2.921,2.921,0,0,1-2.906-2.906m-11.547,0a2.906,2.906,0,1,1,2.906,2.906,2.92,2.92,0,0,1-2.906-2.906m-11.548,0a2.906,2.906,0,1,1,2.906,2.906,2.921,2.921,0,0,1-2.906-2.906m-11.567,0a2.906,2.906,0,1,1,2.906,2.906,2.933,2.933,0,0,1-2.906-2.906m138.59-.931a2.9,2.9,0,0,1,5.29-2.383,2.874,2.874,0,0,1-1.454,3.835h.019a2.875,2.875,0,0,1-3.855-1.452M301.106,141.99a2.875,2.875,0,1,1,1.2.272,2.923,2.923,0,0,1-1.2-.272m157.982-7.4a2.9,2.9,0,1,1,4.089-.485v.019a2.954,2.954,0,0,1-2.286,1.1,2.856,2.856,0,0,1-1.8-.638m-168.056-.523a2.905,2.905,0,1,1,4.087.5,3.038,3.038,0,0,1-1.8.621,2.86,2.86,0,0,1-2.285-1.125m174.043-9.321a2.9,2.9,0,1,1,1.067-5.694,2.9,2.9,0,0,1-.523,5.753,2.689,2.689,0,0,1-.544-.058m-179.333-2.362a2.907,2.907,0,1,1,3.391,2.324,2.47,2.47,0,0,1-.523.057,2.937,2.937,0,0,1-2.868-2.381M463.12,110.369a2.906,2.906,0,1,1,2.907,2.907,2.9,2.9,0,0,1-2.907-2.907M285.3,110.331a2.906,2.906,0,1,1,2.906,2.907,2.9,2.9,0,0,1-2.906-2.907M463.12,98.822a2.906,2.906,0,1,1,2.907,2.906,2.9,2.9,0,0,1-2.907-2.906M285.3,98.764a2.906,2.906,0,1,1,2.906,2.906,2.917,2.917,0,0,1-2.906-2.906M463.12,87.274a2.906,2.906,0,1,1,2.907,2.907,2.9,2.9,0,0,1-2.907-2.907M285.3,87.216a2.906,2.906,0,1,1,2.906,2.907,2.9,2.9,0,0,1-2.906-2.907M463.12,75.709a2.906,2.906,0,1,1,2.907,2.924,2.914,2.914,0,0,1-2.907-2.924M285.3,75.669a2.906,2.906,0,1,1,2.906,2.906,2.9,2.9,0,0,1-2.906-2.906M463.12,64.16a2.906,2.906,0,1,1,2.907,2.907,2.915,2.915,0,0,1-2.907-2.907M285.3,64.123a2.906,2.906,0,1,1,2.906,2.906,2.9,2.9,0,0,1-2.906-2.906" transform="translate(205.495 44.094)" fill="#333"/>
          <path id="Trazado_501697" data-name="Trazado 501697" d="M391.57,60.315a2.577,2.577,0,0,1-.562-.058,2.492,2.492,0,0,1-.542-.174,2.454,2.454,0,0,1-.5-.272,2.494,2.494,0,0,1-.446-.347,2.943,2.943,0,0,1-.852-2.054,2.676,2.676,0,0,1,.232-1.123,2.379,2.379,0,0,1,.251-.5,4.018,4.018,0,0,1,.368-.446,2.962,2.962,0,0,1,2.617-.776,3.1,3.1,0,0,1,.561.155,4.25,4.25,0,0,1,.485.272,2.706,2.706,0,0,1,.446.349,4.029,4.029,0,0,1,.368.446,4.155,4.155,0,0,1,.272.5c.057.174.115.368.155.542a3.028,3.028,0,0,1,.057.581,2.942,2.942,0,0,1-.852,2.054,2.909,2.909,0,0,1-2.054.852" transform="translate(279.95 39.259)" fill="#333"/>
          <g transform="matrix(1, 0, 0, 1, -5.36, -3.32)" filter="url(#Trazado_501706)">
            <path id="Trazado_501706-2" data-name="Trazado 501706" d="M8.87,0H141.175a8.87,8.87,0,0,1,8.87,8.87V141.177a8.87,8.87,0,0,1-8.87,8.87H8.871A8.871,8.871,0,0,1,0,141.176V8.87A8.87,8.87,0,0,1,8.87,0Z" transform="translate(27 24.96)" fill="#fff"/>
          </g>
          <g transform="matrix(1, 0, 0, 1, -5.36, -3.32)" filter="url(#Trazado_501703)">
            <path id="Trazado_501703-2" data-name="Trazado 501703" d="M152.78,25.589V148.5a13.568,13.568,0,0,0,13.57,13.57H289.257a13.569,13.569,0,0,0,13.57-13.57V25.589a13.571,13.571,0,0,0-13.57-13.57H166.35a13.569,13.569,0,0,0-13.57,13.57" transform="translate(115.41 11.98)" fill="#fff"/>
          </g>
          <g transform="matrix(1, 0, 0, 1, -5.36, -3.32)" filter="url(#Rectángulo_277788)">
            <rect id="Rectángulo_277788-2" data-name="Rectángulo 277788" width="150.047" height="150.047" rx="7.888" transform="translate(512.95 24.96)" fill="#fff"/>
          </g>
          <g id="Grupo_786784" data-name="Grupo 786784" transform="translate(217.926 84.342)">
            <path id="Trazado_501684" data-name="Trazado 501684" d="M127.648,73.668a.987.987,0,0,1-.428-.1.975.975,0,0,1-.54-.87V50a.969.969,0,0,1,1.56-.767L142.952,60.58a.97.97,0,0,1,0,1.534L128.24,73.465a.967.967,0,0,1-.592.2m.969-21.7V70.728l12.157-9.381Z" transform="translate(-126.68 -49.028)" fill="#ecd500"/>
            <path id="Polígono_62" data-name="Polígono 62" d="M10.121,0,20.243,13.5H0Z" transform="translate(14.868 1.928) rotate(90)" fill="#ecd500"/>
          </g>
          <g id="Grupo_786785" data-name="Grupo 786785" transform="translate(459.111 83.381)">
            <path id="Trazado_501684-2" data-name="Trazado 501684" d="M127.648,73.668a.987.987,0,0,1-.428-.1.975.975,0,0,1-.54-.87V50a.969.969,0,0,1,1.56-.767L142.952,60.58a.97.97,0,0,1,0,1.534L128.24,73.465a.967.967,0,0,1-.592.2m.969-21.7V70.728l12.157-9.381Z" transform="translate(-126.68 -49.028)" fill="#92bc0f"/>
            <path id="Polígono_62-2" data-name="Polígono 62" d="M10.121,0,20.243,13.5H0Z" transform="translate(14.868 1.928) rotate(90)" fill="#92bc0f"/>
          </g>
        </g>
      </g>
      <path id="Trazado_609198" data-name="Trazado 609198" d="M32.516,5.625l3.719,9.281,3.719-9.281H41.9V17H40.4V12.57l.141-4.781L36.8,17H35.657L31.93,7.813l.148,4.758V17h-1.5V5.625ZM47.828,17.156a3.693,3.693,0,0,1-2.8-1.129,4.19,4.19,0,0,1-1.078-3.02v-.266a5.073,5.073,0,0,1,.48-2.246,3.748,3.748,0,0,1,1.344-1.547,3.378,3.378,0,0,1,1.871-.559,3.166,3.166,0,0,1,2.563,1.086,4.7,4.7,0,0,1,.914,3.109v.6H45.4a3,3,0,0,0,.73,2.02,2.3,2.3,0,0,0,1.777.77,2.517,2.517,0,0,0,1.3-.312,3.259,3.259,0,0,0,.93-.828l.883.688A3.55,3.55,0,0,1,47.828,17.156Zm-.18-7.578a1.928,1.928,0,0,0-1.469.637A3.1,3.1,0,0,0,45.446,12H49.68v-.109a2.753,2.753,0,0,0-.594-1.707A1.815,1.815,0,0,0,47.649,9.578Zm4.8,3.125a4.952,4.952,0,0,1,.922-3.129,3.137,3.137,0,0,1,4.766-.168V5h1.445V17H58.25l-.07-.906a2.943,2.943,0,0,1-2.414,1.063,2.887,2.887,0,0,1-2.395-1.2,5.008,5.008,0,0,1-.926-3.141Zm1.445.164a3.749,3.749,0,0,0,.594,2.25,1.92,1.92,0,0,0,1.641.813A2.108,2.108,0,0,0,58.133,14.7V10.813a2.125,2.125,0,0,0-1.992-1.2,1.929,1.929,0,0,0-1.656.82A4.128,4.128,0,0,0,53.891,12.867ZM63.391,17H61.946V8.547h1.445ZM61.828,6.3a.863.863,0,0,1,.215-.594.807.807,0,0,1,.637-.242.819.819,0,0,1,.641.242.854.854,0,0,1,.219.594.826.826,0,0,1-.219.586.834.834,0,0,1-.641.234.821.821,0,0,1-.637-.234A.834.834,0,0,1,61.828,6.3ZM65.321,12.7a4.993,4.993,0,0,1,.488-2.234A3.643,3.643,0,0,1,67.168,8.93a3.7,3.7,0,0,1,1.988-.539,3.565,3.565,0,0,1,2.793,1.2,4.6,4.6,0,0,1,1.066,3.18v.1a5.036,5.036,0,0,1-.473,2.215,3.589,3.589,0,0,1-1.352,1.527,3.743,3.743,0,0,1-2.02.547,3.556,3.556,0,0,1-2.785-1.2A4.575,4.575,0,0,1,65.321,12.8Zm1.453.172a3.616,3.616,0,0,0,.652,2.258,2.211,2.211,0,0,0,3.5-.012,3.955,3.955,0,0,0,.648-2.418,3.61,3.61,0,0,0-.66-2.254,2.1,2.1,0,0,0-1.754-.863,2.075,2.075,0,0,0-1.727.852A3.925,3.925,0,0,0,66.774,12.867ZM79.75,14.758a1.064,1.064,0,0,0-.441-.91,4.249,4.249,0,0,0-1.539-.559,7.277,7.277,0,0,1-1.742-.562,2.479,2.479,0,0,1-.953-.781,1.869,1.869,0,0,1-.309-1.078,2.193,2.193,0,0,1,.879-1.758,3.432,3.432,0,0,1,2.246-.719,3.532,3.532,0,0,1,2.332.742,2.357,2.357,0,0,1,.895,1.9H79.664a1.3,1.3,0,0,0-.5-1.023,1.888,1.888,0,0,0-1.27-.43,1.976,1.976,0,0,0-1.234.344,1.082,1.082,0,0,0-.445.9.877.877,0,0,0,.414.789,5.1,5.1,0,0,0,1.5.508,7.8,7.8,0,0,1,1.754.578,2.558,2.558,0,0,1,1,.809,1.988,1.988,0,0,1,.324,1.152,2.163,2.163,0,0,1-.906,1.816,3.8,3.8,0,0,1-2.352.684,4.257,4.257,0,0,1-1.8-.359,2.922,2.922,0,0,1-1.223-1,2.42,2.42,0,0,1-.441-1.395h1.445a1.5,1.5,0,0,0,.582,1.152,2.258,2.258,0,0,0,1.434.426,2.331,2.331,0,0,0,1.316-.332A1.02,1.02,0,0,0,79.75,14.758ZM86.688,12.7a4.952,4.952,0,0,1,.922-3.129,3.137,3.137,0,0,1,4.766-.168V5h1.445V17H92.492l-.07-.906a2.943,2.943,0,0,1-2.414,1.063,2.887,2.887,0,0,1-2.395-1.2,5.008,5.008,0,0,1-.926-3.141Zm1.445.164a3.749,3.749,0,0,0,.594,2.25,1.92,1.92,0,0,0,1.641.813A2.108,2.108,0,0,0,92.375,14.7V10.813a2.125,2.125,0,0,0-1.992-1.2,1.929,1.929,0,0,0-1.656.82A4.128,4.128,0,0,0,88.133,12.867Zm11.438,4.289a3.693,3.693,0,0,1-2.8-1.129,4.19,4.19,0,0,1-1.078-3.02v-.266a5.073,5.073,0,0,1,.48-2.246A3.748,3.748,0,0,1,97.52,8.949a3.378,3.378,0,0,1,1.871-.559,3.166,3.166,0,0,1,2.563,1.086,4.7,4.7,0,0,1,.914,3.109v.6H97.141a3,3,0,0,0,.73,2.02,2.3,2.3,0,0,0,1.777.77,2.517,2.517,0,0,0,1.3-.312,3.259,3.259,0,0,0,.93-.828l.883.688A3.55,3.55,0,0,1,99.571,17.156Zm-.18-7.578a1.928,1.928,0,0,0-1.469.637A3.1,3.1,0,0,0,97.188,12h4.234v-.109a2.753,2.753,0,0,0-.594-1.707A1.815,1.815,0,0,0,99.391,9.578ZM22.91,37.391a4.185,4.185,0,0,1-1.332,2.785,4.365,4.365,0,0,1-2.98.98,4.008,4.008,0,0,1-3.23-1.445,5.815,5.815,0,0,1-1.215-3.867V34.75a6.481,6.481,0,0,1,.566-2.789,4.231,4.231,0,0,1,1.605-1.848,4.47,4.47,0,0,1,2.406-.645,4.11,4.11,0,0,1,2.906,1.012,4.235,4.235,0,0,1,1.273,2.8H21.4a3.268,3.268,0,0,0-.848-1.975,2.565,2.565,0,0,0-1.824-.611,2.684,2.684,0,0,0-2.254,1.063,4.882,4.882,0,0,0-.816,3.026v1.1a5.018,5.018,0,0,0,.773,2.948A2.5,2.5,0,0,0,18.6,39.93a2.886,2.886,0,0,0,1.918-.566,3.143,3.143,0,0,0,.887-1.973Zm1.438-.7a4.993,4.993,0,0,1,.488-2.234A3.643,3.643,0,0,1,26.2,32.93a3.7,3.7,0,0,1,1.988-.539,3.565,3.565,0,0,1,2.793,1.2,4.6,4.6,0,0,1,1.066,3.18v.1a5.036,5.036,0,0,1-.473,2.215,3.589,3.589,0,0,1-1.352,1.527,3.743,3.743,0,0,1-2.02.547,3.556,3.556,0,0,1-2.785-1.2A4.575,4.575,0,0,1,24.348,36.8Zm1.453.172a3.616,3.616,0,0,0,.652,2.258,2.211,2.211,0,0,0,3.5-.012A3.955,3.955,0,0,0,30.6,36.7a3.61,3.61,0,0,0-.66-2.254,2.1,2.1,0,0,0-1.754-.863,2.075,2.075,0,0,0-1.727.852A3.925,3.925,0,0,0,25.8,36.867Zm9.414-4.32.039.938a3.122,3.122,0,0,1,2.508-1.094,2.417,2.417,0,0,1,2.414,1.359,3.2,3.2,0,0,1,1.1-.984,3.242,3.242,0,0,1,1.6-.375q2.781,0,2.828,2.945V41H44.254V35.422a1.941,1.941,0,0,0-.414-1.355,1.823,1.823,0,0,0-1.391-.449,1.916,1.916,0,0,0-1.336.48,1.949,1.949,0,0,0-.617,1.293V41H39.043V35.461a1.613,1.613,0,0,0-1.8-1.844,1.934,1.934,0,0,0-1.945,1.211V41H33.848V32.547ZM53.1,40.164a3.07,3.07,0,0,1-2.477.992,2.628,2.628,0,0,1-2.059-.785,3.4,3.4,0,0,1-.715-2.324v-5.5h1.445v5.461q0,1.922,1.563,1.922a2.163,2.163,0,0,0,2.2-1.234V32.547H54.5V41H53.129Zm4.969-7.617.047,1.063a3.08,3.08,0,0,1,2.531-1.219q2.68,0,2.7,3.023V41H61.9V35.406a1.946,1.946,0,0,0-.418-1.352,1.675,1.675,0,0,0-1.277-.437,2.086,2.086,0,0,0-1.234.375,2.546,2.546,0,0,0-.828.984V41H56.7V32.547ZM67.1,41H65.653V32.547H67.1ZM65.535,30.3a.863.863,0,0,1,.215-.594.807.807,0,0,1,.637-.242.819.819,0,0,1,.641.242.854.854,0,0,1,.219.594.826.826,0,0,1-.219.586.834.834,0,0,1-.641.234.821.821,0,0,1-.637-.234A.834.834,0,0,1,65.535,30.3ZM72.8,39.977a2.082,2.082,0,0,0,1.352-.469,1.649,1.649,0,0,0,.641-1.172H76.16a2.621,2.621,0,0,1-.5,1.383,3.293,3.293,0,0,1-1.23,1.047,3.55,3.55,0,0,1-1.629.391A3.482,3.482,0,0,1,70.055,40a4.59,4.59,0,0,1-1.02-3.152v-.242a5.089,5.089,0,0,1,.453-2.2,3.451,3.451,0,0,1,1.3-1.492,3.7,3.7,0,0,1,2-.531,3.39,3.39,0,0,1,2.363.852,3.043,3.043,0,0,1,1,2.211H74.793a1.992,1.992,0,0,0-.621-1.348,1.932,1.932,0,0,0-1.379-.527,2.023,2.023,0,0,0-1.707.793,3.724,3.724,0,0,0-.605,2.293v.273a3.65,3.65,0,0,0,.6,2.25A2.033,2.033,0,0,0,72.8,39.977ZM83,41a3.036,3.036,0,0,1-.2-.891,3.225,3.225,0,0,1-2.406,1.047,2.984,2.984,0,0,1-2.051-.707,2.288,2.288,0,0,1-.8-1.793,2.39,2.39,0,0,1,1-2.051,4.733,4.733,0,0,1,2.824-.73h1.406v-.664A1.623,1.623,0,0,0,82.325,34a1.821,1.821,0,0,0-1.336-.449,2.107,2.107,0,0,0-1.3.391,1.151,1.151,0,0,0-.523.945H77.715a2,2,0,0,1,.449-1.223,3.066,3.066,0,0,1,1.219-.934,4.1,4.1,0,0,1,1.691-.344,3.342,3.342,0,0,1,2.289.73,2.635,2.635,0,0,1,.859,2.012v3.891a4.757,4.757,0,0,0,.3,1.852V41Zm-2.4-1.1a2.54,2.54,0,0,0,1.289-.352,2.127,2.127,0,0,0,.883-.914V36.9H81.645q-2.656,0-2.656,1.555a1.316,1.316,0,0,0,.453,1.063A1.742,1.742,0,0,0,80.606,39.9Zm9.273.078a2.082,2.082,0,0,0,1.352-.469,1.649,1.649,0,0,0,.641-1.172h1.367a2.621,2.621,0,0,1-.5,1.383,3.293,3.293,0,0,1-1.23,1.047,3.55,3.55,0,0,1-1.629.391A3.482,3.482,0,0,1,87.133,40a4.59,4.59,0,0,1-1.02-3.152v-.242a5.089,5.089,0,0,1,.453-2.2,3.451,3.451,0,0,1,1.3-1.492,3.7,3.7,0,0,1,2-.531,3.39,3.39,0,0,1,2.363.852,3.043,3.043,0,0,1,1,2.211H91.871a1.992,1.992,0,0,0-.621-1.348,1.932,1.932,0,0,0-1.379-.527,2.023,2.023,0,0,0-1.707.793,3.724,3.724,0,0,0-.605,2.293v.273a3.65,3.65,0,0,0,.6,2.25A2.033,2.033,0,0,0,89.879,39.977ZM96.434,41H94.989V32.547h1.445ZM94.871,30.3a.863.863,0,0,1,.215-.594.807.807,0,0,1,.637-.242.819.819,0,0,1,.641.242.854.854,0,0,1,.219.594.826.826,0,0,1-.219.586.834.834,0,0,1-.641.234.821.821,0,0,1-.637-.234A.834.834,0,0,1,94.871,30.3ZM98.364,36.7a4.993,4.993,0,0,1,.488-2.234,3.643,3.643,0,0,1,1.359-1.531,3.7,3.7,0,0,1,1.988-.539,3.565,3.565,0,0,1,2.793,1.2,4.6,4.6,0,0,1,1.066,3.18v.1a5.036,5.036,0,0,1-.473,2.215,3.589,3.589,0,0,1-1.352,1.527,3.743,3.743,0,0,1-2.02.547,3.556,3.556,0,0,1-2.785-1.2A4.575,4.575,0,0,1,98.364,36.8Zm1.453.172a3.616,3.616,0,0,0,.652,2.258,2.211,2.211,0,0,0,3.5-.012,3.955,3.955,0,0,0,.648-2.418,3.61,3.61,0,0,0-.66-2.254,2.1,2.1,0,0,0-1.754-.863,2.075,2.075,0,0,0-1.727.852A3.925,3.925,0,0,0,99.817,36.867ZM102.856,29h1.75l-2.094,2.3-1.164,0Zm6.383,3.547.047,1.063a3.08,3.08,0,0,1,2.531-1.219q2.68,0,2.7,3.023V41h-1.445V35.406a1.946,1.946,0,0,0-.418-1.352,1.675,1.675,0,0,0-1.277-.437,2.086,2.086,0,0,0-1.234.375,2.546,2.546,0,0,0-.828.984V41h-1.445V32.547Zm7.414,7.7a.905.905,0,0,1,.223-.625.848.848,0,0,1,.668-.25.874.874,0,0,1,.676.25.887.887,0,0,1,.23.625.839.839,0,0,1-.23.6.89.89,0,0,1-.676.242.8.8,0,0,1-.891-.844Zm.008-6.9a.905.905,0,0,1,.223-.625.848.848,0,0,1,.668-.25.874.874,0,0,1,.676.25.887.887,0,0,1,.23.625.839.839,0,0,1-.23.6.89.89,0,0,1-.676.242.8.8,0,0,1-.891-.844ZM16.223,57.844a4.331,4.331,0,0,0-.711-.055A1.9,1.9,0,0,0,13.582,59v6H12.137V56.547h1.406l.023.977a2.251,2.251,0,0,1,2.016-1.133,1.477,1.477,0,0,1,.641.109ZM22.457,65a3.036,3.036,0,0,1-.2-.891,3.225,3.225,0,0,1-2.406,1.047,2.984,2.984,0,0,1-2.051-.707,2.287,2.287,0,0,1-.8-1.793,2.39,2.39,0,0,1,1-2.051,4.733,4.733,0,0,1,2.824-.73h1.406v-.664A1.623,1.623,0,0,0,21.778,58a1.821,1.821,0,0,0-1.336-.449,2.107,2.107,0,0,0-1.3.391,1.151,1.151,0,0,0-.523.945H17.168a2,2,0,0,1,.449-1.223,3.066,3.066,0,0,1,1.219-.934,4.1,4.1,0,0,1,1.691-.344,3.342,3.342,0,0,1,2.289.73,2.635,2.635,0,0,1,.859,2.012v3.891a4.757,4.757,0,0,0,.3,1.852V65Zm-2.4-1.1a2.54,2.54,0,0,0,1.289-.352,2.127,2.127,0,0,0,.883-.914V60.9H21.1q-2.656,0-2.656,1.555a1.316,1.316,0,0,0,.453,1.063A1.742,1.742,0,0,0,20.059,63.9Zm5.531-3.2a4.952,4.952,0,0,1,.922-3.129,3.137,3.137,0,0,1,4.766-.168V53h1.445V65H31.395l-.07-.906a2.943,2.943,0,0,1-2.414,1.063,2.887,2.887,0,0,1-2.395-1.2,5.008,5.008,0,0,1-.926-3.141Zm1.445.164a3.749,3.749,0,0,0,.594,2.25,1.92,1.92,0,0,0,1.641.813A2.108,2.108,0,0,0,31.278,62.7V58.813a2.125,2.125,0,0,0-1.992-1.2,1.929,1.929,0,0,0-1.656.82A4.128,4.128,0,0,0,27.035,60.867ZM36.535,65H35.09V56.547h1.445ZM34.973,54.3a.863.863,0,0,1,.215-.594.807.807,0,0,1,.637-.242.819.819,0,0,1,.641.242.854.854,0,0,1,.219.594.826.826,0,0,1-.219.586.834.834,0,0,1-.641.234.821.821,0,0,1-.637-.234A.834.834,0,0,1,34.973,54.3ZM38.465,60.7a4.993,4.993,0,0,1,.488-2.234,3.643,3.643,0,0,1,1.359-1.531,3.7,3.7,0,0,1,1.988-.539,3.565,3.565,0,0,1,2.793,1.2,4.6,4.6,0,0,1,1.066,3.18v.1a5.036,5.036,0,0,1-.473,2.215,3.589,3.589,0,0,1-1.352,1.527,3.743,3.743,0,0,1-2.02.547,3.556,3.556,0,0,1-2.785-1.2A4.575,4.575,0,0,1,38.465,60.8Zm1.453.172a3.616,3.616,0,0,0,.652,2.258,2.211,2.211,0,0,0,3.5-.012,3.955,3.955,0,0,0,.648-2.418,3.61,3.61,0,0,0-.66-2.254,2.1,2.1,0,0,0-1.754-.863,2.075,2.075,0,0,0-1.727.852A3.925,3.925,0,0,0,39.918,60.867Zm8.008,6.4-.82-.562a3.77,3.77,0,0,0,.766-2.109v-1.3h1.414v1.133A3.559,3.559,0,0,1,48.9,66,3.7,3.7,0,0,1,47.926,67.266ZM57.035,54.5v2.047h1.578v1.117H57.035v5.249a1.173,1.173,0,0,0,.211.763.888.888,0,0,0,.719.254,3.5,3.5,0,0,0,.688-.094V65a4.215,4.215,0,0,1-1.109.155,1.8,1.8,0,0,1-1.461-.586,2.517,2.517,0,0,1-.492-1.664V57.664H54.051V56.547H55.59V54.5Zm6.773,10.656a3.693,3.693,0,0,1-2.8-1.129,4.19,4.19,0,0,1-1.078-3.02v-.266a5.073,5.073,0,0,1,.48-2.246,3.748,3.748,0,0,1,1.344-1.547,3.378,3.378,0,0,1,1.871-.559,3.166,3.166,0,0,1,2.562,1.086,4.7,4.7,0,0,1,.914,3.109v.6H61.379a3,3,0,0,0,.73,2.02,2.3,2.3,0,0,0,1.777.77,2.517,2.517,0,0,0,1.3-.312,3.259,3.259,0,0,0,.93-.828l.883.688A3.55,3.55,0,0,1,63.809,65.156Zm-.18-7.578a1.928,1.928,0,0,0-1.469.637A3.1,3.1,0,0,0,61.426,60H65.66v-.109a2.753,2.753,0,0,0-.594-1.707A1.815,1.815,0,0,0,63.629,57.578ZM70.348,65H68.9V53h1.445Zm5.82.156a3.693,3.693,0,0,1-2.8-1.129,4.19,4.19,0,0,1-1.078-3.02v-.266a5.073,5.073,0,0,1,.48-2.246,3.748,3.748,0,0,1,1.344-1.547,3.378,3.378,0,0,1,1.871-.559,3.166,3.166,0,0,1,2.563,1.086,4.7,4.7,0,0,1,.914,3.109v.6H73.739a3,3,0,0,0,.73,2.02,2.3,2.3,0,0,0,1.777.77,2.517,2.517,0,0,0,1.3-.312,3.259,3.259,0,0,0,.93-.828l.883.688A3.55,3.55,0,0,1,76.168,65.156Zm-.18-7.578a1.928,1.928,0,0,0-1.469.637A3.1,3.1,0,0,0,73.785,60H78.02v-.109a2.753,2.753,0,0,0-.594-1.707A1.815,1.815,0,0,0,75.989,57.578Zm7.836,5.461,2.094-6.492h1.477L84.364,65h-1.1L80.2,56.547h1.477ZM90.356,65H88.91V56.547h1.445ZM88.793,54.3a.863.863,0,0,1,.215-.594.807.807,0,0,1,.637-.242.819.819,0,0,1,.641.242.854.854,0,0,1,.219.594.826.826,0,0,1-.219.586.834.834,0,0,1-.641.234.821.821,0,0,1-.637-.234A.834.834,0,0,1,88.793,54.3Zm8.8,8.453a1.064,1.064,0,0,0-.441-.91,4.249,4.249,0,0,0-1.539-.559,7.277,7.277,0,0,1-1.742-.562,2.479,2.479,0,0,1-.953-.781,1.869,1.869,0,0,1-.309-1.078,2.193,2.193,0,0,1,.879-1.758,3.432,3.432,0,0,1,2.246-.719,3.532,3.532,0,0,1,2.332.742,2.357,2.357,0,0,1,.895,1.9H97.5a1.3,1.3,0,0,0-.5-1.023,1.888,1.888,0,0,0-1.27-.43,1.976,1.976,0,0,0-1.234.344,1.082,1.082,0,0,0-.445.9.877.877,0,0,0,.414.789,5.1,5.1,0,0,0,1.5.508,7.8,7.8,0,0,1,1.754.578,2.558,2.558,0,0,1,1,.809,1.988,1.988,0,0,1,.324,1.152,2.163,2.163,0,0,1-.906,1.816,3.8,3.8,0,0,1-2.352.684,4.257,4.257,0,0,1-1.8-.359,2.922,2.922,0,0,1-1.223-1,2.42,2.42,0,0,1-.441-1.395h1.445a1.5,1.5,0,0,0,.582,1.152,2.258,2.258,0,0,0,1.434.426,2.331,2.331,0,0,0,1.316-.332A1.02,1.02,0,0,0,97.59,62.758Zm4.9,2.242h-1.445V56.547h1.445Zm-1.562-10.7a.863.863,0,0,1,.215-.594.807.807,0,0,1,.637-.242.819.819,0,0,1,.641.242.854.854,0,0,1,.219.594.826.826,0,0,1-.219.586.834.834,0,0,1-.641.234.821.821,0,0,1-.637-.234A.834.834,0,0,1,100.926,54.3Zm3.492,6.391a4.993,4.993,0,0,1,.488-2.234,3.643,3.643,0,0,1,1.359-1.531,3.7,3.7,0,0,1,1.988-.539,3.565,3.565,0,0,1,2.793,1.2,4.6,4.6,0,0,1,1.066,3.18v.1a5.036,5.036,0,0,1-.473,2.215,3.589,3.589,0,0,1-1.352,1.527,3.743,3.743,0,0,1-2.02.547,3.556,3.556,0,0,1-2.785-1.2,4.575,4.575,0,0,1-1.066-3.164Zm1.453.172a3.616,3.616,0,0,0,.652,2.258,2.211,2.211,0,0,0,3.5-.012,3.955,3.955,0,0,0,.648-2.418,3.61,3.61,0,0,0-.66-2.254,2.1,2.1,0,0,0-1.754-.863,2.075,2.075,0,0,0-1.727.852A3.925,3.925,0,0,0,105.871,60.867ZM108.91,53h1.75l-2.094,2.3-1.164,0Zm6.383,3.547.047,1.063a3.08,3.08,0,0,1,2.531-1.219q2.68,0,2.7,3.023V65h-1.445V59.406a1.946,1.946,0,0,0-.418-1.352,1.675,1.675,0,0,0-1.277-.437,2.086,2.086,0,0,0-1.234.375,2.546,2.546,0,0,0-.828.984V65h-1.445V56.547Z" transform="translate(29.24 57.764)" fill="#12263f"/>
      <path id="Trazado_609199" data-name="Trazado 609199" d="M25.391,13.391a4.185,4.185,0,0,1-1.332,2.785,4.365,4.365,0,0,1-2.98.98,4.008,4.008,0,0,1-3.23-1.445,5.815,5.815,0,0,1-1.215-3.867V10.75A6.481,6.481,0,0,1,17.2,7.961,4.231,4.231,0,0,1,18.8,6.113a4.47,4.47,0,0,1,2.406-.645A4.11,4.11,0,0,1,24.117,6.48a4.235,4.235,0,0,1,1.273,2.8H23.883a3.268,3.268,0,0,0-.848-1.975A2.565,2.565,0,0,0,21.211,6.7a2.684,2.684,0,0,0-2.254,1.063,4.882,4.882,0,0,0-.816,3.026v1.1a5.018,5.018,0,0,0,.773,2.948,2.5,2.5,0,0,0,2.164,1.095A2.886,2.886,0,0,0,23,15.363a3.143,3.143,0,0,0,.887-1.973Zm1.438-.7a4.993,4.993,0,0,1,.488-2.234A3.643,3.643,0,0,1,28.676,8.93a3.7,3.7,0,0,1,1.988-.539,3.565,3.565,0,0,1,2.793,1.2,4.6,4.6,0,0,1,1.066,3.18v.1a5.036,5.036,0,0,1-.473,2.215A3.589,3.589,0,0,1,32.7,16.609a3.743,3.743,0,0,1-2.02.547,3.556,3.556,0,0,1-2.785-1.2A4.575,4.575,0,0,1,26.828,12.8Zm1.453.172a3.616,3.616,0,0,0,.652,2.258,2.211,2.211,0,0,0,3.5-.012,3.955,3.955,0,0,0,.648-2.418,3.61,3.61,0,0,0-.66-2.254,2.1,2.1,0,0,0-1.754-.863,2.075,2.075,0,0,0-1.727.852A3.925,3.925,0,0,0,28.282,12.867ZM40.422,9.844a4.331,4.331,0,0,0-.711-.055A1.9,1.9,0,0,0,37.782,11v6H36.336V8.547h1.406l.023.977a2.251,2.251,0,0,1,2.016-1.133,1.477,1.477,0,0,1,.641.109Zm5.414,0a4.331,4.331,0,0,0-.711-.055A1.9,1.9,0,0,0,43.2,11v6H41.75V8.547h1.406l.023.977A2.251,2.251,0,0,1,45.2,8.391a1.477,1.477,0,0,1,.641.109Zm4.836,7.313a3.693,3.693,0,0,1-2.8-1.129,4.19,4.19,0,0,1-1.078-3.02v-.266a5.073,5.073,0,0,1,.48-2.246,3.748,3.748,0,0,1,1.344-1.547,3.378,3.378,0,0,1,1.871-.559,3.166,3.166,0,0,1,2.563,1.086,4.7,4.7,0,0,1,.914,3.109v.6H48.242a3,3,0,0,0,.73,2.02,2.3,2.3,0,0,0,1.777.77,2.517,2.517,0,0,0,1.3-.312,3.259,3.259,0,0,0,.93-.828l.883.688A3.55,3.55,0,0,1,50.672,17.156Zm-.18-7.578a1.928,1.928,0,0,0-1.469.637A3.1,3.1,0,0,0,48.289,12h4.234v-.109a2.753,2.753,0,0,0-.594-1.707A1.815,1.815,0,0,0,50.492,9.578ZM55.258,12.7a4.993,4.993,0,0,1,.488-2.234A3.643,3.643,0,0,1,57.106,8.93a3.7,3.7,0,0,1,1.988-.539,3.565,3.565,0,0,1,2.793,1.2,4.6,4.6,0,0,1,1.066,3.18v.1a5.036,5.036,0,0,1-.473,2.215,3.589,3.589,0,0,1-1.352,1.527,3.743,3.743,0,0,1-2.02.547,3.556,3.556,0,0,1-2.785-1.2A4.575,4.575,0,0,1,55.258,12.8Zm1.453.172a3.616,3.616,0,0,0,.652,2.258,2.211,2.211,0,0,0,3.5-.012,3.955,3.955,0,0,0,.648-2.418,3.61,3.61,0,0,0-.66-2.254,2.1,2.1,0,0,0-1.754-.863,2.075,2.075,0,0,0-1.727.852A3.925,3.925,0,0,0,56.711,12.867ZM68.375,12.7A4.952,4.952,0,0,1,69.3,9.574a3.137,3.137,0,0,1,4.766-.168V5h1.445V17H74.18l-.07-.906A2.943,2.943,0,0,1,71.7,17.156a2.887,2.887,0,0,1-2.395-1.2,5.008,5.008,0,0,1-.926-3.141Zm1.445.164a3.749,3.749,0,0,0,.594,2.25,1.92,1.92,0,0,0,1.641.813A2.108,2.108,0,0,0,74.063,14.7V10.813a2.125,2.125,0,0,0-1.992-1.2,1.929,1.929,0,0,0-1.656.82A4.128,4.128,0,0,0,69.821,12.867ZM79.321,17H77.875V8.547h1.445ZM77.758,6.3a.863.863,0,0,1,.215-.594.807.807,0,0,1,.637-.242.819.819,0,0,1,.641.242.854.854,0,0,1,.219.594.826.826,0,0,1-.219.586.834.834,0,0,1-.641.234.821.821,0,0,1-.637-.234A.834.834,0,0,1,77.758,6.3Zm7.961,3.539a4.331,4.331,0,0,0-.711-.055A1.9,1.9,0,0,0,83.078,11v6H81.633V8.547h1.406l.023.977a2.251,2.251,0,0,1,2.016-1.133,1.477,1.477,0,0,1,.641.109Zm4.836,7.313a3.693,3.693,0,0,1-2.8-1.129,4.19,4.19,0,0,1-1.078-3.02v-.266a5.073,5.073,0,0,1,.48-2.246A3.748,3.748,0,0,1,88.5,8.949a3.378,3.378,0,0,1,1.871-.559,3.166,3.166,0,0,1,2.563,1.086,4.7,4.7,0,0,1,.914,3.109v.6H88.125a3,3,0,0,0,.73,2.02,2.3,2.3,0,0,0,1.777.77,2.517,2.517,0,0,0,1.3-.312,3.259,3.259,0,0,0,.93-.828l.883.688A3.55,3.55,0,0,1,90.555,17.156Zm-.18-7.578a1.928,1.928,0,0,0-1.469.637A3.1,3.1,0,0,0,88.172,12h4.234v-.109a2.753,2.753,0,0,0-.594-1.707A1.815,1.815,0,0,0,90.375,9.578Zm8.539,6.4a2.082,2.082,0,0,0,1.352-.469,1.649,1.649,0,0,0,.641-1.172h1.367a2.621,2.621,0,0,1-.5,1.383,3.293,3.293,0,0,1-1.23,1.047,3.55,3.55,0,0,1-1.629.391A3.482,3.482,0,0,1,96.168,16a4.59,4.59,0,0,1-1.02-3.152v-.242a5.089,5.089,0,0,1,.453-2.2,3.451,3.451,0,0,1,1.3-1.492,3.7,3.7,0,0,1,2-.531,3.39,3.39,0,0,1,2.363.852,3.043,3.043,0,0,1,1,2.211h-1.367a1.992,1.992,0,0,0-.621-1.348,1.932,1.932,0,0,0-1.379-.527,2.023,2.023,0,0,0-1.707.793,3.724,3.724,0,0,0-.605,2.293v.273a3.65,3.65,0,0,0,.6,2.25A2.033,2.033,0,0,0,98.914,15.977ZM105.86,6.5V8.547h1.578V9.664H105.86v5.249a1.173,1.173,0,0,0,.211.763.888.888,0,0,0,.719.254,3.5,3.5,0,0,0,.688-.094V17a4.215,4.215,0,0,1-1.109.155,1.8,1.8,0,0,1-1.461-.586,2.517,2.517,0,0,1-.492-1.664V9.664h-1.539V8.547h1.539V6.5Zm2.727,6.2a4.993,4.993,0,0,1,.488-2.234,3.643,3.643,0,0,1,1.359-1.531,3.7,3.7,0,0,1,1.988-.539,3.565,3.565,0,0,1,2.793,1.2,4.6,4.6,0,0,1,1.066,3.18v.1a5.036,5.036,0,0,1-.473,2.215,3.589,3.589,0,0,1-1.352,1.527,3.743,3.743,0,0,1-2.02.547,3.556,3.556,0,0,1-2.785-1.2,4.575,4.575,0,0,1-1.066-3.164Zm1.453.172a3.616,3.616,0,0,0,.652,2.258,2.211,2.211,0,0,0,3.5-.012,3.955,3.955,0,0,0,.648-2.418,3.61,3.61,0,0,0-.66-2.254,2.1,2.1,0,0,0-1.754-.863,2.075,2.075,0,0,0-1.727.852A3.925,3.925,0,0,0,110.039,12.867Z" transform="translate(271.03 79.487)" fill="#12263f"/>
      <path id="Trazado_609200" data-name="Trazado 609200" d="M31.84,12.547V17h-1.5V5.625h4.2a4.215,4.215,0,0,1,2.926.953A3.231,3.231,0,0,1,38.52,9.1a3.189,3.189,0,0,1-1.035,2.551,4.4,4.4,0,0,1-2.965.895Zm0-1.227h2.7a2.7,2.7,0,0,0,1.844-.567,2.075,2.075,0,0,0,.641-1.64,2.143,2.143,0,0,0-.641-1.628,2.525,2.525,0,0,0-1.758-.634H31.84Zm13.586,4.844a3.07,3.07,0,0,1-2.477.992,2.628,2.628,0,0,1-2.059-.785,3.4,3.4,0,0,1-.715-2.324v-5.5h1.445v5.461q0,1.922,1.563,1.922a2.163,2.163,0,0,0,2.2-1.234V8.547h1.445V17H45.457Zm10.758-3.3a5.026,5.026,0,0,1-.891,3.113A2.846,2.846,0,0,1,52.9,17.156a2.947,2.947,0,0,1-2.477-1.133l-.07.977H49.028V5h1.445V9.477a2.93,2.93,0,0,1,2.414-1.086A2.863,2.863,0,0,1,55.3,9.555a5.177,5.177,0,0,1,.879,3.188ZM54.739,12.7a3.906,3.906,0,0,0-.57-2.281,1.888,1.888,0,0,0-1.641-.8,2.122,2.122,0,0,0-2.055,1.328V14.6a2.181,2.181,0,0,0,2.07,1.328,1.878,1.878,0,0,0,1.617-.8A4.153,4.153,0,0,0,54.739,12.7ZM59.575,17H58.129V5h1.445Zm3.883,0H62.012V8.547h1.445ZM61.895,6.3a.863.863,0,0,1,.215-.594.807.807,0,0,1,.637-.242.819.819,0,0,1,.641.242.854.854,0,0,1,.219.594.826.826,0,0,1-.219.586.834.834,0,0,1-.641.234.821.821,0,0,1-.637-.234A.834.834,0,0,1,61.895,6.3Zm7.266,9.672a2.082,2.082,0,0,0,1.352-.469,1.649,1.649,0,0,0,.641-1.172H72.52a2.621,2.621,0,0,1-.5,1.383,3.293,3.293,0,0,1-1.23,1.047,3.55,3.55,0,0,1-1.629.391A3.482,3.482,0,0,1,66.414,16a4.59,4.59,0,0,1-1.02-3.152v-.242a5.089,5.089,0,0,1,.453-2.2,3.451,3.451,0,0,1,1.3-1.492,3.7,3.7,0,0,1,2-.531,3.39,3.39,0,0,1,2.363.852,3.043,3.043,0,0,1,1,2.211H71.153a1.992,1.992,0,0,0-.621-1.348,1.932,1.932,0,0,0-1.379-.527,2.023,2.023,0,0,0-1.707.793,3.724,3.724,0,0,0-.605,2.293v.273a3.65,3.65,0,0,0,.6,2.25A2.033,2.033,0,0,0,69.16,15.977ZM75.715,17H74.27V8.547h1.445ZM74.153,6.3a.863.863,0,0,1,.215-.594A.807.807,0,0,1,75,5.469a.819.819,0,0,1,.641.242.854.854,0,0,1,.219.594.826.826,0,0,1-.219.586A.834.834,0,0,1,75,7.125a.821.821,0,0,1-.637-.234A.834.834,0,0,1,74.153,6.3Zm3.523,6.4A4.952,4.952,0,0,1,78.6,9.574a3.137,3.137,0,0,1,4.766-.168V5h1.445V17H83.481l-.07-.906A2.943,2.943,0,0,1,81,17.156a2.887,2.887,0,0,1-2.395-1.2,5.008,5.008,0,0,1-.926-3.141Zm1.445.164a3.749,3.749,0,0,0,.594,2.25,1.92,1.92,0,0,0,1.641.813A2.108,2.108,0,0,0,83.364,14.7V10.813a2.125,2.125,0,0,0-1.992-1.2,1.929,1.929,0,0,0-1.656.82A4.128,4.128,0,0,0,79.121,12.867ZM92.27,17a3.036,3.036,0,0,1-.2-.891,3.225,3.225,0,0,1-2.406,1.047,2.984,2.984,0,0,1-2.051-.707,2.288,2.288,0,0,1-.8-1.793,2.39,2.39,0,0,1,1-2.051,4.733,4.733,0,0,1,2.824-.73h1.406v-.664A1.623,1.623,0,0,0,91.59,10a1.821,1.821,0,0,0-1.336-.449,2.108,2.108,0,0,0-1.3.391,1.151,1.151,0,0,0-.523.945H86.981a2,2,0,0,1,.449-1.223,3.066,3.066,0,0,1,1.219-.934,4.1,4.1,0,0,1,1.691-.344,3.342,3.342,0,0,1,2.289.73,2.635,2.635,0,0,1,.859,2.012v3.891a4.757,4.757,0,0,0,.3,1.852V17Zm-2.4-1.1a2.54,2.54,0,0,0,1.289-.352,2.127,2.127,0,0,0,.883-.914V12.9H90.91q-2.656,0-2.656,1.555a1.316,1.316,0,0,0,.453,1.063A1.742,1.742,0,0,0,89.871,15.9ZM95.4,12.7a4.952,4.952,0,0,1,.922-3.129,3.137,3.137,0,0,1,4.766-.168V5h1.445V17h-1.328l-.07-.906a2.943,2.943,0,0,1-2.414,1.063,2.887,2.887,0,0,1-2.395-1.2,5.008,5.008,0,0,1-.926-3.141Zm1.445.164a3.749,3.749,0,0,0,.594,2.25,1.92,1.92,0,0,0,1.641.813A2.108,2.108,0,0,0,101.09,14.7V10.813a2.125,2.125,0,0,0-1.992-1.2,1.929,1.929,0,0,0-1.656.82A4.128,4.128,0,0,0,96.848,12.867ZM38.215,41H36.77V32.547h1.445ZM36.653,30.3a.863.863,0,0,1,.215-.594.807.807,0,0,1,.637-.242.819.819,0,0,1,.641.242.854.854,0,0,1,.219.594.826.826,0,0,1-.219.586.834.834,0,0,1-.641.234.821.821,0,0,1-.637-.234A.834.834,0,0,1,36.653,30.3Zm5.234,2.242.039.938a3.122,3.122,0,0,1,2.508-1.094,2.417,2.417,0,0,1,2.414,1.359,3.2,3.2,0,0,1,1.1-.984,3.242,3.242,0,0,1,1.6-.375q2.781,0,2.828,2.945V41H50.926V35.422a1.941,1.941,0,0,0-.414-1.355,1.823,1.823,0,0,0-1.391-.449,1.916,1.916,0,0,0-1.336.48,1.949,1.949,0,0,0-.617,1.293V41H45.715V35.461a1.613,1.613,0,0,0-1.8-1.844,1.934,1.934,0,0,0-1.945,1.211V41H40.52V32.547Zm19.8,4.32a5.062,5.062,0,0,1-.883,3.109,2.829,2.829,0,0,1-2.391,1.18A3.1,3.1,0,0,1,56,40.18v4.07H54.551v-11.7h1.32l.07.938a2.977,2.977,0,0,1,2.453-1.094,2.882,2.882,0,0,1,2.41,1.148,5.117,5.117,0,0,1,.887,3.2ZM60.246,36.7a3.735,3.735,0,0,0-.609-2.258,1.963,1.963,0,0,0-1.672-.828A2.125,2.125,0,0,0,56,34.781V38.82a2.129,2.129,0,0,0,1.984,1.156,1.954,1.954,0,0,0,1.652-.824A4.077,4.077,0,0,0,60.246,36.7Zm7.367-2.859a4.331,4.331,0,0,0-.711-.055A1.9,1.9,0,0,0,64.973,35v6H63.528V32.547h1.406l.023.977a2.251,2.251,0,0,1,2.016-1.133,1.477,1.477,0,0,1,.641.109Zm4.836,7.313a3.693,3.693,0,0,1-2.8-1.129,4.19,4.19,0,0,1-1.078-3.02v-.266a5.073,5.073,0,0,1,.48-2.246A3.748,3.748,0,0,1,70.4,32.949a3.378,3.378,0,0,1,1.871-.559,3.166,3.166,0,0,1,2.563,1.086,4.7,4.7,0,0,1,.914,3.109v.6H70.02a3,3,0,0,0,.73,2.02,2.3,2.3,0,0,0,1.777.77,2.517,2.517,0,0,0,1.3-.312,3.259,3.259,0,0,0,.93-.828l.883.688A3.55,3.55,0,0,1,72.45,41.156Zm-.18-7.578a1.928,1.928,0,0,0-1.469.637A3.1,3.1,0,0,0,70.067,36H74.3v-.109a2.753,2.753,0,0,0-.594-1.707A1.815,1.815,0,0,0,72.27,33.578Zm10.07,5.18a1.064,1.064,0,0,0-.441-.91,4.249,4.249,0,0,0-1.539-.559,7.277,7.277,0,0,1-1.742-.562,2.479,2.479,0,0,1-.953-.781,1.869,1.869,0,0,1-.309-1.078,2.193,2.193,0,0,1,.879-1.758,3.432,3.432,0,0,1,2.246-.719,3.532,3.532,0,0,1,2.332.742,2.357,2.357,0,0,1,.895,1.9H82.254a1.3,1.3,0,0,0-.5-1.023,1.888,1.888,0,0,0-1.27-.43,1.976,1.976,0,0,0-1.234.344,1.082,1.082,0,0,0-.445.9.877.877,0,0,0,.414.789,5.1,5.1,0,0,0,1.5.508,7.8,7.8,0,0,1,1.754.578,2.558,2.558,0,0,1,1,.809,1.988,1.988,0,0,1,.324,1.152,2.163,2.163,0,0,1-.906,1.816,3.8,3.8,0,0,1-2.352.684,4.257,4.257,0,0,1-1.8-.359,2.922,2.922,0,0,1-1.223-1,2.42,2.42,0,0,1-.441-1.395h1.445a1.5,1.5,0,0,0,.582,1.152,2.258,2.258,0,0,0,1.434.426,2.331,2.331,0,0,0,1.316-.332A1.02,1.02,0,0,0,82.34,38.758ZM90.887,41a3.036,3.036,0,0,1-.2-.891,3.225,3.225,0,0,1-2.406,1.047,2.984,2.984,0,0,1-2.051-.707,2.288,2.288,0,0,1-.8-1.793,2.39,2.39,0,0,1,1-2.051,4.733,4.733,0,0,1,2.824-.73H90.66v-.664A1.623,1.623,0,0,0,90.207,34a1.821,1.821,0,0,0-1.336-.449,2.107,2.107,0,0,0-1.3.391,1.151,1.151,0,0,0-.523.945H85.6a2,2,0,0,1,.449-1.223,3.066,3.066,0,0,1,1.219-.934,4.1,4.1,0,0,1,1.691-.344,3.342,3.342,0,0,1,2.289.73,2.635,2.635,0,0,1,.859,2.012v3.891a4.757,4.757,0,0,0,.3,1.852V41Zm-2.4-1.1a2.54,2.54,0,0,0,1.289-.352,2.127,2.127,0,0,0,.883-.914V36.9H89.528q-2.656,0-2.656,1.555a1.316,1.316,0,0,0,.453,1.063A1.742,1.742,0,0,0,88.489,39.9Zm5.836.344a.905.905,0,0,1,.223-.625.848.848,0,0,1,.668-.25.874.874,0,0,1,.676.25.887.887,0,0,1,.23.625.839.839,0,0,1-.23.6.89.89,0,0,1-.676.242.8.8,0,0,1-.891-.844Zm.008-6.9a.905.905,0,0,1,.223-.625.848.848,0,0,1,.668-.25.874.874,0,0,1,.676.25.887.887,0,0,1,.23.625.839.839,0,0,1-.23.6.89.89,0,0,1-.676.242.8.8,0,0,1-.891-.844ZM37.321,60.867a5.062,5.062,0,0,1-.883,3.109,2.829,2.829,0,0,1-2.391,1.18,3.1,3.1,0,0,1-2.422-.977v4.07H30.18v-11.7H31.5l.07.938a2.977,2.977,0,0,1,2.453-1.094,2.882,2.882,0,0,1,2.41,1.148,5.117,5.117,0,0,1,.887,3.2ZM35.875,60.7a3.735,3.735,0,0,0-.609-2.258,1.963,1.963,0,0,0-1.672-.828,2.125,2.125,0,0,0-1.969,1.164V62.82a2.129,2.129,0,0,0,1.984,1.156,1.954,1.954,0,0,0,1.652-.824A4.077,4.077,0,0,0,35.875,60.7Zm6.789,4.453a3.693,3.693,0,0,1-2.8-1.129,4.19,4.19,0,0,1-1.078-3.02v-.266a5.073,5.073,0,0,1,.48-2.246,3.748,3.748,0,0,1,1.344-1.547,3.378,3.378,0,0,1,1.871-.559,3.166,3.166,0,0,1,2.563,1.086,4.7,4.7,0,0,1,.914,3.109v.6H40.235a3,3,0,0,0,.73,2.02,2.3,2.3,0,0,0,1.777.77,2.517,2.517,0,0,0,1.3-.312,3.258,3.258,0,0,0,.93-.828l.883.688A3.55,3.55,0,0,1,42.664,65.156Zm-.18-7.578a1.928,1.928,0,0,0-1.469.637A3.1,3.1,0,0,0,40.282,60h4.234v-.109a2.753,2.753,0,0,0-.594-1.707A1.815,1.815,0,0,0,42.485,57.578Zm9.234.266a4.331,4.331,0,0,0-.711-.055A1.9,1.9,0,0,0,49.078,59v6H47.633V56.547h1.406l.023.977a2.251,2.251,0,0,1,2.016-1.133,1.477,1.477,0,0,1,.641.109ZM54.617,65H53.172V56.547h1.445ZM53.055,54.3a.863.863,0,0,1,.215-.594.807.807,0,0,1,.637-.242.819.819,0,0,1,.641.242.854.854,0,0,1,.219.594.826.826,0,0,1-.219.586.834.834,0,0,1-.641.234.821.821,0,0,1-.637-.234A.834.834,0,0,1,53.055,54.3ZM56.547,60.7a4.993,4.993,0,0,1,.488-2.234,3.643,3.643,0,0,1,1.359-1.531,3.7,3.7,0,0,1,1.988-.539,3.565,3.565,0,0,1,2.793,1.2,4.6,4.6,0,0,1,1.066,3.18v.1a5.036,5.036,0,0,1-.473,2.215,3.589,3.589,0,0,1-1.352,1.527,3.743,3.743,0,0,1-2.02.547,3.556,3.556,0,0,1-2.785-1.2A4.575,4.575,0,0,1,56.547,60.8ZM58,60.867a3.616,3.616,0,0,0,.652,2.258,2.211,2.211,0,0,0,3.5-.012A3.955,3.955,0,0,0,62.8,60.7a3.61,3.61,0,0,0-.66-2.254,2.1,2.1,0,0,0-1.754-.863,2.075,2.075,0,0,0-1.727.852A3.925,3.925,0,0,0,58,60.867ZM61.039,53h1.75L60.7,55.3l-1.164,0ZM65.7,60.7a4.952,4.952,0,0,1,.922-3.129,3.137,3.137,0,0,1,4.766-.168V53h1.445V65H71.508l-.07-.906a2.943,2.943,0,0,1-2.414,1.063,2.887,2.887,0,0,1-2.395-1.2,5.008,5.008,0,0,1-.926-3.141Zm1.445.164a3.749,3.749,0,0,0,.594,2.25,1.92,1.92,0,0,0,1.641.813A2.108,2.108,0,0,0,71.391,62.7V58.813a2.125,2.125,0,0,0-1.992-1.2,1.929,1.929,0,0,0-1.656.82A4.128,4.128,0,0,0,67.149,60.867ZM76.649,65H75.2V56.547h1.445ZM75.086,54.3a.863.863,0,0,1,.215-.594.807.807,0,0,1,.637-.242.819.819,0,0,1,.641.242.854.854,0,0,1,.219.594.826.826,0,0,1-.219.586.834.834,0,0,1-.641.234.821.821,0,0,1-.637-.234A.834.834,0,0,1,75.086,54.3Zm7.266,9.672a2.082,2.082,0,0,0,1.352-.469,1.649,1.649,0,0,0,.641-1.172h1.367a2.621,2.621,0,0,1-.5,1.383,3.293,3.293,0,0,1-1.23,1.047,3.55,3.55,0,0,1-1.629.391A3.482,3.482,0,0,1,79.606,64a4.59,4.59,0,0,1-1.02-3.152v-.242a5.089,5.089,0,0,1,.453-2.2,3.451,3.451,0,0,1,1.3-1.492,3.7,3.7,0,0,1,2-.531,3.39,3.39,0,0,1,2.363.852,3.043,3.043,0,0,1,1,2.211H84.344a1.992,1.992,0,0,0-.621-1.348,1.932,1.932,0,0,0-1.379-.527,2.023,2.023,0,0,0-1.707.793,3.724,3.724,0,0,0-.605,2.293v.273a3.65,3.65,0,0,0,.6,2.25A2.033,2.033,0,0,0,82.352,63.977Zm4.6-3.281a4.993,4.993,0,0,1,.488-2.234A3.643,3.643,0,0,1,88.8,56.93a3.7,3.7,0,0,1,1.988-.539,3.565,3.565,0,0,1,2.793,1.2,4.6,4.6,0,0,1,1.066,3.18v.1a5.036,5.036,0,0,1-.473,2.215,3.589,3.589,0,0,1-1.352,1.527,3.743,3.743,0,0,1-2.02.547,3.556,3.556,0,0,1-2.785-1.2A4.575,4.575,0,0,1,86.953,60.8Zm1.453.172a3.616,3.616,0,0,0,.652,2.258,2.211,2.211,0,0,0,3.5-.012A3.955,3.955,0,0,0,93.2,60.7a3.61,3.61,0,0,0-.66-2.254,2.1,2.1,0,0,0-1.754-.863,2.075,2.075,0,0,0-1.727.852A3.925,3.925,0,0,0,88.407,60.867Zm12.977,1.891a1.064,1.064,0,0,0-.441-.91,4.249,4.249,0,0,0-1.539-.559,7.277,7.277,0,0,1-1.742-.562,2.479,2.479,0,0,1-.953-.781,1.869,1.869,0,0,1-.309-1.078,2.193,2.193,0,0,1,.879-1.758,3.432,3.432,0,0,1,2.246-.719,3.532,3.532,0,0,1,2.332.742,2.357,2.357,0,0,1,.895,1.9H101.3a1.3,1.3,0,0,0-.5-1.023,1.888,1.888,0,0,0-1.27-.43,1.976,1.976,0,0,0-1.234.344,1.082,1.082,0,0,0-.445.9.877.877,0,0,0,.414.789,5.1,5.1,0,0,0,1.5.508,7.8,7.8,0,0,1,1.754.578,2.558,2.558,0,0,1,1,.809,1.988,1.988,0,0,1,.324,1.152,2.163,2.163,0,0,1-.906,1.816,3.8,3.8,0,0,1-2.352.684,4.257,4.257,0,0,1-1.8-.359,2.922,2.922,0,0,1-1.223-1A2.42,2.42,0,0,1,96.11,62.4h1.445a1.5,1.5,0,0,0,.582,1.152,2.258,2.258,0,0,0,1.434.426,2.331,2.331,0,0,0,1.316-.332A1.02,1.02,0,0,0,101.383,62.758Z" transform="translate(515.07 58.119)" fill="#12263f"/>
    </g>
  </g>
</svg>
