<svg id="Grupo_786707" data-name="Grupo 786707" xmlns="http://www.w3.org/2000/svg" xmlns:xlink="http://www.w3.org/1999/xlink" width="139.184" height="117.655" viewBox="0 0 139.184 117.655">
  <defs>
    <clipPath id="clip-path">
      <rect id="Rectángulo_309916" data-name="Rectángulo 309916" width="139.184" height="117.655" fill="none"/>
    </clipPath>
    <clipPath id="clip-path-3">
      <rect id="Rectángulo_309911" data-name="Rectángulo 309911" width="21.729" height="0.135" fill="none"/>
    </clipPath>
    <clipPath id="clip-path-4">
      <rect id="Rectángulo_309913" data-name="Rectángulo 309913" width="0.435" height="0.722" fill="none"/>
    </clipPath>
  </defs>
  <g id="Grupo_786706" data-name="Grupo 786706" clip-path="url(#clip-path)">
    <g id="Grupo_786705" data-name="Grupo 786705">
      <g id="Grupo_786704" data-name="Grupo 786704" clip-path="url(#clip-path)">
        <g id="Grupo_786700" data-name="Grupo 786700" transform="translate(22.875 55.491)" opacity="0.4">
          <g id="Grupo_786699" data-name="Grupo 786699">
            <g id="Grupo_786698" data-name="Grupo 786698" clip-path="url(#clip-path-3)">
              <rect id="Rectángulo_309910" data-name="Rectángulo 309910" width="21.729" height="0.135" transform="translate(0 0)" fill="#fbbd06"/>
            </g>
          </g>
        </g>
        <path id="Trazado_549274" data-name="Trazado 549274" d="M127.256,6.667V21.443L106.4,38.752V22.6H75.107V.218L75.324,0H120.59a6.667,6.667,0,0,1,6.666,6.666" transform="translate(-30.503 0)" fill="#fbbd06"/>
        <rect id="Rectángulo_309912" data-name="Rectángulo 309912" width="21.729" height="32.893" transform="translate(22.875 22.599)" fill="#4385f6"/>
        <path id="Trazado_549275" data-name="Trazado 549275" d="M127.256,83.776V97.683a6.667,6.667,0,0,1-6.666,6.666H75.107V82.486H106.4V66.467Z" transform="translate(-30.503 -26.994)" fill="#34a855"/>
        <path id="Trazado_549276" data-name="Trazado 549276" d="M148.654,36.106v35.34l-20.86-17.309v-.722Z" transform="translate(-51.901 -14.664)" fill="#19803b"/>
        <g id="Grupo_786703" data-name="Grupo 786703" transform="translate(75.459 38.751)" opacity="0.49">
          <g id="Grupo_786702" data-name="Grupo 786702">
            <g id="Grupo_786701" data-name="Grupo 786701" clip-path="url(#clip-path-4)">
              <path id="Trazado_549277" data-name="Trazado 549277" d="M127.062,65.613l.435-.36v.721Z" transform="translate(-127.062 -65.252)" fill="#fbbd06"/>
            </g>
          </g>
        </g>
        <path id="Trazado_549278" data-name="Trazado 549278" d="M182.474,17.058V72.7A2.853,2.853,0,0,1,177.8,74.9l-14.88-12.347V27.209L177.8,14.863a2.853,2.853,0,0,1,4.676,2.194" transform="translate(-66.165 -5.767)" fill="#34a855"/>
        <path id="Trazado_549279" data-name="Trazado 549279" d="M60.248,93.44V115.3H45.185a6.667,6.667,0,0,1-6.666-6.666V93.44Z" transform="translate(-15.644 -37.949)" fill="#1967d4"/>
        <path id="Trazado_549280" data-name="Trazado 549280" d="M60.247.366V22.747H38.519v-.652Z" transform="translate(-15.644 -0.149)" fill="#ea4331"/>
        <path id="Trazado_549281" data-name="Trazado 549281" d="M14.419,176.014a16.367,16.367,0,0,1-5.4.964,9.034,9.034,0,0,1-6.571-2.32A9.042,9.042,0,0,1,0,168.114c.026-5.241,3.624-9.074,9.517-9.074a10.87,10.87,0,0,1,4.38.808L13.35,161.7a9.113,9.113,0,0,0-3.885-.756c-4.276,0-7.066,2.659-7.066,7.066,0,4.459,2.685,7.092,6.779,7.092a7.4,7.4,0,0,0,3.025-.469v-5.241H8.63v-1.825h5.788Z" transform="translate(0 -64.591)"/>
        <path id="Trazado_549282" data-name="Trazado 549282" d="M41,173.7c0,4.667-3.233,6.7-6.284,6.7-3.415,0-6.049-2.5-6.049-6.492,0-4.224,2.764-6.7,6.258-6.7,3.624,0,6.075,2.634,6.075,6.493m-10.012.13c0,2.764,1.59,4.85,3.833,4.85,2.19,0,3.833-2.06,3.833-4.9,0-2.138-1.069-4.85-3.781-4.85s-3.885,2.5-3.885,4.9" transform="translate(-11.643 -67.907)"/>
        <path id="Trazado_549283" data-name="Trazado 549283" d="M65.107,173.7c0,4.667-3.233,6.7-6.284,6.7-3.415,0-6.049-2.5-6.049-6.492,0-4.224,2.763-6.7,6.258-6.7,3.624,0,6.075,2.634,6.075,6.493m-10.012.13c0,2.764,1.59,4.85,3.833,4.85,2.19,0,3.833-2.06,3.833-4.9,0-2.138-1.069-4.85-3.781-4.85s-3.885,2.5-3.885,4.9" transform="translate(-21.433 -67.907)"/>
        <path id="Trazado_549284" data-name="Trazado 549284" d="M88.664,167.493c-.052.913-.1,1.929-.1,3.468v7.327c0,2.894-.574,4.667-1.8,5.762a6.689,6.689,0,0,1-4.589,1.513,8.147,8.147,0,0,1-4.2-1.043l.573-1.747a7.118,7.118,0,0,0,3.7.991c2.346,0,4.067-1.225,4.067-4.406v-1.408h-.052a4.505,4.505,0,0,1-4.015,2.112c-3.129,0-5.371-2.659-5.371-6.153,0-4.276,2.789-6.7,5.684-6.7A4.2,4.2,0,0,1,86.5,169.4h.052l.1-1.9Zm-2.373,4.98a3.356,3.356,0,0,0-3.338-3.468c-2.19,0-3.754,1.851-3.754,4.771,0,2.477,1.251,4.537,3.728,4.537a3.355,3.355,0,0,0,3.181-2.347,4,4,0,0,0,.182-1.225Z" transform="translate(-31.223 -67.907)"/>
        <rect id="Rectángulo_309914" data-name="Rectángulo 309914" width="2.295" height="18.512" transform="translate(61.145 93.693)"/>
        <path id="Trazado_549285" data-name="Trazado 549285" d="M113.974,174.221c.052,3.1,2.033,4.38,4.328,4.38a8.293,8.293,0,0,0,3.494-.652l.391,1.643a10.217,10.217,0,0,1-4.2.783c-3.885,0-6.205-2.555-6.205-6.362s2.242-6.805,5.919-6.805c4.12,0,5.215,3.624,5.215,5.945a8.638,8.638,0,0,1-.078,1.069Zm6.727-1.643c.026-1.46-.6-3.728-3.181-3.728-2.321,0-3.338,2.138-3.52,3.728Z" transform="translate(-45.399 -67.907)"/>
        <path id="Trazado_549286" data-name="Trazado 549286" d="M159.244,169.2c-.13-2.451-.287-5.4-.261-7.587h-.078c-.6,2.06-1.33,4.25-2.216,6.675l-3.1,8.526h-1.721l-2.842-8.369c-.834-2.477-1.539-4.746-2.034-6.831h-.052c-.052,2.19-.182,5.136-.339,7.77l-.47,7.536h-2.164l1.226-17.574h2.894l3,8.5c.73,2.164,1.33,4.094,1.773,5.919h.078c.444-1.773,1.07-3.7,1.852-5.919l3.129-8.5h2.894l1.1,17.574h-2.217Z" transform="translate(-58.468 -64.715)"/>
        <path id="Trazado_549287" data-name="Trazado 549287" d="M180.841,174.221c.052,3.1,2.033,4.38,4.328,4.38a8.293,8.293,0,0,0,3.494-.652l.391,1.643a10.217,10.217,0,0,1-4.2.783c-3.885,0-6.205-2.555-6.205-6.362s2.242-6.805,5.919-6.805c4.12,0,5.215,3.624,5.215,5.945a8.638,8.638,0,0,1-.078,1.069Zm6.727-1.643c.026-1.46-.6-3.728-3.181-3.728-2.321,0-3.338,2.138-3.52,3.728Z" transform="translate(-72.555 -67.907)"/>
        <path id="Trazado_549288" data-name="Trazado 549288" d="M202.838,174.221c.052,3.1,2.033,4.38,4.328,4.38a8.293,8.293,0,0,0,3.494-.652l.391,1.643a10.217,10.217,0,0,1-4.2.783c-3.885,0-6.205-2.555-6.205-6.362s2.242-6.805,5.919-6.805c4.12,0,5.215,3.624,5.215,5.945a8.634,8.634,0,0,1-.078,1.069Zm6.727-1.643c.026-1.46-.6-3.728-3.181-3.728-2.321,0-3.338,2.138-3.52,3.728Z" transform="translate(-81.489 -67.907)"/>
        <path id="Trazado_549289" data-name="Trazado 549289" d="M225.964,161.587v3.624h3.285v1.747h-3.285v6.805c0,1.564.444,2.451,1.721,2.451a5.128,5.128,0,0,0,1.33-.156l.1,1.72a5.6,5.6,0,0,1-2.033.313,3.181,3.181,0,0,1-2.477-.964,4.675,4.675,0,0,1-.887-3.285v-6.884h-1.956v-1.747h1.956v-3.024Z" transform="translate(-90.065 -65.625)"/>
      </g>
    </g>
  </g>
</svg>
