<svg id="Grupo_786722" data-name="Grupo 786722" xmlns="http://www.w3.org/2000/svg" xmlns:xlink="http://www.w3.org/1999/xlink" width="161.333" height="126.477" viewBox="0 0 161.333 126.477">
  <defs>
    <clipPath id="clip-path">
      <rect id="Rectángulo_309928" data-name="Rectángulo 309928" width="161.333" height="126.477" fill="none"/>
    </clipPath>
  </defs>
  <g id="Grupo_786720" data-name="Grupo 786720" clip-path="url(#clip-path)">
    <path id="Trazado_549359" data-name="Trazado 549359" d="M131.572,154.451a9.343,9.343,0,0,1-4.371-1.036,7.886,7.886,0,0,1-3.064-3.019,9.254,9.254,0,0,1-1.127-4.687,9.137,9.137,0,0,1,1.037-4.417,7.552,7.552,0,0,1,2.974-2.975,9.4,9.4,0,0,1,4.417-1.036,9.844,9.844,0,0,1,3.245.5,6.056,6.056,0,0,1,2.164,1.172l-1.713,3.11a4.658,4.658,0,0,0-3.38-1.487,4.365,4.365,0,0,0-3.516,1.4,5.676,5.676,0,0,0-1.171,3.7,6.27,6.27,0,0,0,1.217,4.1,4.218,4.218,0,0,0,3.47,1.442,7.184,7.184,0,0,0,2.163-.316,4.531,4.531,0,0,0,1.623-.766l1.4,2.7a9.072,9.072,0,0,1-2.208,1.127,10.277,10.277,0,0,1-3.155.5m16.224,0a8.527,8.527,0,0,1-4.1-1.036,8.43,8.43,0,0,1-3.019-3.019,9.336,9.336,0,0,1-1.127-4.552,10.21,10.21,0,0,1,.946-4.507,7.354,7.354,0,0,1,2.84-3.019,8.283,8.283,0,0,1,4.281-1.081,7.336,7.336,0,0,1,2.659.5,7.554,7.554,0,0,1,2.118,1.262,3.519,3.519,0,0,1,1.127,1.442l.09-2.749h3.7v16.4h-3.65l-.09-2.884a5.611,5.611,0,0,1-2.208,2.3,6.677,6.677,0,0,1-3.56.946m.631-3.2a4.623,4.623,0,0,0,3.425-1.4,5.03,5.03,0,0,0,1.4-3.7v-.271a6.021,6.021,0,0,0-.631-2.749,4.454,4.454,0,0,0-1.758-1.893,4.6,4.6,0,0,0-2.433-.676,4.28,4.28,0,0,0-3.516,1.487,5.848,5.848,0,0,0-1.262,3.83,5.951,5.951,0,0,0,1.217,3.876,4.433,4.433,0,0,0,3.56,1.487m19.739,3.2a14.272,14.272,0,0,1-3.56-.451,7.681,7.681,0,0,1-2.614-1.082L163.3,149.9a8.433,8.433,0,0,0,4.912,1.488c1.848,0,2.749-.541,2.749-1.623a1.247,1.247,0,0,0-.586-1.127,9.78,9.78,0,0,0-2.029-.947l-1.352-.5a10.81,10.81,0,0,1-3.38-2.028,4.31,4.31,0,0,1-1.262-3.2,4.119,4.119,0,0,1,1.757-3.515,7.952,7.952,0,0,1,4.732-1.307,11.666,11.666,0,0,1,2.839.316,7.262,7.262,0,0,1,2.164.811l-1.4,3.064a3.282,3.282,0,0,0-1.487-.765,6.95,6.95,0,0,0-2.253-.361c-1.713,0-2.524.5-2.524,1.532a1.475,1.475,0,0,0,.676,1.307,12.643,12.643,0,0,0,2.208.946c.09.046.451.135,1.127.406a9.037,9.037,0,0,1,3.38,2.028,4.16,4.16,0,0,1,1.127,2.929,4.243,4.243,0,0,1-1.847,3.7,7.248,7.248,0,0,1-4.687,1.4m11.943-13.61h-2.884v-3.154h2.884v-6.67l3.876-.857v7.527h3.786v3.154h-3.786v13.25h-3.876Z" transform="translate(-26.437 -27.974)" fill="#3e5667"/>
    <path id="Trazado_549360" data-name="Trazado 549360" d="M8.785,153.822a9.344,9.344,0,0,1-4.372-1.036,7.9,7.9,0,0,1-3.064-3.019,9.254,9.254,0,0,1-1.127-4.687,9.137,9.137,0,0,1,1.036-4.417,7.554,7.554,0,0,1,2.975-2.975,9.392,9.392,0,0,1,4.416-1.036,9.849,9.849,0,0,1,3.246.5,6.052,6.052,0,0,1,2.163,1.172l-1.712,3.11a4.658,4.658,0,0,0-3.381-1.487,4.363,4.363,0,0,0-3.515,1.4,5.672,5.672,0,0,0-1.172,3.7,6.27,6.27,0,0,0,1.217,4.1,4.218,4.218,0,0,0,3.47,1.442,7.189,7.189,0,0,0,2.164-.316,4.533,4.533,0,0,0,1.622-.766l1.4,2.7a9.123,9.123,0,0,1-2.208,1.127,9.855,9.855,0,0,1-3.154.5m8.923-16.765h3.876v3.2a5.6,5.6,0,0,1,1.847-2.659,4.608,4.608,0,0,1,2.929-.991,3.981,3.981,0,0,1,1.578.225l-.541,3.875a3,3,0,0,0-1.4-.225,4.806,4.806,0,0,0-3.064,1.082,4.107,4.107,0,0,0-1.352,3.425v8.428H17.708Zm20.55,16.765a8.694,8.694,0,0,1-4.506-1.127,7.7,7.7,0,0,1-3.019-3.11,8.852,8.852,0,0,1-1.082-4.371,9.292,9.292,0,0,1,1.036-4.327,8.012,8.012,0,0,1,3.019-3.11,8.862,8.862,0,0,1,4.552-1.127,8.7,8.7,0,0,1,4.507,1.127,8.012,8.012,0,0,1,3.019,3.11,8.811,8.811,0,0,1,1.082,4.327,8.984,8.984,0,0,1-1.082,4.371,8.012,8.012,0,0,1-3.019,3.11,9.159,9.159,0,0,1-4.507,1.127m.135-3.154a3.783,3.783,0,0,0,3.246-1.532,6.04,6.04,0,0,0,1.217-3.876,5.931,5.931,0,0,0-1.307-3.876,4.277,4.277,0,0,0-6.67-.045,6.17,6.17,0,0,0-1.217,3.921,6.011,6.011,0,0,0,1.307,3.876,4.3,4.3,0,0,0,3.425,1.532m22.579-6.31-4.867,9.1h-.676l-6.9-16.4H52.68l3.515,9.554,4.687-9.554h.136l4.732,9.464,3.516-9.464h4.056l-6.851,16.4h-.676Zm21.857,9.464a8.524,8.524,0,0,1-4.1-1.036,8.438,8.438,0,0,1-3.02-3.019,9.336,9.336,0,0,1-1.127-4.552,8.707,8.707,0,0,1,2.164-6.219,7.608,7.608,0,0,1,5.9-2.343,7.234,7.234,0,0,1,3.786,1.036,5.5,5.5,0,0,1,2.343,2.434l-.181-2.794v-10.1h3.786v26.274h-3.7l-.09-2.884a5.611,5.611,0,0,1-2.208,2.3,7.082,7.082,0,0,1-3.56.9m.631-3.245a4.623,4.623,0,0,0,3.425-1.4,5.03,5.03,0,0,0,1.4-3.7v-.27a6.034,6.034,0,0,0-.63-2.749,4.757,4.757,0,0,0-1.758-1.893,4.5,4.5,0,0,0-2.434-.676,4.283,4.283,0,0,0-3.516,1.487,5.85,5.85,0,0,0-1.262,3.831A5.955,5.955,0,0,0,79.9,149.09a4.434,4.434,0,0,0,3.56,1.487" transform="translate(-0.048 -27.345)" fill="#ec5f3e"/>
    <path id="Trazado_549361" data-name="Trazado 549361" d="M71.3,92.247h49.381V75.76H71.3Zm0-23h49.381V52.757H71.3Zm0-23.081h49.381V29.676H71.3ZM96.03,23.081A11.541,11.541,0,1,0,84.489,11.619,11.559,11.559,0,0,0,96.03,23.081" transform="translate(-15.324)" fill="#ec5f3e"/>
    <path id="Trazado_549362" data-name="Trazado 549362" d="M142.6,98.565h49.381V82.079H142.6Zm0-23h49.381V59.076H142.6Zm24.651-23.081a11.541,11.541,0,1,0-11.541-11.541,11.559,11.559,0,0,0,11.541,11.541" transform="translate(-30.648 -6.319)" fill="#3e5667"/>
    <path id="Trazado_549363" data-name="Trazado 549363" d="M0,104.884H49.381V88.4H0Zm24.73-23A11.541,11.541,0,1,0,13.189,70.341,11.559,11.559,0,0,0,24.73,81.881" transform="translate(0 -12.637)" fill="#f9ca3f"/>
  </g>
</svg>
