<svg xmlns="http://www.w3.org/2000/svg" xmlns:xlink="http://www.w3.org/1999/xlink" width="136.021" height="148.963" viewBox="0 0 136.021 148.963">
  <defs>
    <clipPath id="clip-path">
      <rect id="Rectángulo_320387" data-name="Rectángulo 320387" width="136.021" height="148.963" fill="#ff5a5f"/>
    </clipPath>
  </defs>
  <g id="Grupo_868469" data-name="Grupo 868469" clip-path="url(#clip-path)">
    <path id="Trazado_591657" data-name="Trazado 591657" d="M141.23,81.469a24.668,24.668,0,0,0-1.821-8.7c-.841-2.144-1.816-4.232-2.769-6.327Q125.27,41.651,112.777,17.4c-1.171-2.258-2.317-4.53-3.553-6.753A23.913,23.913,0,0,0,104.763,4.7,17.416,17.416,0,0,0,93.9,0H92.043A17.342,17.342,0,0,0,80.885,4.841a24.156,24.156,0,0,0-4.312,5.816c-1.22,2.187-2.35,4.423-3.5,6.645Q64.693,33.566,56.811,50.08c-3.132,6.587-6.239,13.185-9.226,19.838A32.4,32.4,0,0,0,44.8,78.579a22.114,22.114,0,0,0,13.065,23.508A22.52,22.52,0,0,0,68.081,103.9a28,28,0,0,0,13.131-4.377A57.34,57.34,0,0,0,92.9,89.444,59.056,59.056,0,0,0,103.7,98.955a28.9,28.9,0,0,0,13.012,4.861,22.174,22.174,0,0,0,22.954-13.829,22,22,0,0,0,1.565-8.519M92.926,79.5c-1.274-1.5-2.4-3.122-3.524-4.733A57.935,57.935,0,0,1,84.394,66,28.78,28.78,0,0,1,81.988,58a13.818,13.818,0,0,1,.612-6.6,9.731,9.731,0,0,1,3.88-4.789,12.036,12.036,0,0,1,14,.871,10.178,10.178,0,0,1,3.369,6.565,21.174,21.174,0,0,1-1.533,9.741A62.273,62.273,0,0,1,92.926,79.5m41.238,7.034a15.619,15.619,0,0,1-7.355,9.217,16.051,16.051,0,0,1-10.4,1.761c-4.5-.7-8.528-3.084-12.023-5.9a63.844,63.844,0,0,1-7.1-6.854A81.733,81.733,0,0,0,106.6,70.644a34.868,34.868,0,0,0,4.025-14.215,18.7,18.7,0,0,0-1.983-9.2,16.882,16.882,0,0,0-9.369-8.047,19.178,19.178,0,0,0-11.618-.364A16.829,16.829,0,0,0,75.252,53.961a29.363,29.363,0,0,0,2.532,13.58A71.751,71.751,0,0,0,88.511,84.7a58.712,58.712,0,0,1-6.226,6.186c-3.453,2.922-7.4,5.466-11.879,6.434a16.3,16.3,0,0,1-10.841-1.271,15.586,15.586,0,0,1-8-9.778,16.079,16.079,0,0,1,.354-9.424c.851-2.5,2.006-4.876,3.087-7.279q11.244-24.519,23.6-48.511c1.227-2.38,2.435-4.771,3.734-7.112a15.969,15.969,0,0,1,4.036-5.062A10.781,10.781,0,0,1,99.75,9.14a18.636,18.636,0,0,1,4.232,5.745c2.543,4.776,4.985,9.609,7.428,14.435q10.456,20.7,20.1,41.8a50.577,50.577,0,0,1,2.663,6.659,16,16,0,0,1,0,8.753" transform="translate(-24.959)" fill="#ff5a5f"/>
    <path id="Trazado_591658" data-name="Trazado 591658" d="M67.467,265.352a4.26,4.26,0,1,1-1.541.657,4.324,4.324,0,0,1,1.541-.657" transform="translate(-35.887 -153.572)" fill="#ff5a5f"/>
    <path id="Trazado_591659" data-name="Trazado 591659" d="M95.969,293.505a8.334,8.334,0,0,1,4.882-2.511,11.476,11.476,0,0,1,3.66.232c-.015,1.935,0,3.868-.007,5.8a9.725,9.725,0,0,0-5.768.093,6.862,6.862,0,0,0-2.642,1.736c-.159.135-.121.355-.135.542.011,5.407-.008,10.815.008,16.221a1.852,1.852,0,0,1-.061.637c-2.087.048-4.178.009-6.267.017q0-12.364.005-24.731c1.759.008,3.519-.007,5.278,0a.936.936,0,0,1,.941.554,5.117,5.117,0,0,1,.1,1.4" transform="translate(-50.207 -167.957)" fill="#ff5a5f"/>
    <path id="Trazado_591660" data-name="Trazado 591660" d="M198.795,293.524a9.033,9.033,0,0,1,6.47-2.585,10.538,10.538,0,0,1,7.025,2.309,7.644,7.644,0,0,1,2.655,3.994,21.152,21.152,0,0,1,.5,5.936q0,6.55,0,13.1c-2.105,0-4.211.014-6.316-.009q0-6.546,0-13.094c0-1.621.077-3.371-.785-4.815a3.769,3.769,0,0,0-2.936-1.673,6.882,6.882,0,0,0-5.968,2.111.794.794,0,0,0-.279.605c-.02.675.082,1.352.024,2.028-.083.918.046,1.836.015,2.756-.031,1.736-.024,3.47-.007,5.205-.119,2.3.089,4.6-.048,6.89-2.1-.007-4.193,0-6.29,0,0-8.247-.015-16.493.007-24.738,1.622.011,3.246,0,4.867,0a.937.937,0,0,1,.986.634,6.9,6.9,0,0,1,.081,1.343" transform="translate(-108.015 -167.954)" fill="#ff5a5f"/>
    <path id="Trazado_591661" data-name="Trazado 591661" d="M66.535,317.052q0-12.369,0-24.738,3.135.007,6.267,0c.016,8.245,0,16.492.006,24.735q-3.138,0-6.277,0" transform="translate(-37.264 -168.726)" fill="#ff5a5f"/>
    <path id="Trazado_591662" data-name="Trazado 591662" d="M25.379,291.54c-1.656,0-3.312,0-4.969-.01-.438,0-1,.019-1.211.479a4.3,4.3,0,0,0-.135,1.5,8.408,8.408,0,0,0-5.313-2.528,12.733,12.733,0,0,0-8.735,2.445A12.376,12.376,0,0,0,.69,299.494,15.927,15.927,0,0,0,0,302.971v1.694A13.035,13.035,0,0,0,4.5,314a12.789,12.789,0,0,0,7.44,2.91h1.408a8.526,8.526,0,0,0,5.715-2.624,4.4,4.4,0,0,0,.13,1.508,1.076,1.076,0,0,0,1.055.48c1.709,0,3.42,0,5.13-.008q0-12.359,0-24.725M18.87,308.569a6.7,6.7,0,0,1-5.269,2.372,7.386,7.386,0,0,1-5.74-2.479,7.416,7.416,0,0,1-1.452-5.86A6.516,6.516,0,0,1,8.8,298.354a7.7,7.7,0,0,1,4.236-1.544,6.88,6.88,0,0,1,6,2.625c.077,2.687,0,5.382.036,8.075-.022.354.076.78-.21,1.058" transform="translate(0 -167.949)" fill="#ff5a5f"/>
    <path id="Trazado_591663" data-name="Trazado 591663" d="M153.6,284.257a12.332,12.332,0,0,0-4.888-5.8,12.822,12.822,0,0,0-7.6-1.857,8.5,8.5,0,0,0-5.574,2.55c-.008-4.619,0-9.237,0-13.856-2.107,0-4.215-.01-6.321.006.011,12.2-.018,24.409.015,36.609,1.745,0,3.49.008,5.236,0a.961.961,0,0,0,1.021-.643,7.345,7.345,0,0,0,.057-1.36,8.455,8.455,0,0,0,5.778,2.642h1.29a12.582,12.582,0,0,0,9.134-4.568,13.857,13.857,0,0,0,1.858-13.728m-7.367,10.408a7.659,7.659,0,0,1-5.271,1.919,6.674,6.674,0,0,1-5.239-2.408.761.761,0,0,1-.194-.59q0-4.245,0-8.49a6.994,6.994,0,0,1,5.128-2.663,7.74,7.74,0,0,1,5.59,1.947,7.469,7.469,0,0,1-.014,10.285" transform="translate(-72.371 -153.592)" fill="#ff5a5f"/>
    <path id="Trazado_591664" data-name="Trazado 591664" d="M274.079,281.2a12.548,12.548,0,0,0-11.53-4.5,8.331,8.331,0,0,0-4.72,2.449c-.013-4.617,0-9.234-.007-13.853q-3.155,0-6.306,0,0,18.3,0,36.612c1.658.012,3.319,0,4.977.012.435.007.979-.028,1.2-.473a4.316,4.316,0,0,0,.135-1.522,8.534,8.534,0,0,0,5.685,2.627h1.42a12.592,12.592,0,0,0,9.042-4.515,13.314,13.314,0,0,0,2.918-7.716v-1.654a13.428,13.428,0,0,0-2.817-7.473m-4.922,12.758a7.656,7.656,0,0,1-7.22,2.528,6.53,6.53,0,0,1-4.071-2.514c-.1-1.039-.01-2.09-.041-3.134.022-1.92-.047-3.846.031-5.762a6.831,6.831,0,0,1,4.061-2.513c2.914-.538,6.3.616,7.776,3.307a7.659,7.659,0,0,1-.536,8.088" transform="translate(-140.875 -153.595)" fill="#ff5a5f"/>
  </g>
</svg>
