<svg xmlns="http://www.w3.org/2000/svg" xmlns:xlink="http://www.w3.org/1999/xlink" width="1163" height="397" viewBox="0 0 1163 397">
  <defs>
    <filter id="Rectángulo_320402" x="0" y="0" width="1163" height="397" filterUnits="userSpaceOnUse">
      <feOffset dy="3" input="SourceAlpha"/>
      <feGaussianBlur stdDeviation="3" result="blur"/>
      <feFlood flood-opacity="0.161"/>
      <feComposite operator="in" in2="blur"/>
      <feComposite in="SourceGraphic"/>
    </filter>
    <filter id="Rectángulo_320393" x="315.476" y="20.555" width="323.831" height="173.298" filterUnits="userSpaceOnUse">
      <feOffset dy="3" input="SourceAlpha"/>
      <feGaussianBlur stdDeviation="3" result="blur-2"/>
      <feFlood flood-opacity="0.161"/>
      <feComposite operator="in" in2="blur-2"/>
      <feComposite in="SourceGraphic"/>
    </filter>
    <filter id="Rectángulo_320394" x="719.257" y="20.555" width="323.831" height="173.298" filterUnits="userSpaceOnUse">
      <feOffset dy="3" input="SourceAlpha"/>
      <feGaussianBlur stdDeviation="3" result="blur-3"/>
      <feFlood flood-opacity="0.161"/>
      <feComposite operator="in" in2="blur-3"/>
      <feComposite in="SourceGraphic"/>
    </filter>
    <filter id="Rectángulo_320395" x="719.257" y="201.662" width="323.831" height="176.607" filterUnits="userSpaceOnUse">
      <feOffset dy="3" input="SourceAlpha"/>
      <feGaussianBlur stdDeviation="3" result="blur-4"/>
      <feFlood flood-opacity="0.161"/>
      <feComposite operator="in" in2="blur-4"/>
      <feComposite in="SourceGraphic"/>
    </filter>
    <filter id="Rectángulo_320396" x="315.476" y="202.005" width="323.831" height="176.607" filterUnits="userSpaceOnUse">
      <feOffset dy="3" input="SourceAlpha"/>
      <feGaussianBlur stdDeviation="3" result="blur-5"/>
      <feFlood flood-opacity="0.161"/>
      <feComposite operator="in" in2="blur-5"/>
      <feComposite in="SourceGraphic"/>
    </filter>
    <clipPath id="clip-path">
      <rect id="Rectángulo_320401" data-name="Rectángulo 320401" width="224.202" height="342.227" fill="none"/>
    </clipPath>
    <clipPath id="clip-path-3">
      <rect id="Rectángulo_320397" data-name="Rectángulo 320397" width="17.451" height="21.114" fill="none"/>
    </clipPath>
    <clipPath id="clip-path-4">
      <rect id="Rectángulo_320398" data-name="Rectángulo 320398" width="52.898" height="94.167" fill="none"/>
    </clipPath>
    <clipPath id="clip-path-5">
      <rect id="Rectángulo_320399" data-name="Rectángulo 320399" width="47.051" height="65.04" fill="none"/>
    </clipPath>
  </defs>
  <g id="Grupo_870571" data-name="Grupo 870571" transform="translate(2588 4690)">
    <g transform="matrix(1, 0, 0, 1, -2588, -4690)" filter="url(#Rectángulo_320402)">
      <rect id="Rectángulo_320402-2" data-name="Rectángulo 320402" width="1145" height="379" rx="16" transform="translate(9 6)" fill="#fff"/>
    </g>
    <g id="Grupo_868505" data-name="Grupo 868505" transform="translate(-2717.462 -9688.904)">
      <g transform="matrix(1, 0, 0, 1, 129.46, 4998.9)" filter="url(#Rectángulo_320393)">
        <rect id="Rectángulo_320393-2" data-name="Rectángulo 320393" width="305.831" height="155.298" rx="17" transform="translate(324.48 26.55)" fill="#ed7d31"/>
      </g>
      <g transform="matrix(1, 0, 0, 1, 129.46, 4998.9)" filter="url(#Rectángulo_320394)">
        <rect id="Rectángulo_320394-2" data-name="Rectángulo 320394" width="305.831" height="155.298" rx="17" transform="translate(728.26 26.55)" fill="#5f914e"/>
      </g>
      <g transform="matrix(1, 0, 0, 1, 129.46, 4998.9)" filter="url(#Rectángulo_320395)">
        <rect id="Rectángulo_320395-2" data-name="Rectángulo 320395" width="305.831" height="158.607" rx="17" transform="translate(728.26 207.66)" fill="#ffc000"/>
      </g>
      <g transform="matrix(1, 0, 0, 1, 129.46, 4998.9)" filter="url(#Rectángulo_320396)">
        <rect id="Rectángulo_320396-2" data-name="Rectángulo 320396" width="305.831" height="158.607" rx="17" transform="translate(324.48 208.01)" fill="#4066a7"/>
      </g>
      <text id="Defina_los_objetivos_de_la_experiencia_es_decir_los_principales_efectos_que_buscará_generar_en_sus_visitantes_ya_sea_en_el_plano_de_las_emociones_los_conocimientos_o_las_acciones._" data-name="Defina los objetivos de la experiencia, es decir los principales efectos que buscará generar en sus visitantes, ya sea en el plano de las emociones, los conocimientos o las acciones. 




" transform="translate(467.606 5041.381)" fill="#fff" font-size="16" font-family="Roboto-Regular, Roboto"><tspan x="6.871" y="17">Defina los objetivos de la experiencia, </tspan><tspan x="14.5" y="41">es decir los principales efectos que </tspan><tspan x="8.894" y="65">buscará generar en sus visitantes, ya </tspan><tspan x="7.847" y="89">sea en el plano de las emociones, los </tspan><tspan x="31.945" y="113">conocimientos o las acciones. </tspan></text>
      <text id="Posteriormente_defina_el_guion_de_la_experiencia_esto_es_la_secuencia_en_que_se_ordenarán_las_actividades_más_importantes_así_como_los_contenidos_principales_que_comunicará_en_cada_una_de_ellas._" data-name="Posteriormente, defina el guion de la experiencia, esto es, la secuencia en que se ordenarán las actividades más importantes, así como los contenidos principales que comunicará en cada una de ellas. 




" transform="translate(871.387 5032.837)" fill="#fff" font-size="16" font-family="Roboto-Regular, Roboto"><tspan x="10.238" y="17">Posteriormente, defina el guion de la </tspan><tspan x="11.047" y="41">experiencia, esto es, la secuencia en </tspan><tspan x="5.39" y="65">que se ordenarán las actividades más </tspan><tspan x="5.933" y="89">importantes, así como los contenidos </tspan><tspan x="11.543" y="113">principales que comunicará en cada </tspan><tspan x="95.074" y="137">una de ellas. </tspan></text>
      <text id="Luego_se_define_la_narrativa_entendida_como_la_historia_o_las_ideas_centrales_que_articularán_y_le_darán_un_significado_especial_a_la_experiencia._" data-name="Luego, se define la narrativa, entendida como la historia o las ideas centrales que articularán y le darán un significado especial a la experiencia. 




" transform="translate(871.388 5232.123)" fill="#12263f" font-size="16" font-family="Roboto-Regular, Roboto"><tspan x="1.968" y="17">Luego, se define la narrativa, entendida </tspan><tspan x="7.785" y="41">como la historia o las ideas centrales </tspan><tspan x="39.269" y="65">que articularán y le darán un </tspan><tspan x="9.816" y="89">significado especial a la experiencia. </tspan></text>
      <text id="Ahora_se_comenzará_a_evaluar_un_precio_posible_que_refleje_el_valor_de_la_experiencia_y_finalmente_revise_que_todos_los_elementos_se_cumplan_y_hayan_quedado_estipulados_según_lo_que_desea._" data-name="Ahora, se comenzará a evaluar un precio posible, que refleje el valor de la experiencia; y finalmente, revise que todos los elementos se cumplan y hayan quedado estipulados según lo que desea. 




" transform="translate(467.606 5216.58)" fill="#fff" font-size="16" font-family="Roboto-Regular, Roboto"><tspan x="20.007" y="17">Ahora, se comenzará a evaluar un </tspan><tspan x="2.648" y="41">precio posible, que refleje el valor de la </tspan><tspan x="12.062" y="65">experiencia; y finalmente, revise que </tspan><tspan x="18.578" y="89">todos los elementos se cumplan y </tspan><tspan x="9.812" y="113">hayan quedado estipulados según lo </tspan><tspan x="100.918" y="137">que desea. </tspan></text>
      <path id="Trazado_591695" data-name="Trazado 591695" d="M-3381.355-5901.406l31.041,25.992,31.789-25.992h-12.716v-26.554h-38.521v26.554Z" transform="translate(4477.381 11096.075)" fill="#48b3f8"/>
      <path id="Trazado_591696" data-name="Trazado 591696" d="M0,26.554,31.041,52.546,62.83,26.554H50.115V0H11.594V26.554Z" transform="translate(835.211 5256.507) rotate(90)" fill="#ffc000"/>
      <path id="Trazado_591697" data-name="Trazado 591697" d="M0,25.992,31.041,0,62.831,25.992H50.115V52.546H11.594V25.992Z" transform="translate(835.211 5075.382) rotate(90)" fill="#ed7d31"/>
      <g id="Grupo_868493" data-name="Grupo 868493" transform="translate(214.462 5023.291)">
        <g id="Grupo_868504" data-name="Grupo 868504" transform="translate(0 0)" clip-path="url(#clip-path)">
          <g id="Grupo_868503" data-name="Grupo 868503">
            <g id="Grupo_868502" data-name="Grupo 868502" clip-path="url(#clip-path)">
              <path id="Trazado_591698" data-name="Trazado 591698" d="M98.37,586.53a29.878,29.878,0,0,1-4.659,4.227H15.445q4.487-5.276,8.984-10.557l11.149,2.358-5.795-8.59c1.033-1.156,2.085-2.287,3.188-3.362.334-.329.672-.653,1.014-.963a32.436,32.436,0,0,1,5.654-4.259c9.711-5.663,22.251-4.48,32.408.343s18.409,12.815,26.322,20.8" transform="translate(-6.927 -251.859)" fill="#658436"/>
              <g id="Grupo_868495" data-name="Grupo 868495" transform="translate(26.045 317.784)" opacity="0.5">
                <g id="Grupo_868494" data-name="Grupo 868494">
                  <g id="Grupo_868493-2" data-name="Grupo 868493" clip-path="url(#clip-path-3)">
                    <path id="Trazado_591699" data-name="Trazado 591699" d="M64.673,597.3H62.9q-7.847-10.074-15.681-20.151c.334-.329.672-.653,1.015-.963L64.673,597.3" transform="translate(-47.222 -576.181)" fill="#aabc30"/>
                  </g>
                </g>
              </g>
              <path id="Trazado_591700" data-name="Trazado 591700" d="M141.015,501.8c-.017.814-.057,1.625-.112,2.433-.711,10.622-4.25,21.239-8.806,31.188-.213-.011-.422-.028-.636-.039-.537-.04-1.071-.085-1.609-.134-7.191-.672-14.267-2.532-20.2-6.2A44.816,44.816,0,0,1,97.3,517.712c-.442-.583-.861-1.177-1.271-1.782A45.73,45.73,0,0,1,90.3,504.058a48.6,48.6,0,0,1-2.185-14.7c0-.533,0-1.067.022-1.6a55.8,55.8,0,0,1,2.608-15,89.54,89.54,0,0,1,3.844-9.892c.212-.47.429-.941.65-1.407,2.987-6.387,6.548-12.6,10.01-18.769.28-.5.555-.991.831-1.486.236.227.472.457.707.684,1.691,1.641,3.382,3.282,5.056,4.938v0l.229,10.258,4.63-5.356c1.1,1.149,2.2,2.307,3.271,3.482.329.363.659.726.989,1.094,2.193,2.445,4.3,4.949,6.275,7.548a82.139,82.139,0,0,1,7.144,11.042c.25.47.492.941.729,1.413a60.063,60.063,0,0,1,3.147,7.422l-5.521,13.975,7.931-3.58a51.513,51.513,0,0,1,.347,7.659" transform="translate(-39.517 -197.867)" fill="#658436"/>
              <g id="Grupo_868498" data-name="Grupo 868498" transform="translate(48.6 243.343)" opacity="0.5">
                <g id="Grupo_868497" data-name="Grupo 868497">
                  <g id="Grupo_868496" data-name="Grupo 868496" clip-path="url(#clip-path-4)">
                    <path id="Trazado_591701" data-name="Trazado 591701" d="M140.9,504.229q-7.774,9.979-15.543,19.963c1.909,3.781,3.927,7.536,6.1,11.186-.537-.04-1.071-.085-1.609-.134q-3.035-5.144-5.844-10.561l-4.582-1.192Q108.363,520.6,97.3,517.712c-.441-.583-.86-1.177-1.271-1.782q4.037,1.055,8.073,2.107l12.064,3.151c2.289.6,4.7,1.053,6.958,1.772a198.382,198.382,0,0,1-8.4-18.949q-13.3-7.331-26.6-14.652c0-.533,0-1.067.021-1.6l25.824,14.226a159.408,159.408,0,0,1-6.891-24.422l-12.48-14.693c.212-.47.429-.941.65-1.407q5.654,6.663,11.322,13.328a117.1,117.1,0,0,1-1.313-32.1q.42-.744.831-1.486c.236.227.472.457.707.684a107.4,107.4,0,0,0-.257,20.767c.352,4.307.928,8.591,1.7,12.836q5.867-10.139,11.74-20.275c.329.363.659.726.989,1.094L108.638,477.6a160.624,160.624,0,0,0,7,24.52c.708-1.03,1.42-2.06,2.127-3.09q8.307-12.059,16.617-24.127c.25.47.492.941.729,1.413q-9.435,13.709-18.871,27.409c2.054,5.4,4.358,10.7,6.856,15.882.508,1.053,1.021,2.11,1.543,3.162.14-.156.28-.312.388-.455q2.537-3.252,5.075-6.51,5.456-7,10.912-14.012c-.017.814-.057,1.625-.112,2.433" transform="translate(-88.117 -441.211)" fill="#aabc30"/>
                  </g>
                </g>
              </g>
              <path id="Trazado_591702" data-name="Trazado 591702" d="M107.622,555.364c.014.286.023.573.033.86-.36.043-.714.082-1.079.116a176.656,176.656,0,0,1-27.457.216,57.379,57.379,0,0,1-22.268-5.38c-.657-.323-1.307-.661-1.949-1.024q-1.029-.573-2.031-1.21a40.485,40.485,0,0,1-3.785-2.735l9.2-6.908-15.443.727h0a55.6,55.6,0,0,1-6.088-8.97c-.237-.423-.47-.852-.693-1.286a69.507,69.507,0,0,1-4.1-9.659,81.032,81.032,0,0,1-3.089-12.352c-.08-.465-.161-.929-.236-1.394-.239-1.493-.451-2.988-.64-4.5l7.135-1.085-7.8-4.9c-.318-3.216-.608-6.476-.95-9.808-.017-.2-.038-.4-.058-.6.528.065,1.057.135,1.586.205,6.909.884,13.839,1.8,20.672,3.145.488.092.972.194,1.461.3,3.652.748,7.271,1.622,10.834,2.684l5.12,11.886,2.758-9.172c1.987.79,3.952,1.657,5.877,2.612.5.238.987.49,1.474.747A59.472,59.472,0,0,1,96.214,514.3c.511.665,1,1.341,1.467,2.038.653.96,1.271,1.951,1.853,2.964a50.569,50.569,0,0,1,4.262,9.806l.415,11.51,1.877-1.948a127.236,127.236,0,0,1,1.534,16.691" transform="translate(-11.798 -217.717)" fill="#aabc30"/>
              <path id="Trazado_591703" data-name="Trazado 591703" d="M107.622,555.364c.014.286.023.573.033.86-.36.043-.714.082-1.079.116a106.977,106.977,0,0,0-9.111-13.633q-2.968.617-5.93,1.237-17.339,3.618-34.683,7.232c-.657-.323-1.307-.661-1.949-1.024q20.793-4.331,41.581-8.666a106.275,106.275,0,0,0-17.807-17.363c-.493-.379-1-.743-1.5-1.117L71.3,524.178q-17.276,3.436-34.551,6.877c-.237-.423-.47-.852-.693-1.286q19.806-3.946,39.61-7.888c-6.547-4.716-13.512-8.832-20.379-13.069q-1.943-1.2-3.892-2.43-11.267.685-22.533,1.375c-.08-.465-.161-.929-.236-1.394L49.388,505.1c-8.4-5.445-16.541-11.487-23.021-19.021-.017-.2-.038-.4-.058-.6.528.065,1.057.135,1.586.205a83.3,83.3,0,0,0,11.7,10.859c3.561,2.763,7.284,5.305,11.073,7.744q-1.047-7.731-2.1-15.458c.488.092.972.194,1.461.3l2.192,16.147c8.129,5.157,16.514,9.939,24.327,15.551l-1.93-23.689c.5.238.987.49,1.474.747l1.959,24.04c2.1,1.554,4.15,3.162,6.136,4.872a106.886,106.886,0,0,1,12.8,13.1c-.029-1.053-.063-2.106-.093-3.163q-.341-11.21-.677-22.42c.511.665,1,1.341,1.467,2.038q.384,12.69.767,25.371a109.58,109.58,0,0,1,9.174,13.652" transform="translate(-11.798 -217.717)" fill="#ccd78c"/>
              <path id="Trazado_591704" data-name="Trazado 591704" d="M250.661,554.04c-.131.14-.263.28-.4.418-.218.227-.446.447-.675.663-3.88,3.61-9.337,5.624-15.02,6.535a116.125,116.125,0,0,1-18.431,1.542c-.413-.008-.822-.014-1.222-.028-.036,0-.067,0-.1,0a26.745,26.745,0,0,1-4.258-13.612l3.432.976-2.433-9.656,0,0a29.976,29.976,0,0,1,2.83-6.909c.509-.9,1.062-1.779,1.65-2.626.3-.434.6-.861.918-1.279,4.1-5.458,9.659-9.846,15.617-13.682.35-.224.7-.448,1.052-.671q1.276-.8,2.562-1.569c.447-.269.895-.533,1.344-.8l3.371,5.466,1.479-8.26,0,0c1.9-1.075,3.805-2.141,5.691-3.234.377-.217.754-.434,1.127-.654a104.116,104.116,0,0,0,12.042-7.993c.209-.166.419-.334.63-.5.038.528.072,1.058.1,1.584q.179,3.161.167,6.289l-4.73,5.286,4.6-.16q-.1,2.069-.28,4.125c-.033.4-.071.806-.109,1.209a135.8,135.8,0,0,1-2.848,17.366q-.132.574-.267,1.147-.631,2.7-1.356,5.364c-1.336,4.945-3.049,9.908-6.479,13.672" transform="translate(-94.427 -223.406)" fill="#658436"/>
              <g id="Grupo_868501" data-name="Grupo 868501" transform="translate(120.489 274.752)" opacity="0.5">
                <g id="Grupo_868500" data-name="Grupo 868500">
                  <g id="Grupo_868499" data-name="Grupo 868499" clip-path="url(#clip-path-5)">
                    <path id="Trazado_591705" data-name="Trazado 591705" d="M254.206,554.04c-.131.14-.263.28-.4.418-.218.227-.446.447-.675.663q-14.172-.878-28.342-1.758a59.245,59.245,0,0,0-5.109,9.834c-.413-.008-.822-.014-1.222-.028a60.26,60.26,0,0,1,5.344-10.436q-2.109-10.694-4.226-21.4c.295-.434.6-.861.918-1.279q2.1,10.65,4.207,21.3.534-.8,1.089-1.6a158.464,158.464,0,0,1,13-15.569q-1.343-8.912-2.68-17.816c.35-.224.7-.448,1.052-.671q1.314,8.7,2.622,17.4c3.434-3.749,6.87-7.5,10.062-11.454q1.116-1.386,2.2-2.806-.213-5.77-.43-11.541c.377-.217.754-.434,1.127-.654q.2,5.371.4,10.745a135.315,135.315,0,0,0,11.645-18.738c.209-.166.419-.334.63-.5.038.528.072,1.058.1,1.584q-1.989,3.847-4.231,7.561a123.628,123.628,0,0,1-7.391,10.823q5.691-1.424,11.375-2.844c-.033.4-.071.806-.109,1.209q-6.195,1.547-12.39,3.1c-3.809,4.9-7.9,9.58-12.088,14.222q10.814.025,21.63.046-.132.574-.267,1.147-11.2-.026-22.4-.05c-.442.485-.885.974-1.329,1.458A133,133,0,0,0,225.5,552.262q2.009.126,4.011.248,12.346.768,24.691,1.531" transform="translate(-218.461 -498.158)" fill="#aabc30"/>
                  </g>
                </g>
              </g>
              <path id="Trazado_591706" data-name="Trazado 591706" d="M89.178,336.238a5.68,5.68,0,0,0-4.937-.156,6.781,6.781,0,0,0-2.672,2.529,12.6,12.6,0,0,0-.644,1.09q-.309-.553-.672-1.073a8.62,8.62,0,0,0-.7-.9,6.393,6.393,0,0,0-1.324-1.166l-.222-.14h0a4.7,4.7,0,0,0-.493-.256,5.673,5.673,0,0,0-4.935.282,6.671,6.671,0,0,0-3.005,3.629,8.852,8.852,0,0,0-.364,4.252.871.871,0,0,0,1.726-.233,7.149,7.149,0,0,1,.279-3.433,4.92,4.92,0,0,1,2.2-2.688,3.955,3.955,0,0,1,3.388-.217,2.814,2.814,0,0,1,.453.253l.21.14a5.036,5.036,0,0,1,.789.738,7.1,7.1,0,0,1,.568.73,11.383,11.383,0,0,1,1.315,2.507l.848,2.267.79-2.288a11.315,11.315,0,0,1,1.246-2.541,5.125,5.125,0,0,1,1.968-1.914,3.954,3.954,0,0,1,3.388.133,5.017,5.017,0,0,1,2.292,2.638,7.33,7.33,0,0,1,.345,3.615,10.547,10.547,0,0,1-.463,1.945c-.061.183-.13.362-.2.544l-.026.07a10.765,10.765,0,0,1-1.989,3.128q-.242.266-.517.533a11.035,11.035,0,0,1-.931.805c-.824.657-1.709,1.233-2.646,1.842a31.618,31.618,0,0,0-3.1,2.2,31.712,31.712,0,0,0-3.178-2.127,28.629,28.629,0,0,1-3.111-2.091c-.18-.148-.366-.305-.533-.456-.124-.112-.242-.226-.355-.338a10.839,10.839,0,0,1-2.207-3.178.871.871,0,1,0-1.588.714,12.592,12.592,0,0,0,2.564,3.695c.131.131.268.262.415.4.19.173.4.351.605.519a30.371,30.371,0,0,0,3.3,2.226,24.8,24.8,0,0,1,3.527,2.441l.592.522.577-.538a24.7,24.7,0,0,1,3.437-2.521c.93-.6,1.892-1.231,2.776-1.935a12.483,12.483,0,0,0,1.067-.925c.205-.2.4-.4.589-.607a12.549,12.549,0,0,0,2.318-3.653l.035-.091c.08-.208.159-.412.227-.617a12.315,12.315,0,0,0,.537-2.266A9.043,9.043,0,0,0,92.3,339.8a6.688,6.688,0,0,0-3.119-3.559" transform="translate(-30.992 -150.501)" fill="#bbdfff"/>
              <path id="Trazado_591707" data-name="Trazado 591707" d="M338.472,140.947a5.679,5.679,0,0,0-4.937-.156,6.78,6.78,0,0,0-2.672,2.529q-.347.526-.644,1.09-.31-.553-.672-1.073a8.642,8.642,0,0,0-.7-.9,6.4,6.4,0,0,0-1.324-1.166l-.222-.14h0a4.658,4.658,0,0,0-.493-.256,5.672,5.672,0,0,0-4.935.282,6.671,6.671,0,0,0-3.005,3.629,8.854,8.854,0,0,0-.364,4.252.871.871,0,1,0,1.725-.233,7.153,7.153,0,0,1,.279-3.433,4.919,4.919,0,0,1,2.2-2.688,3.954,3.954,0,0,1,3.388-.217,2.818,2.818,0,0,1,.453.253l.209.14a5.01,5.01,0,0,1,.79.738,7.07,7.07,0,0,1,.568.73,11.384,11.384,0,0,1,1.315,2.507l.848,2.267.79-2.288a11.3,11.3,0,0,1,1.247-2.541,5.13,5.13,0,0,1,1.968-1.915,3.956,3.956,0,0,1,3.388.133,5.017,5.017,0,0,1,2.292,2.638,7.33,7.33,0,0,1,.345,3.615,10.536,10.536,0,0,1-.463,1.945c-.06.183-.129.362-.2.544l-.026.07a10.766,10.766,0,0,1-1.989,3.128q-.243.266-.517.533a11.078,11.078,0,0,1-.931.805c-.824.657-1.709,1.233-2.646,1.842a31.687,31.687,0,0,0-3.1,2.2,31.808,31.808,0,0,0-3.178-2.127,28.629,28.629,0,0,1-3.111-2.091c-.18-.148-.366-.306-.533-.456q-.185-.169-.354-.338a10.829,10.829,0,0,1-2.207-3.178.871.871,0,1,0-1.588.714,12.592,12.592,0,0,0,2.564,3.695c.131.131.268.262.415.4.19.173.4.351.6.519a30.367,30.367,0,0,0,3.3,2.225,24.769,24.769,0,0,1,3.527,2.441l.592.522.577-.538a24.692,24.692,0,0,1,3.437-2.521c.93-.6,1.892-1.231,2.776-1.935a12.431,12.431,0,0,0,1.067-.925c.205-.2.4-.4.589-.607a12.551,12.551,0,0,0,2.318-3.653l.035-.09c.08-.208.159-.412.226-.617a12.272,12.272,0,0,0,.538-2.266,9.041,9.041,0,0,0-.446-4.476,6.684,6.684,0,0,0-3.118-3.558" transform="translate(-142.792 -62.92)" fill="#bbdfff"/>
              <path id="Trazado_591708" data-name="Trazado 591708" d="M29.6,213.58a2.4,2.4,0,0,0-1.685-.673l-10.142.142a2.369,2.369,0,0,0-2.331,2.388l.234,21.6a2.365,2.365,0,0,0,2.363,2.341h.033l10.133-.135a2.368,2.368,0,0,0,2.333-2.388l-.226-21.608a2.348,2.348,0,0,0-.712-1.668M28.185,237.5l-10.133.135a.623.623,0,0,1-.632-.617l-.234-21.6a.624.624,0,0,1,.614-.629l10.142-.142h.009a.622.622,0,0,1,.623.617l.226,21.608a.624.624,0,0,1-.615.629" transform="translate(-6.926 -95.481)" fill="#bbdfff"/>
              <path id="Trazado_591709" data-name="Trazado 591709" d="M91.926,189.553a6.463,6.463,0,0,0-4.521-3.39,6.876,6.876,0,0,0-1.376-.11v-.095H79.291a2.61,2.61,0,0,1-1.746-.67,1.98,1.98,0,0,1-.586-1.972l0-.009a9.163,9.163,0,0,1,1.951-3.117c.2-.244.4-.482.6-.737a21.4,21.4,0,0,0,4.417-12.062c.093-2.293-.691-5.074-3.239-5.364a3.42,3.42,0,0,0-1.666.273l-.151.082a4.17,4.17,0,0,0-.47.279,7.469,7.469,0,0,0-2.432,3.332l-.029.064c-.3.615-.633,1.254-1,1.9a31.681,31.681,0,0,1-3.147,4.557c-6.5,7.854-16.729,13.124-24.96,17.362a2.939,2.939,0,0,0-1.6,2.641l.18,19.974a2.948,2.948,0,0,0,2.821,2.914c.545.035,1.213.064,2.026.082a74.987,74.987,0,0,1,14.6,1.858,64.648,64.648,0,0,0,11.784,1.341l.47.018c.447.023.894.04,1.341.04a5.838,5.838,0,0,0,4.058-1.265,15.494,15.494,0,0,0,3.488-5.132q1.428-2.873,2.844-5.77l.186-.377a9.412,9.412,0,0,0,1.335-4.557,8.941,8.941,0,0,0-.192-1.4,5.3,5.3,0,0,1-.145-1.555,5.2,5.2,0,0,1,1.027-2.09,11.344,11.344,0,0,0,.848-1.388,6.407,6.407,0,0,0,.017-5.654m-1.573,4.876a11.1,11.1,0,0,1-.731,1.184,6.544,6.544,0,0,0-1.312,2.85,6.434,6.434,0,0,0,.157,2.1,7.654,7.654,0,0,1,.163,1.155,7.975,7.975,0,0,1-1.155,3.709l-.186.383c-.952,1.927-1.892,3.849-2.839,5.764a14.172,14.172,0,0,1-3.07,4.58c-1.1.952-2.461.888-4.186.807l-.476-.017a62.791,62.791,0,0,1-11.47-1.3,76.713,76.713,0,0,0-14.941-1.9c-.79-.017-1.428-.04-2-.081a1.2,1.2,0,0,1-1.149-1.19l-.18-19.968a1.206,1.206,0,0,1,.656-1.079c8.365-4.313,18.779-9.671,25.5-17.809a33.492,33.492,0,0,0,3.326-4.807c.383-.679.737-1.358,1.051-2.008l.035-.082a5.956,5.956,0,0,1,1.846-2.635c.093-.064.192-.116.3-.174l.046-.023a1.72,1.72,0,0,1,.772-.133c1.434.168,1.73,2.316,1.678,3.559a19.643,19.643,0,0,1-4.046,11.069c-.191.233-.377.464-.569.7a18.364,18.364,0,0,0-1.772,2.427,4.317,4.317,0,0,0,2.139,6.192,4.064,4.064,0,0,0,1.116.095h6.974v0l.023,0a5.287,5.287,0,0,1,1.034.081,4.715,4.715,0,0,1,3.286,2.455,4.663,4.663,0,0,1-.018,4.1" transform="translate(-20.288 -72.657)" fill="#bbdfff"/>
              <path id="Trazado_591710" data-name="Trazado 591710" d="M339.4,275.914a4.893,4.893,0,0,0-3.476-1.436H335.9l-70.9.258a4.935,4.935,0,0,0-4.908,4.926V330.4l11.442-11.442a7.222,7.222,0,0,1,5.138-2.128h59.243a4.931,4.931,0,0,0,4.926-4.926V279.4a4.893,4.893,0,0,0-1.449-3.49m-.292,35.986a3.188,3.188,0,0,1-3.184,3.184H276.678a8.947,8.947,0,0,0-6.369,2.639l-8.469,8.469v-46.53a3.19,3.19,0,0,1,3.173-3.184l70.9-.259h.012a3.185,3.185,0,0,1,3.184,3.185Z" transform="translate(-116.645 -123.094)" fill="#bbdfff"/>
              <path id="Trazado_591711" data-name="Trazado 591711" d="M281.027,298.306h13.861a.871.871,0,1,0,0-1.741H281.027a.871.871,0,1,0,0,1.741" transform="translate(-125.64 -132.999)" fill="#bbdfff"/>
              <path id="Trazado_591712" data-name="Trazado 591712" d="M315.885,298.306h18.726a.871.871,0,1,0,0-1.741H315.885a.871.871,0,1,0,0,1.741" transform="translate(-141.273 -132.999)" fill="#bbdfff"/>
              <path id="Trazado_591713" data-name="Trazado 591713" d="M359.563,298.306h15.458a.871.871,0,1,0,0-1.741H359.563a.871.871,0,1,0,0,1.741" transform="translate(-160.861 -132.999)" fill="#bbdfff"/>
              <path id="Trazado_591714" data-name="Trazado 591714" d="M281.027,310.673h5.636a.871.871,0,0,0,0-1.741h-5.636a.871.871,0,1,0,0,1.741" transform="translate(-125.64 -138.545)" fill="#bbdfff"/>
              <path id="Trazado_591715" data-name="Trazado 591715" d="M300.982,308.931a.871.871,0,1,0,0,1.741h14.75a.871.871,0,1,0,0-1.741Z" transform="translate(-134.589 -138.545)" fill="#bbdfff"/>
              <path id="Trazado_591716" data-name="Trazado 591716" d="M353.761,308.931h-16.3a.871.871,0,1,0,0,1.741h16.3a.871.871,0,1,0,0-1.741" transform="translate(-150.949 -138.545)" fill="#bbdfff"/>
              <path id="Trazado_591717" data-name="Trazado 591717" d="M296.7,321.3H281.027a.871.871,0,1,0,0,1.741H296.7a.871.871,0,1,0,0-1.741" transform="translate(-125.64 -144.091)" fill="#bbdfff"/>
              <path id="Trazado_591718" data-name="Trazado 591718" d="M334.853,321.3H319.18a.871.871,0,1,0,0,1.741h15.673a.871.871,0,1,0,0-1.741" transform="translate(-142.75 -144.091)" fill="#bbdfff"/>
              <path id="Trazado_591719" data-name="Trazado 591719" d="M293.021,430.332a13.594,13.594,0,0,1,0-27.188.871.871,0,1,1,0,1.742,11.863,11.863,0,1,0,8.378,3.475.87.87,0,0,1,1.231-1.231,13.589,13.589,0,0,1-9.609,23.2" transform="translate(-125.313 -180.796)" fill="#bbdfff"/>
              <path id="Trazado_591720" data-name="Trazado 591720" d="M359.1,239.292a9.32,9.32,0,0,1-9.31-9.309.871.871,0,0,1,1.742,0,7.576,7.576,0,1,0,2.219-5.349.871.871,0,1,1-1.231-1.232,9.308,9.308,0,1,1,6.581,15.89" transform="translate(-156.867 -98.964)" fill="#bbdfff"/>
              <path id="Trazado_591721" data-name="Trazado 591721" d="M169.611,616.49a1.417,1.417,0,0,0-.147,0c-1.124.125-32.858,0-33.983,0H.509c-.679,0-.678-4.75,0-4.75a1.4,1.4,0,0,0,.147,0c1.124-.125,4.87,0,6,0h162.96c.679,0,.678,4.75,0,4.75" transform="translate(0 -274.319)" fill="#bbdfff"/>
              <path id="Trazado_591722" data-name="Trazado 591722" d="M191.367,234.823a8.053,8.053,0,1,1-13.81.181,12.724,12.724,0,0,1-.137-18.89.255.255,0,0,1,.049-.033,3.418,3.418,0,0,1,3.152-.478,2.472,2.472,0,0,1,2.312-2.053.489.489,0,0,0,.088-.017,9.756,9.756,0,0,1,1.335-.088c6.117,0,11.07,5.4,11.07,12.053a12.464,12.464,0,0,1-4.058,9.324" transform="translate(-77.714 -95.723)" fill="#30323c"/>
              <path id="Trazado_591723" data-name="Trazado 591723" d="M213.385,481.165a16.964,16.964,0,0,1,.588,4.445c0,.446-.027.878-.054,1.324l-4.378,45.877c.013,2.411,1.074,5.005,1.608,7.485.142.655.3,1.3.459,1.939.574,2.3,1.243,4.412,1.8,6.026a2.414,2.414,0,0,1-2.283,3.2h-4.776a2.449,2.449,0,0,1-2.385-2.006,37.464,37.464,0,0,1-.506-7.694q.02-.9.081-1.763c.115-1.777.317-3.412.533-4.8l-3.884-48.255c-.034-.452-.061-.905-.061-1.351a16.884,16.884,0,0,1,.608-4.513v-.007c.115-1.02.973-9.3-1.142-14.132h14.916c-2.175,5-1.182,13.673-1.121,14.214,0,.006.007.006,0,.014Z" transform="translate(-89.509 -209.402)" fill="#fab093"/>
              <path id="Trazado_591724" data-name="Trazado 591724" d="M176.412,481.165A16.963,16.963,0,0,1,177,485.61c0,.446-.02.878-.054,1.324l-3.851,47.8c.237,1.486.473,3.283.6,5.256.041.594.068,1.209.088,1.83a37.271,37.271,0,0,1-.506,7.627,2.449,2.449,0,0,1-2.384,2.006h-4.777a2.414,2.414,0,0,1-2.283-3.2c.561-1.628,1.23-3.75,1.811-6.073.156-.622.3-1.25.446-1.892.459-2.121,1.479-4.33,1.573-6.438l-4.452-46.924c-.034-.452-.061-.905-.061-1.351a17.156,17.156,0,0,1,.608-4.513v-.007c.115-1.02.972-9.3-1.135-14.132h14.909c-2.175,5-1.175,13.673-1.121,14.214,0,.006.006.006,0,.014Z" transform="translate(-72.931 -209.402)" fill="#fab093"/>
              <path id="Trazado_591725" data-name="Trazado 591725" d="M174.152,610.346a2.448,2.448,0,0,1-2.385,2.006h-4.776a2.414,2.414,0,0,1-2.283-3.2c.56-1.628,1.229-3.749,1.81-6.073a4.515,4.515,0,0,0,3.385,2.547,4.791,4.791,0,0,0,4.114-1.912,6.613,6.613,0,0,0,.642-1,37.324,37.324,0,0,1-.507,7.627" transform="translate(-73.806 -270.298)" fill="#cf4920"/>
              <path id="Trazado_591726" data-name="Trazado 591726" d="M214.247,612.3h-4.776a2.449,2.449,0,0,1-2.385-2.007,37.451,37.451,0,0,1-.506-7.695,6.569,6.569,0,0,0,.676,1.067,4.81,4.81,0,0,0,4.12,1.912,4.494,4.494,0,0,0,3.358-2.5c.574,2.3,1.243,4.411,1.8,6.026a2.414,2.414,0,0,1-2.283,3.2" transform="translate(-92.634 -270.243)" fill="#cf4920"/>
              <path id="Trazado_591727" data-name="Trazado 591727" d="M196.512,406.613v.017c-.726,5.34-1.387,8.893-1.48,9.375a.457.457,0,0,0-.006.064c-17.275,7.442-34.26,0-34.26,0v-.052c-.146-.731-1.707-9.351-2.618-20.619-1.358-16.822-.018-33.139,1.811-40.239a34.149,34.149,0,0,1,2.333-6.913c0-.006.006-.006.006-.012a11.472,11.472,0,0,0,1-2.769c.04-.163.069-.325.1-.488a23.709,23.709,0,0,0,.221-4.986c-.029-.7-.093-1.451-.18-2.258h28.688c-.093.859-.151,1.66-.18,2.4a21.945,21.945,0,0,0,.342,5.479,8.885,8.885,0,0,0,.783,2.357c.018.029,1.155,1.915,1.561,2.8a21.37,21.37,0,0,1,1.243,3.465c3.169,11.529,3.5,31.137.633,52.383" transform="translate(-70.675 -151.462)" fill="#3983fd"/>
              <path id="Trazado_591728" data-name="Trazado 591728" d="M222.011,356.437a1.506,1.506,0,0,1,.11.18c-.029-.04-.064-.1-.11-.18" transform="translate(-99.564 -159.849)" fill="#aabc30"/>
              <path id="Trazado_591729" data-name="Trazado 591729" d="M196.934,347.447a51.745,51.745,0,0,1-14.257,1.858,51.117,51.117,0,0,1-14.733-2c.041-.163.07-.326.1-.488a23.679,23.679,0,0,0,.221-4.986,55.627,55.627,0,0,0,28.327.14,21.979,21.979,0,0,0,.342,5.479" transform="translate(-75.317 -153.298)" fill="#0c60dc"/>
              <path id="Trazado_591730" data-name="Trazado 591730" d="M183.933,260.218h10.612l-5.287,6.411Z" transform="translate(-82.488 -116.699)" fill="#f16c3f"/>
              <path id="Trazado_591731" data-name="Trazado 591731" d="M194.514,262.709c-1.766.067-3.552.107-5.325.153-1.773-.046-3.559-.087-5.325-.153a28.967,28.967,0,0,0,1.213-10c-.033-.627-.087-1.26-.167-1.893a10.765,10.765,0,0,0,8.558,0,29.661,29.661,0,0,0-.213,3.519,29.174,29.174,0,0,0,1.26,8.377" transform="translate(-82.456 -112.48)" fill="#fab093"/>
              <path id="Trazado_591732" data-name="Trazado 591732" d="M194.319,250.813a29.654,29.654,0,0,0-.213,3.519,5.712,5.712,0,0,1-7.711-1.006c-.007-.02-.013-.034-.033-.04-.153-.186-.293-.38-.433-.58-.034-.627-.087-1.26-.167-1.893a10.771,10.771,0,0,0,8.557,0" transform="translate(-83.308 -112.481)" fill="#e67b64"/>
              <path id="Trazado_591733" data-name="Trazado 591733" d="M194.707,233.166a14.2,14.2,0,0,1-2.791,7.314c-.013.013-.02.025-.033.039a5.506,5.506,0,0,1-8.478,0c-.013-.013-.019-.026-.032-.039a14.194,14.194,0,0,1-2.791-7.314,25.034,25.034,0,0,1-.161-2.773h.013a30.209,30.209,0,0,0,3.647-5.982.188.188,0,0,1,.051-.013c.361.4,3.782,4.059,10.723,4.9a27.709,27.709,0,0,1-.148,3.866" transform="translate(-80.912 -100.635)" fill="#fab093"/>
              <path id="Trazado_591734" data-name="Trazado 591734" d="M193.507,244.808c.033.042-.016.152-.156.275a1.053,1.053,0,0,1-.694.249c-.631-.009-.937-.459-.849-.524.076-.087.425.118.848.112s.773-.214.851-.112" transform="translate(-86.012 -109.776)" fill="#e67b64"/>
              <path id="Trazado_591735" data-name="Trazado 591735" d="M188.257,238.376c0,.454-.265.823-.592.823s-.592-.369-.592-.823.265-.824.592-.824.592.368.592.824" transform="translate(-83.896 -106.534)" fill="#30323c"/>
              <path id="Trazado_591736" data-name="Trazado 591736" d="M198.674,238.376c0,.454-.265.823-.592.823s-.592-.369-.592-.823.265-.824.592-.824.592.368.592.824" transform="translate(-88.567 -106.534)" fill="#30323c"/>
              <path id="Trazado_591737" data-name="Trazado 591737" d="M205.544,240.174a2.2,2.2,0,0,1,.366-.816.75.75,0,0,1,.8-.271.979.979,0,0,1,.481.549,2.89,2.89,0,0,1,.279,1.618,1.828,1.828,0,0,1-.882,1.342,1.5,1.5,0,0,1-1.624-.274c.254-.782.351-1.359.581-2.148" transform="translate(-91.919 -107.207)" fill="#fab093"/>
              <path id="Trazado_591738" data-name="Trazado 591738" d="M179.566,239.989a2.268,2.268,0,0,0-.378-.843.773.773,0,0,0-.826-.28,1.01,1.01,0,0,0-.5.567,2.979,2.979,0,0,0-.288,1.671,1.889,1.889,0,0,0,.912,1.387,1.393,1.393,0,0,0,1.6-.174c-.263-.807-.282-1.513-.52-2.328" transform="translate(-79.626 -107.107)" fill="#fab093"/>
              <path id="Trazado_591739" data-name="Trazado 591739" d="M193.4,247.829a6.963,6.963,0,0,1-3.472,0c-.22-.059-.4.209-.323.468a2.082,2.082,0,0,0,4.117,0c.075-.259-.1-.527-.323-.468" transform="translate(-85.025 -111.139)" fill="#fff"/>
              <path id="Trazado_591740" data-name="Trazado 591740" d="M199.239,234.343a3.483,3.483,0,0,0-2.509-1.257.284.284,0,0,0-.03.568,2.906,2.906,0,0,1,2.117,1.069c.234.281.656-.1.422-.38" transform="translate(-88.096 -104.53)" fill="#30323c"/>
              <path id="Trazado_591741" data-name="Trazado 591741" d="M185.14,234.343a3.483,3.483,0,0,1,2.509-1.257.284.284,0,0,1,.03.568,2.906,2.906,0,0,0-2.117,1.069c-.234.281-.656-.1-.422-.38" transform="translate(-82.998 -104.53)" fill="#30323c"/>
              <path id="Trazado_591742" data-name="Trazado 591742" d="M146.4,296.1l-2.525,26.119-5.8,33.054c-.255.227-3.18,5.095-3.23,5.258-.831,2.688-.27,3.17-.082,3.248.034.012.058.018.058.018a1.292,1.292,0,0,0,.6,2.028,1.042,1.042,0,0,0,.9,1.519,1.286,1.286,0,0,0,1,1.388c.268.068,2.381-4.663,3.765-7.035l.051-.081,1.739,2.434a.578.578,0,0,0,.716.29.6.6,0,0,0,.31-.263.592.592,0,0,0,.068-.22,23.139,23.139,0,0,0-2.126-7.555l8.247-28.866a42.5,42.5,0,0,0,2.166-8.287l4.137-23.05Z" transform="translate(-60.277 -132.79)" fill="#fab093"/>
              <path id="Trazado_591743" data-name="Trazado 591743" d="M204.39,221.526,221.946,201l7.846-35.667,3.788.811-2.732,36.376a9.891,9.891,0,0,1-1.906,5.022L209.23,236.913Z" transform="translate(-91.662 -74.145)" fill="#fab093"/>
              <path id="Trazado_591744" data-name="Trazado 591744" d="M193.6,263.869l-.016.006v-.006Z" transform="translate(-86.817 -118.336)" fill="#aabc30"/>
              <path id="Trazado_591745" data-name="Trazado 591745" d="M191.76,291.518l.266,3.085c.135,1.567-.754,3.14-1.472,4.54a49.629,49.629,0,0,1-28.478,0c-.673-.851-1.475-1.973-1.161-3.012a14.83,14.83,0,0,0,1.2-5.138c.006-.058.006-.122.006-.18l.174-8.928a11.87,11.87,0,0,1-7.976-2.479c1.149-4.806,2.084-11.569,3.361-14a11.731,11.731,0,0,1,6.542-5.6l5.358-1.5h.006l1.033-.15s4.784,3.454,11.1,0l.644.1,8.045-8.992s5.6.575,8.446,8.051L192.116,270.9a4.622,4.622,0,0,0-.545,1.956l-.012.244c-.087,1.742-.351,7.589-.523,11.428-.1,2.33.524,4.664.724,6.988" transform="translate(-69.205 -111.791)" fill="#f16c3f"/>
              <path id="Trazado_591746" data-name="Trazado 591746" d="M193.627,263.869v.006l-.011-.006Z" transform="translate(-86.83 -118.336)" fill="#aabc30"/>
              <path id="Trazado_591747" data-name="Trazado 591747" d="M194.184,264.974l-3.416,3.784-.006.005-.017-.017-3.448-3.773Z" transform="translate(-83.997 -118.831)" fill="#fab093"/>
              <path id="Trazado_591748" data-name="Trazado 591748" d="M200.143,262.686l-.1.253-4.066,7-2.436-3.294-.016-.017.021-.022,3.125-3.767.318-.384,1.861-2.24Z" transform="translate(-86.787 -116.697)" fill="#fff"/>
              <path id="Trazado_591749" data-name="Trazado 591749" d="M188.206,266.623v.005H188.2l-.017.017-2.436,3.295-4.082-7.056-.082-.2,1.3-2.471,1.961,2.356.219.269,3.13,3.767Z" transform="translate(-81.434 -116.697)" fill="#fff"/>
              <path id="Trazado_591750" data-name="Trazado 591750" d="M219.081,286.611s0,.033-.006.092v-.087Z" transform="translate(-98.247 -128.535)" fill="#f16c3f"/>
              <path id="Trazado_591751" data-name="Trazado 591751" d="M169.793,303.655a2.908,2.908,0,0,1-1.443-2.049,8.036,8.036,0,0,1,.05-2.871l.084-.527a14.345,14.345,0,0,0,.259-2.63.533.533,0,0,0-.553-.528.54.54,0,0,0-.528.553,13.347,13.347,0,0,1-.245,2.432l-.085.536a8.973,8.973,0,0,0-.038,3.265,3.989,3.989,0,0,0,2.031,2.795.541.541,0,0,0,.469-.975" transform="translate(-74.964 -132.318)" fill="#cf4920"/>
              <path id="Trazado_591752" data-name="Trazado 591752" d="M254.121,165.789a5.509,5.509,0,0,0,2.217-3.718,12.531,12.531,0,0,0-6.567-1.979c.387,1.6.753,3.257,1.14,4.859a5.628,5.628,0,0,1,3.211.838" transform="translate(-112.013 -71.796)" fill="#fab093"/>
              <path id="Trazado_591753" data-name="Trazado 591753" d="M220.582,97.846l-3.753-28.464a5.532,5.532,0,0,1,2.393-5.311l27.442-18.494a2.105,2.105,0,0,0-.671-3.79l-32.122-7.95a5.531,5.531,0,0,1-4.07-4.167L203.552,1.649a2.105,2.105,0,0,0-3.869-.611L183.553,28.425a5.531,5.531,0,0,1-5.272,2.7l-29.557-2.709a2.106,2.106,0,0,0-1.742,3.522l20.73,22.535a5.715,5.715,0,0,1,1.073,6.059L157.051,88.816a2.105,2.105,0,0,0,2.845,2.71l26.83-12.69a5.532,5.532,0,0,1,5.879.727l24.552,20.185a2.105,2.105,0,0,0,3.424-1.9" transform="translate(-65.665 0)" fill="#fbc802"/>
              <path id="Trazado_591754" data-name="Trazado 591754" d="M249.25,162.771a11.044,11.044,0,0,1-1.527-2.192,3.321,3.321,0,0,1,1.363-4.633,11.023,11.023,0,0,1,2.491-1.024c.345-.11.819-.17.979.155.129.262-.068.562-.263.779a10.226,10.226,0,0,1-2.611,2.086,2.98,2.98,0,0,1,.891,3.41c-.281.7-.785.884-1.322,1.42" transform="translate(-110.901 -69.438)" fill="#fab093"/>
              <path id="Trazado_591755" data-name="Trazado 591755" d="M211.032,23.848a1.623,1.623,0,0,0-2.215.6L197.742,43.807a2.661,2.661,0,0,1-2.661,1.381l-17-1.966a1.623,1.623,0,1,0-.373,3.225l17,1.966a6,6,0,0,0,.693.04,5.877,5.877,0,0,0,5.175-3.064l11.057-19.326a1.623,1.623,0,0,0-.6-2.215" transform="translate(-79.051 -10.599)" fill="#ffde82"/>
              <path id="Trazado_591756" data-name="Trazado 591756" d="M190.4,341.832a4.7,4.7,0,1,0,4.706,4.706,4.759,4.759,0,0,0-4.706-4.706m-.175,8.493a3.795,3.795,0,1,1,3.972-3.787,3.835,3.835,0,0,1-3.972,3.787" transform="translate(-83.277 -153.299)" fill="#fbc802"/>
            </g>
          </g>
        </g>
      </g>
    </g>
  </g>
</svg>
