<svg xmlns="http://www.w3.org/2000/svg" width="179" height="122" viewBox="0 0 179 122">
  <g id="Grupo_790900" data-name="Grupo 790900" transform="translate(-461.115 -13208.505)">
    <g id="Rectángulo_316221" data-name="Rectángulo 316221" transform="translate(461.115 13208.505)" fill="none" stroke="#3d672f" stroke-width="2">
      <rect width="179" height="122" rx="6" stroke="none"/>
      <rect x="1" y="1" width="177" height="120" rx="5" fill="none"/>
    </g>
    <g id="Grupo_790901" data-name="Grupo 790901" transform="translate(-454.276 -672.516)">
      <ellipse id="Elipse_6740" data-name="Elipse 6740" cx="20" cy="16.5" rx="20" ry="16.5" transform="translate(945.391 13948.021)" fill="#3d672f"/>
      <ellipse id="Elipse_6753" data-name="Elipse 6753" cx="20" cy="16.5" rx="20" ry="16.5" transform="translate(1026.391 13948.021)" fill="#3d672f"/>
      <ellipse id="Elipse_6766" data-name="Elipse 6766" cx="20" cy="16" rx="20" ry="16" transform="translate(987.391 13903.021)" fill="#3d672f"/>
      <ellipse id="Elipse_6741" data-name="Elipse 6741" cx="4.5" cy="4" rx="4.5" ry="4" transform="translate(940.391 13946.021)" fill="#3d672f"/>
      <ellipse id="Elipse_6754" data-name="Elipse 6754" cx="4.5" cy="4" rx="4.5" ry="4" transform="translate(1021.391 13946.021)" fill="#3d672f"/>
      <ellipse id="Elipse_6767" data-name="Elipse 6767" cx="4.5" cy="4" rx="4.5" ry="4" transform="translate(982.391 13901.021)" fill="#3d672f"/>
      <ellipse id="Elipse_6744" data-name="Elipse 6744" cx="4.5" cy="4" rx="4.5" ry="4" transform="translate(979.391 13946.021)" fill="#3d672f"/>
      <ellipse id="Elipse_6755" data-name="Elipse 6755" cx="4.5" cy="4" rx="4.5" ry="4" transform="translate(1060.391 13946.021)" fill="#3d672f"/>
      <ellipse id="Elipse_6768" data-name="Elipse 6768" cx="4.5" cy="4" rx="4.5" ry="4" transform="translate(1021.391 13901.021)" fill="#3d672f"/>
      <ellipse id="Elipse_6742" data-name="Elipse 6742" cx="5" cy="4" rx="5" ry="4" transform="translate(952.391 13940.021)" fill="#3d672f"/>
      <ellipse id="Elipse_6756" data-name="Elipse 6756" cx="5" cy="4" rx="5" ry="4" transform="translate(1033.391 13940.021)" fill="#3d672f"/>
      <ellipse id="Elipse_6769" data-name="Elipse 6769" cx="5" cy="4" rx="5" ry="4" transform="translate(994.391 13895.021)" fill="#3d672f"/>
      <ellipse id="Elipse_6746" data-name="Elipse 6746" cx="5" cy="3.5" rx="5" ry="3.5" transform="translate(952.391 13981.021)" fill="#3d672f"/>
      <ellipse id="Elipse_6757" data-name="Elipse 6757" cx="5" cy="3.5" rx="5" ry="3.5" transform="translate(1033.391 13981.021)" fill="#3d672f"/>
      <ellipse id="Elipse_6770" data-name="Elipse 6770" cx="5" cy="4" rx="5" ry="4" transform="translate(994.391 13935.021)" fill="#3d672f"/>
      <ellipse id="Elipse_6743" data-name="Elipse 6743" cx="5" cy="4" rx="5" ry="4" transform="translate(966.391 13940.021)" fill="#3d672f"/>
      <ellipse id="Elipse_6758" data-name="Elipse 6758" cx="5" cy="4" rx="5" ry="4" transform="translate(1047.391 13940.021)" fill="#3d672f"/>
      <ellipse id="Elipse_6771" data-name="Elipse 6771" cx="5" cy="4" rx="5" ry="4" transform="translate(1008.391 13895.021)" fill="#3d672f"/>
      <ellipse id="Elipse_6745" data-name="Elipse 6745" cx="4.5" cy="4" rx="4.5" ry="4" transform="translate(965.391 13982.021)" fill="#3d672f"/>
      <ellipse id="Elipse_6759" data-name="Elipse 6759" cx="4.5" cy="4" rx="4.5" ry="4" transform="translate(1046.391 13982.021)" fill="#3d672f"/>
      <ellipse id="Elipse_6772" data-name="Elipse 6772" cx="4.5" cy="4" rx="4.5" ry="4" transform="translate(1007.391 13937.021)" fill="#3d672f"/>
      <ellipse id="Elipse_6747" data-name="Elipse 6747" cx="5" cy="3.5" rx="5" ry="3.5" transform="translate(977.391 13978.021)" fill="#3d672f"/>
      <ellipse id="Elipse_6760" data-name="Elipse 6760" cx="5" cy="3.5" rx="5" ry="3.5" transform="translate(1058.391 13978.021)" fill="#3d672f"/>
      <ellipse id="Elipse_6773" data-name="Elipse 6773" cx="5" cy="4" rx="5" ry="4" transform="translate(1019.391 13932.021)" fill="#3d672f"/>
      <ellipse id="Elipse_6752" data-name="Elipse 6752" cx="4.5" cy="4" rx="4.5" ry="4" transform="translate(940.391 13974.021)" fill="#3d672f"/>
      <ellipse id="Elipse_6761" data-name="Elipse 6761" cx="4.5" cy="4" rx="4.5" ry="4" transform="translate(1021.391 13974.021)" fill="#3d672f"/>
      <ellipse id="Elipse_6774" data-name="Elipse 6774" cx="4.5" cy="4" rx="4.5" ry="4" transform="translate(982.391 13929.021)" fill="#3d672f"/>
      <ellipse id="Elipse_6748" data-name="Elipse 6748" cx="4.5" cy="4" rx="4.5" ry="4" transform="translate(985.391 13968.021)" fill="#3d672f"/>
      <ellipse id="Elipse_6762" data-name="Elipse 6762" cx="4.5" cy="4" rx="4.5" ry="4" transform="translate(1066.391 13968.021)" fill="#3d672f"/>
      <ellipse id="Elipse_6775" data-name="Elipse 6775" cx="4.5" cy="4" rx="4.5" ry="4" transform="translate(1027.391 13923.021)" fill="#3d672f"/>
      <ellipse id="Elipse_6751" data-name="Elipse 6751" cx="4.5" cy="3.5" rx="4.5" ry="3.5" transform="translate(934.391 13967.021)" fill="#3d672f"/>
      <ellipse id="Elipse_6763" data-name="Elipse 6763" cx="4.5" cy="3.5" rx="4.5" ry="3.5" transform="translate(1015.391 13967.021)" fill="#3d672f"/>
      <ellipse id="Elipse_6776" data-name="Elipse 6776" cx="4.5" cy="4" rx="4.5" ry="4" transform="translate(976.391 13921.021)" fill="#3d672f"/>
      <ellipse id="Elipse_6749" data-name="Elipse 6749" cx="4.5" cy="4" rx="4.5" ry="4" transform="translate(985.391 13956.021)" fill="#3d672f"/>
      <ellipse id="Elipse_6764" data-name="Elipse 6764" cx="4.5" cy="4" rx="4.5" ry="4" transform="translate(1066.391 13956.021)" fill="#3d672f"/>
      <ellipse id="Elipse_6777" data-name="Elipse 6777" cx="4.5" cy="3.5" rx="4.5" ry="3.5" transform="translate(1027.391 13911.021)" fill="#3d672f"/>
      <ellipse id="Elipse_6750" data-name="Elipse 6750" cx="4.5" cy="4" rx="4.5" ry="4" transform="translate(934.391 13956.021)" fill="#3d672f"/>
      <ellipse id="Elipse_6765" data-name="Elipse 6765" cx="4.5" cy="4" rx="4.5" ry="4" transform="translate(1015.391 13956.021)" fill="#3d672f"/>
      <ellipse id="Elipse_6778" data-name="Elipse 6778" cx="4.5" cy="3.5" rx="4.5" ry="3.5" transform="translate(976.391 13911.021)" fill="#3d672f"/>
    </g>
  </g>
</svg>
