<svg xmlns="http://www.w3.org/2000/svg" width="179" height="122" viewBox="0 0 179 122">
  <g id="Grupo_792911" data-name="Grupo 792911" transform="translate(-461.115 -13208.505)">
    <g id="Rectángulo_316221" data-name="Rectángulo 316221" transform="translate(461.115 13208.505)" fill="none" stroke="#3d672f" stroke-width="2">
      <rect width="179" height="122" rx="6" stroke="none"/>
      <rect x="1" y="1" width="177" height="120" rx="5" fill="none"/>
    </g>
    <g id="Grupo_796939" data-name="Grupo 796939" transform="translate(5643.586 6745.265)">
      <rect id="Rectángulo_318054" data-name="Rectángulo 318054" width="62" height="12" transform="translate(-5124.47 6472.24)" fill="#3d672f"/>
      <ellipse id="Elipse_6779" data-name="Elipse 6779" cx="6.5" cy="4.5" rx="6.5" ry="4.5" transform="translate(-5099.47 6487.24)" fill="#3d672f"/>
      <g id="Grupo_794922" data-name="Grupo 794922" transform="translate(-5089.735 6501.127)">
        <rect id="Rectángulo_318055" data-name="Rectángulo 318055" width="56" height="8" transform="translate(0.265 0.113)" fill="#3d672f"/>
        <ellipse id="Elipse_6780" data-name="Elipse 6780" cx="1.5" cy="2" rx="1.5" ry="2" transform="translate(1.265 11.113)" fill="#3d672f"/>
        <circle id="Elipse_6781" data-name="Elipse 6781" cx="2" cy="2" r="2" transform="translate(8.265 11.113)" fill="#3d672f"/>
        <circle id="Elipse_6782" data-name="Elipse 6782" cx="2" cy="2" r="2" transform="translate(16.265 11.113)" fill="#3d672f"/>
        <ellipse id="Elipse_6783" data-name="Elipse 6783" cx="1.5" cy="2" rx="1.5" ry="2" transform="translate(24.265 11.113)" fill="#3d672f"/>
        <ellipse id="Elipse_6784" data-name="Elipse 6784" cx="1.5" cy="2" rx="1.5" ry="2" transform="translate(31.265 11.113)" fill="#3d672f"/>
        <ellipse id="Elipse_6785" data-name="Elipse 6785" cx="1.5" cy="2" rx="1.5" ry="2" transform="translate(38.265 11.113)" fill="#3d672f"/>
        <circle id="Elipse_6786" data-name="Elipse 6786" cx="2" cy="2" r="2" transform="translate(45.265 11.113)" fill="#3d672f"/>
        <circle id="Elipse_6787" data-name="Elipse 6787" cx="2" cy="2" r="2" transform="translate(52.265 11.113)" fill="#3d672f"/>
      </g>
      <g id="Grupo_794927" data-name="Grupo 794927" transform="translate(-5152.602 6501.127)">
        <rect id="Rectángulo_318055-2" data-name="Rectángulo 318055" width="56" height="8" transform="translate(0.132 0.113)" fill="#3d672f"/>
        <ellipse id="Elipse_6780-2" data-name="Elipse 6780" cx="1.5" cy="2" rx="1.5" ry="2" transform="translate(1.132 11.113)" fill="#3d672f"/>
        <circle id="Elipse_6781-2" data-name="Elipse 6781" cx="2" cy="2" r="2" transform="translate(8.132 11.113)" fill="#3d672f"/>
        <ellipse id="Elipse_6782-2" data-name="Elipse 6782" cx="1.5" cy="2" rx="1.5" ry="2" transform="translate(17.132 11.113)" fill="#3d672f"/>
        <circle id="Elipse_6783-2" data-name="Elipse 6783" cx="2" cy="2" r="2" transform="translate(24.132 11.113)" fill="#3d672f"/>
        <circle id="Elipse_6784-2" data-name="Elipse 6784" cx="2" cy="2" r="2" transform="translate(30.131 11.113)" fill="#3d672f"/>
        <ellipse id="Elipse_6785-2" data-name="Elipse 6785" cx="1.5" cy="2" rx="1.5" ry="2" transform="translate(38.131 11.113)" fill="#3d672f"/>
        <circle id="Elipse_6786-2" data-name="Elipse 6786" cx="2" cy="2" r="2" transform="translate(45.131 11.113)" fill="#3d672f"/>
        <ellipse id="Elipse_6787-2" data-name="Elipse 6787" cx="1.5" cy="2" rx="1.5" ry="2" transform="translate(52.131 11.113)" fill="#3d672f"/>
      </g>
      <g id="Grupo_794923" data-name="Grupo 794923" transform="translate(-5089.735 6522.391)">
        <rect id="Rectángulo_318055-3" data-name="Rectángulo 318055" width="56" height="9" transform="translate(0.265 -0.151)" fill="#3d672f"/>
        <ellipse id="Elipse_6780-3" data-name="Elipse 6780" cx="1.5" cy="2" rx="1.5" ry="2" transform="translate(1.265 11.849)" fill="#3d672f"/>
        <circle id="Elipse_6781-3" data-name="Elipse 6781" cx="2" cy="2" r="2" transform="translate(8.265 11.849)" fill="#3d672f"/>
        <circle id="Elipse_6782-3" data-name="Elipse 6782" cx="2" cy="2" r="2" transform="translate(16.265 11.849)" fill="#3d672f"/>
        <ellipse id="Elipse_6783-3" data-name="Elipse 6783" cx="1.5" cy="2" rx="1.5" ry="2" transform="translate(24.265 11.849)" fill="#3d672f"/>
        <ellipse id="Elipse_6784-3" data-name="Elipse 6784" cx="1.5" cy="2" rx="1.5" ry="2" transform="translate(31.265 11.849)" fill="#3d672f"/>
        <ellipse id="Elipse_6785-3" data-name="Elipse 6785" cx="1.5" cy="2" rx="1.5" ry="2" transform="translate(38.265 11.849)" fill="#3d672f"/>
        <circle id="Elipse_6786-3" data-name="Elipse 6786" cx="2" cy="2" r="2" transform="translate(45.265 11.849)" fill="#3d672f"/>
        <circle id="Elipse_6787-3" data-name="Elipse 6787" cx="2" cy="2" r="2" transform="translate(52.265 11.849)" fill="#3d672f"/>
      </g>
      <g id="Grupo_794926" data-name="Grupo 794926" transform="translate(-5152.602 6522.391)">
        <rect id="Rectángulo_318055-4" data-name="Rectángulo 318055" width="56" height="9" transform="translate(0.132 -0.151)" fill="#3d672f"/>
        <ellipse id="Elipse_6780-4" data-name="Elipse 6780" cx="1.5" cy="2" rx="1.5" ry="2" transform="translate(1.132 11.849)" fill="#3d672f"/>
        <circle id="Elipse_6781-4" data-name="Elipse 6781" cx="2" cy="2" r="2" transform="translate(8.132 11.849)" fill="#3d672f"/>
        <ellipse id="Elipse_6782-4" data-name="Elipse 6782" cx="1.5" cy="2" rx="1.5" ry="2" transform="translate(17.132 11.849)" fill="#3d672f"/>
        <circle id="Elipse_6783-4" data-name="Elipse 6783" cx="2" cy="2" r="2" transform="translate(24.132 11.849)" fill="#3d672f"/>
        <circle id="Elipse_6784-4" data-name="Elipse 6784" cx="2" cy="2" r="2" transform="translate(30.131 11.849)" fill="#3d672f"/>
        <ellipse id="Elipse_6785-4" data-name="Elipse 6785" cx="1.5" cy="2" rx="1.5" ry="2" transform="translate(38.131 11.849)" fill="#3d672f"/>
        <circle id="Elipse_6786-4" data-name="Elipse 6786" cx="2" cy="2" r="2" transform="translate(45.131 11.849)" fill="#3d672f"/>
        <ellipse id="Elipse_6787-4" data-name="Elipse 6787" cx="1.5" cy="2" rx="1.5" ry="2" transform="translate(52.131 11.849)" fill="#3d672f"/>
      </g>
      <g id="Grupo_794924" data-name="Grupo 794924" transform="translate(-5089.735 6546.429)">
        <rect id="Rectángulo_318055-5" data-name="Rectángulo 318055" width="56" height="9" transform="translate(0.265 -0.188)" fill="#3d672f"/>
        <ellipse id="Elipse_6780-5" data-name="Elipse 6780" cx="1.5" cy="2" rx="1.5" ry="2" transform="translate(1.265 11.812)" fill="#3d672f"/>
        <circle id="Elipse_6781-5" data-name="Elipse 6781" cx="2" cy="2" r="2" transform="translate(8.265 11.812)" fill="#3d672f"/>
        <circle id="Elipse_6782-5" data-name="Elipse 6782" cx="2" cy="2" r="2" transform="translate(16.265 11.812)" fill="#3d672f"/>
        <ellipse id="Elipse_6783-5" data-name="Elipse 6783" cx="1.5" cy="2" rx="1.5" ry="2" transform="translate(24.265 11.812)" fill="#3d672f"/>
        <ellipse id="Elipse_6784-5" data-name="Elipse 6784" cx="1.5" cy="2" rx="1.5" ry="2" transform="translate(31.265 11.812)" fill="#3d672f"/>
        <ellipse id="Elipse_6785-5" data-name="Elipse 6785" cx="1.5" cy="2" rx="1.5" ry="2" transform="translate(38.265 11.812)" fill="#3d672f"/>
        <circle id="Elipse_6786-5" data-name="Elipse 6786" cx="2" cy="2" r="2" transform="translate(45.265 11.812)" fill="#3d672f"/>
        <circle id="Elipse_6787-5" data-name="Elipse 6787" cx="2" cy="2" r="2" transform="translate(52.265 11.812)" fill="#3d672f"/>
      </g>
      <g id="Grupo_794925" data-name="Grupo 794925" transform="translate(-5152.602 6546.429)">
        <rect id="Rectángulo_318055-6" data-name="Rectángulo 318055" width="56" height="9" transform="translate(0.132 -0.188)" fill="#3d672f"/>
        <ellipse id="Elipse_6780-6" data-name="Elipse 6780" cx="1.5" cy="2" rx="1.5" ry="2" transform="translate(1.132 11.812)" fill="#3d672f"/>
        <circle id="Elipse_6781-6" data-name="Elipse 6781" cx="2" cy="2" r="2" transform="translate(8.132 11.812)" fill="#3d672f"/>
        <ellipse id="Elipse_6782-6" data-name="Elipse 6782" cx="1.5" cy="2" rx="1.5" ry="2" transform="translate(17.132 11.812)" fill="#3d672f"/>
        <circle id="Elipse_6783-6" data-name="Elipse 6783" cx="2" cy="2" r="2" transform="translate(24.132 11.812)" fill="#3d672f"/>
        <circle id="Elipse_6784-6" data-name="Elipse 6784" cx="2" cy="2" r="2" transform="translate(30.131 11.812)" fill="#3d672f"/>
        <ellipse id="Elipse_6785-6" data-name="Elipse 6785" cx="1.5" cy="2" rx="1.5" ry="2" transform="translate(38.131 11.812)" fill="#3d672f"/>
        <circle id="Elipse_6786-6" data-name="Elipse 6786" cx="2" cy="2" r="2" transform="translate(45.131 11.812)" fill="#3d672f"/>
        <ellipse id="Elipse_6787-6" data-name="Elipse 6787" cx="1.5" cy="2" rx="1.5" ry="2" transform="translate(52.131 11.812)" fill="#3d672f"/>
      </g>
      <rect id="Rectángulo_318056" data-name="Rectángulo 318056" width="56" height="9" transform="translate(-5089.47 6567.24)" fill="#3d672f"/>
      <rect id="Rectángulo_318057" data-name="Rectángulo 318057" width="56" height="9" transform="translate(-5152.47 6567.24)" fill="#3d672f"/>
      <ellipse id="Elipse_6788" data-name="Elipse 6788" cx="2.5" cy="3" rx="2.5" ry="3" transform="translate(-5149.47 6473.24)" fill="#3d672f"/>
    </g>
  </g>
</svg>
