<svg xmlns="http://www.w3.org/2000/svg" width="179" height="122" viewBox="0 0 179 122">
  <g id="Grupo_790899" data-name="Grupo 790899" transform="translate(-461.115 -13208.505)">
    <g id="Grupo_786845" data-name="Grupo 786845" transform="translate(477.982 13216.991)">
      <rect id="Rectángulo_314356" data-name="Rectángulo 314356" width="62" height="9" transform="translate(42.133 6.513)" fill="#3d672f"/>
      <rect id="Rectángulo_314357" data-name="Rectángulo 314357" width="9" height="8" transform="translate(54.133 34.513)" fill="#3d672f"/>
      <rect id="Rectángulo_314358" data-name="Rectángulo 314358" width="9" height="8" transform="translate(64.133 34.513)" fill="#3d672f"/>
      <rect id="Rectángulo_314359" data-name="Rectángulo 314359" width="8" height="8" transform="translate(74.133 34.513)" fill="#3d672f"/>
      <rect id="Rectángulo_314360" data-name="Rectángulo 314360" width="11" height="8" transform="translate(84.133 34.513)" fill="#3d672f"/>
      <rect id="Rectángulo_314357-2" data-name="Rectángulo 314357" width="8" height="7" transform="translate(0.133 15.513)" fill="#3d672f"/>
      <rect id="Rectángulo_314358-2" data-name="Rectángulo 314358" width="9" height="7" transform="translate(11.133 18.513)" fill="#3d672f"/>
      <rect id="Rectángulo_314359-2" data-name="Rectángulo 314359" width="8" height="5" transform="translate(24.133 25.513)" fill="#3d672f"/>
      <rect id="Rectángulo_314360-2" data-name="Rectángulo 314360" width="9" height="8" transform="translate(34.133 28.513)" fill="#3d672f"/>
      <rect id="Rectángulo_314357-3" data-name="Rectángulo 314357" width="8" height="7" transform="translate(138.133 15.513)" fill="#3d672f"/>
      <rect id="Rectángulo_314358-3" data-name="Rectángulo 314358" width="10" height="7" transform="translate(125.133 18.513)" fill="#3d672f"/>
      <rect id="Rectángulo_314359-3" data-name="Rectángulo 314359" width="8" height="5" transform="translate(114.133 25.513)" fill="#3d672f"/>
      <rect id="Rectángulo_314360-3" data-name="Rectángulo 314360" width="9" height="8" transform="translate(103.133 28.513)" fill="#3d672f"/>
      <rect id="Rectángulo_314357-4" data-name="Rectángulo 314357" width="8" height="5" transform="translate(0.133 25.513)" fill="#3d672f"/>
      <rect id="Rectángulo_314358-4" data-name="Rectángulo 314358" width="9" height="8" transform="translate(11.133 26.513)" fill="#3d672f"/>
      <rect id="Rectángulo_314359-4" data-name="Rectángulo 314359" width="8" height="8" transform="translate(24.133 33.513)" fill="#3d672f"/>
      <rect id="Rectángulo_314360-4" data-name="Rectángulo 314360" width="9" height="7" transform="translate(34.133 37.513)" fill="#3d672f"/>
      <rect id="Rectángulo_314357-5" data-name="Rectángulo 314357" width="8" height="5" transform="translate(138.133 25.513)" fill="#3d672f"/>
      <rect id="Rectángulo_314358-5" data-name="Rectángulo 314358" width="10" height="8" transform="translate(125.133 26.513)" fill="#3d672f"/>
      <rect id="Rectángulo_314359-5" data-name="Rectángulo 314359" width="8" height="8" transform="translate(114.133 33.513)" fill="#3d672f"/>
      <rect id="Rectángulo_314360-5" data-name="Rectángulo 314360" width="9" height="7" transform="translate(103.133 37.513)" fill="#3d672f"/>
      <rect id="Rectángulo_314357-6" data-name="Rectángulo 314357" width="8" height="8" transform="translate(0.133 34.513)" fill="#3d672f"/>
      <rect id="Rectángulo_314358-6" data-name="Rectángulo 314358" width="9" height="7" transform="translate(11.133 36.513)" fill="#3d672f"/>
      <rect id="Rectángulo_314359-6" data-name="Rectángulo 314359" width="8" height="7" transform="translate(24.133 43.513)" fill="#3d672f"/>
      <rect id="Rectángulo_314360-6" data-name="Rectángulo 314360" width="9" height="8" transform="translate(34.133 46.513)" fill="#3d672f"/>
      <rect id="Rectángulo_314357-7" data-name="Rectángulo 314357" width="8" height="8" transform="translate(138.133 34.513)" fill="#3d672f"/>
      <rect id="Rectángulo_314358-7" data-name="Rectángulo 314358" width="10" height="7" transform="translate(125.133 36.513)" fill="#3d672f"/>
      <rect id="Rectángulo_314359-7" data-name="Rectángulo 314359" width="8" height="7" transform="translate(114.133 43.513)" fill="#3d672f"/>
      <rect id="Rectángulo_314360-7" data-name="Rectángulo 314360" width="9" height="8" transform="translate(103.133 46.513)" fill="#3d672f"/>
      <rect id="Rectángulo_314357-8" data-name="Rectángulo 314357" width="8" height="7" transform="translate(0.133 43.513)" fill="#3d672f"/>
      <rect id="Rectángulo_314358-8" data-name="Rectángulo 314358" width="9" height="8" transform="translate(11.133 44.513)" fill="#3d672f"/>
      <rect id="Rectángulo_314359-8" data-name="Rectángulo 314359" width="8" height="8" transform="translate(24.133 51.513)" fill="#3d672f"/>
      <rect id="Rectángulo_314360-8" data-name="Rectángulo 314360" width="9" height="7" transform="translate(34.133 55.513)" fill="#3d672f"/>
      <rect id="Rectángulo_314357-9" data-name="Rectángulo 314357" width="8" height="7" transform="translate(138.133 43.513)" fill="#3d672f"/>
      <rect id="Rectángulo_314358-9" data-name="Rectángulo 314358" width="10" height="8" transform="translate(125.133 44.513)" fill="#3d672f"/>
      <rect id="Rectángulo_314359-9" data-name="Rectángulo 314359" width="8" height="8" transform="translate(114.133 51.513)" fill="#3d672f"/>
      <rect id="Rectángulo_314360-9" data-name="Rectángulo 314360" width="9" height="7" transform="translate(103.133 55.513)" fill="#3d672f"/>
      <rect id="Rectángulo_314357-10" data-name="Rectángulo 314357" width="8" height="8" transform="translate(0.133 52.513)" fill="#3d672f"/>
      <rect id="Rectángulo_314358-10" data-name="Rectángulo 314358" width="9" height="7" transform="translate(11.133 54.513)" fill="#3d672f"/>
      <rect id="Rectángulo_314359-10" data-name="Rectángulo 314359" width="8" height="7" transform="translate(24.133 61.513)" fill="#3d672f"/>
      <rect id="Rectángulo_314360-10" data-name="Rectángulo 314360" width="9" height="8" transform="translate(34.133 66.513)" fill="#3d672f"/>
      <rect id="Rectángulo_314357-11" data-name="Rectángulo 314357" width="8" height="8" transform="translate(138.133 52.513)" fill="#3d672f"/>
      <rect id="Rectángulo_314358-11" data-name="Rectángulo 314358" width="10" height="7" transform="translate(125.133 54.513)" fill="#3d672f"/>
      <rect id="Rectángulo_314359-11" data-name="Rectángulo 314359" width="8" height="7" transform="translate(114.133 61.513)" fill="#3d672f"/>
      <rect id="Rectángulo_314360-11" data-name="Rectángulo 314360" width="9" height="8" transform="translate(103.133 66.513)" fill="#3d672f"/>
      <rect id="Rectángulo_314357-12" data-name="Rectángulo 314357" width="8" height="7" transform="translate(0.133 61.513)" fill="#3d672f"/>
      <rect id="Rectángulo_314358-12" data-name="Rectángulo 314358" width="9" height="8" transform="translate(11.133 62.513)" fill="#3d672f"/>
      <rect id="Rectángulo_314359-12" data-name="Rectángulo 314359" width="8" height="8" transform="translate(24.133 69.513)" fill="#3d672f"/>
      <rect id="Rectángulo_314360-12" data-name="Rectángulo 314360" width="9" height="7" transform="translate(34.133 75.513)" fill="#3d672f"/>
      <rect id="Rectángulo_314357-13" data-name="Rectángulo 314357" width="8" height="7" transform="translate(138.133 61.513)" fill="#3d672f"/>
      <rect id="Rectángulo_314358-13" data-name="Rectángulo 314358" width="10" height="8" transform="translate(125.133 62.513)" fill="#3d672f"/>
      <rect id="Rectángulo_314359-13" data-name="Rectángulo 314359" width="8" height="8" transform="translate(114.133 69.513)" fill="#3d672f"/>
      <rect id="Rectángulo_314360-13" data-name="Rectángulo 314360" width="9" height="7" transform="translate(103.133 75.513)" fill="#3d672f"/>
      <rect id="Rectángulo_314357-14" data-name="Rectángulo 314357" width="8" height="8" transform="translate(0.133 69.513)" fill="#3d672f"/>
      <rect id="Rectángulo_314358-14" data-name="Rectángulo 314358" width="9" height="8" transform="translate(11.133 71.513)" fill="#3d672f"/>
      <rect id="Rectángulo_314359-14" data-name="Rectángulo 314359" width="8" height="7" transform="translate(24.133 78.513)" fill="#3d672f"/>
      <rect id="Rectángulo_314360-14" data-name="Rectángulo 314360" width="9" height="8" transform="translate(34.133 83.513)" fill="#3d672f"/>
      <rect id="Rectángulo_314357-15" data-name="Rectángulo 314357" width="8" height="8" transform="translate(138.133 69.513)" fill="#3d672f"/>
      <rect id="Rectángulo_314358-15" data-name="Rectángulo 314358" width="10" height="8" transform="translate(125.133 71.513)" fill="#3d672f"/>
      <rect id="Rectángulo_314359-15" data-name="Rectángulo 314359" width="8" height="7" transform="translate(114.133 78.513)" fill="#3d672f"/>
      <rect id="Rectángulo_314360-15" data-name="Rectángulo 314360" width="9" height="8" transform="translate(103.133 83.513)" fill="#3d672f"/>
      <rect id="Rectángulo_314357-16" data-name="Rectángulo 314357" width="8" height="7" transform="translate(0.133 78.513)" fill="#3d672f"/>
      <rect id="Rectángulo_314358-16" data-name="Rectángulo 314358" width="9" height="8" transform="translate(11.133 79.513)" fill="#3d672f"/>
      <rect id="Rectángulo_314359-16" data-name="Rectángulo 314359" width="8" height="8" transform="translate(24.133 86.513)" fill="#3d672f"/>
      <rect id="Rectángulo_314360-16" data-name="Rectángulo 314360" width="9" height="7" transform="translate(34.133 92.513)" fill="#3d672f"/>
      <rect id="Rectángulo_314357-17" data-name="Rectángulo 314357" width="8" height="7" transform="translate(138.133 78.513)" fill="#3d672f"/>
      <rect id="Rectángulo_314358-17" data-name="Rectángulo 314358" width="10" height="8" transform="translate(125.133 79.513)" fill="#3d672f"/>
      <rect id="Rectángulo_314359-17" data-name="Rectángulo 314359" width="8" height="8" transform="translate(114.133 86.513)" fill="#3d672f"/>
      <rect id="Rectángulo_314360-17" data-name="Rectángulo 314360" width="9" height="7" transform="translate(103.133 92.513)" fill="#3d672f"/>
      <rect id="Rectángulo_314357-18" data-name="Rectángulo 314357" width="9" height="7" transform="translate(54.133 43.513)" fill="#3d672f"/>
      <rect id="Rectángulo_314358-18" data-name="Rectángulo 314358" width="9" height="7" transform="translate(64.133 43.513)" fill="#3d672f"/>
      <rect id="Rectángulo_314359-18" data-name="Rectángulo 314359" width="8" height="7" transform="translate(74.133 43.513)" fill="#3d672f"/>
      <rect id="Rectángulo_314360-18" data-name="Rectángulo 314360" width="11" height="7" transform="translate(84.133 43.513)" fill="#3d672f"/>
      <rect id="Rectángulo_314357-19" data-name="Rectángulo 314357" width="9" height="8" transform="translate(54.133 52.513)" fill="#3d672f"/>
      <rect id="Rectángulo_314358-19" data-name="Rectángulo 314358" width="9" height="8" transform="translate(64.133 52.513)" fill="#3d672f"/>
      <rect id="Rectángulo_314359-19" data-name="Rectángulo 314359" width="8" height="8" transform="translate(74.133 52.513)" fill="#3d672f"/>
      <rect id="Rectángulo_314360-19" data-name="Rectángulo 314360" width="11" height="8" transform="translate(84.133 52.513)" fill="#3d672f"/>
      <rect id="Rectángulo_314357-20" data-name="Rectángulo 314357" width="9" height="7" transform="translate(54.133 61.513)" fill="#3d672f"/>
      <rect id="Rectángulo_314358-20" data-name="Rectángulo 314358" width="9" height="7" transform="translate(64.133 61.513)" fill="#3d672f"/>
      <rect id="Rectángulo_314359-20" data-name="Rectángulo 314359" width="8" height="7" transform="translate(74.133 61.513)" fill="#3d672f"/>
      <rect id="Rectángulo_314360-20" data-name="Rectángulo 314360" width="11" height="7" transform="translate(84.133 61.513)" fill="#3d672f"/>
      <rect id="Rectángulo_314357-21" data-name="Rectángulo 314357" width="9" height="8" transform="translate(54.133 70.513)" fill="#3d672f"/>
      <rect id="Rectángulo_314358-21" data-name="Rectángulo 314358" width="9" height="8" transform="translate(64.133 70.513)" fill="#3d672f"/>
      <rect id="Rectángulo_314359-21" data-name="Rectángulo 314359" width="8" height="8" transform="translate(74.133 70.513)" fill="#3d672f"/>
      <rect id="Rectángulo_314360-21" data-name="Rectángulo 314360" width="11" height="8" transform="translate(84.133 70.513)" fill="#3d672f"/>
      <rect id="Rectángulo_314357-22" data-name="Rectángulo 314357" width="9" height="7" transform="translate(54.133 79.513)" fill="#3d672f"/>
      <rect id="Rectángulo_314358-22" data-name="Rectángulo 314358" width="9" height="7" transform="translate(64.133 79.513)" fill="#3d672f"/>
      <rect id="Rectángulo_314359-22" data-name="Rectángulo 314359" width="8" height="7" transform="translate(74.133 79.513)" fill="#3d672f"/>
      <rect id="Rectángulo_314360-22" data-name="Rectángulo 314360" width="11" height="7" transform="translate(84.133 79.513)" fill="#3d672f"/>
      <rect id="Rectángulo_314357-23" data-name="Rectángulo 314357" width="9" height="8" transform="translate(54.133 87.513)" fill="#3d672f"/>
      <rect id="Rectángulo_314358-23" data-name="Rectángulo 314358" width="9" height="8" transform="translate(64.133 87.513)" fill="#3d672f"/>
      <rect id="Rectángulo_314359-23" data-name="Rectángulo 314359" width="8" height="8" transform="translate(74.133 87.513)" fill="#3d672f"/>
      <rect id="Rectángulo_314360-23" data-name="Rectángulo 314360" width="11" height="8" transform="translate(84.133 87.513)" fill="#3d672f"/>
      <rect id="Rectángulo_314357-24" data-name="Rectángulo 314357" width="9" height="7" transform="translate(54.133 98.513)" fill="#3d672f"/>
      <rect id="Rectángulo_314358-24" data-name="Rectángulo 314358" width="9" height="7" transform="translate(64.133 98.513)" fill="#3d672f"/>
      <rect id="Rectángulo_314359-24" data-name="Rectángulo 314359" width="8" height="7" transform="translate(74.133 98.513)" fill="#3d672f"/>
      <rect id="Rectángulo_314360-24" data-name="Rectángulo 314360" width="11" height="7" transform="translate(84.133 98.513)" fill="#3d672f"/>
      <g id="Grupo_786844" data-name="Grupo 786844" transform="translate(53.655 -0.001)">
        <ellipse id="Elipse_6734" data-name="Elipse 6734" cx="1.5" cy="2" rx="1.5" ry="2" transform="translate(0.478 -0.486)" fill="#3d672f"/>
        <ellipse id="Elipse_6735" data-name="Elipse 6735" cx="1" cy="2" rx="1" ry="2" transform="translate(8.478 -0.486)" fill="#3d672f"/>
        <ellipse id="Elipse_6736" data-name="Elipse 6736" cx="2.5" cy="2" rx="2.5" ry="2" transform="translate(13.478 -0.486)" fill="#3d672f"/>
        <ellipse id="Elipse_6737" data-name="Elipse 6737" cx="2.5" cy="2" rx="2.5" ry="2" transform="translate(20.478 -0.486)" fill="#3d672f"/>
        <ellipse id="Elipse_6738" data-name="Elipse 6738" cx="1" cy="2" rx="1" ry="2" transform="translate(27.478 -0.486)" fill="#3d672f"/>
        <ellipse id="Elipse_6739" data-name="Elipse 6739" cx="1.5" cy="2" rx="1.5" ry="2" transform="translate(34.478 -0.486)" fill="#3d672f"/>
      </g>
    </g>
    <g id="Rectángulo_316221" data-name="Rectángulo 316221" transform="translate(461.115 13208.505)" fill="none" stroke="#3d672f" stroke-width="2">
      <rect width="179" height="122" rx="6" stroke="none"/>
      <rect x="1" y="1" width="177" height="120" rx="5" fill="none"/>
    </g>
  </g>
</svg>
