<svg xmlns="http://www.w3.org/2000/svg" xmlns:xlink="http://www.w3.org/1999/xlink" width="229.922" height="139.839" viewBox="0 0 229.922 139.839">
  <defs>
    <clipPath id="clip-path">
      <rect id="Rectángulo_320385" data-name="Rectángulo 320385" width="229.922" height="139.839" transform="translate(0 0)" fill="none"/>
    </clipPath>
  </defs>
  <g id="Grupo_868465" data-name="Grupo 868465" transform="translate(0 -0.003)">
    <g id="Grupo_868464" data-name="Grupo 868464" transform="translate(0 0.003)" clip-path="url(#clip-path)">
      <path id="Trazado_591654" data-name="Trazado 591654" d="M328.282,72.884c.2.039.407.075.609.111Zm1.662.277c.237.035.473.067.711.1Zm1.757.211c.231.021.461.041.692.058Zm.94.075c.2.014.39.026.585.036Zm.87.051q.347.015.694.026Zm.924.029q.775.02,1.55,0Zm1.8,0q.361-.011.722-.028Zm.949-.039c.209-.012.414-.025.622-.039Zm.837-.054c.226-.017.452-.036.677-.057Zm1.835-.186c.174-.02.347-.043.519-.07Zm31.731-58.365q-.281-.151-.575-.275ZM369.7,14.2a7.358,7.358,0,0,0-.728-.112Zm45.163,35.272-.131.018Zm-168.6-10.248a6.952,6.952,0,0,1-1.853-2.8,9.929,9.929,0,0,1-.709-2.961,10.216,10.216,0,0,1,5.2-8.926,5.977,5.977,0,0,0,1.861-1.361.88.88,0,0,0-.282-.072c-3.658,0-5.534-1.421-6.455-2.624a6.736,6.736,0,0,1-1.318-4.168,9.615,9.615,0,0,1,.323-2.406c1.031-1.7,2.01-1.235,2.61-.364a10.713,10.713,0,0,0,6.228,2.7,5.655,5.655,0,0,1,4.272,2.289,5.979,5.979,0,0,1,1.05,3.431,4.983,4.983,0,0,1-.146,1.236c-.354,1.435-1.866,2.729-3.971,4.376l-1.194.99c-1.749,1.53-2.711,3.233-2.711,4.676a2.953,2.953,0,0,0,.185,1.037,2.506,2.506,0,0,0,.182.384c.781,1.323,2.99,2.153,6.193,1.032a20.447,20.447,0,0,0,6.071-4.033c2.048-2.043,4.781-2.533,7.413-2.741,2.282-.172,3.687-.732,4.677-1.844a11.012,11.012,0,0,1,8.373-3.954c1.008-.078,1.062-.15,1.194-.327a10.794,10.794,0,0,1,4.282-3.553,13.437,13.437,0,0,1,2.715-.828l.926-.228.231-.082a18.4,18.4,0,0,0,5.584-2.879l.127-.08h0l.125-.078h0l.126-.074h0l.126-.072h0l.126-.067h0l.125-.065h0l.126-.061h.005l.127-.059,0,0,.127-.053.005,0,.127-.052h.007l.127-.048.006,0,.126-.045.134-.045.009,0,.125-.04.008,0,.127-.037.009,0,.126-.035.009,0,.126-.03.012,0,.124-.029.01,0,.127-.026.011,0,.126-.023.012,0,.126-.021h.011l.124-.018.013,0,.125-.014.013,0,.123-.014h.014l.124-.012h.014l.124-.009h.014l.122-.008h.014l.123-.005.137,0h.439c.087,0,.174.007.261.012l.12.007h.017l.118.009h.018l.118.012.018,0,.117.012h.019l.116.014.018,0,.116.014.02,0,.114.017.019,0,.115.018.02,0,.112.02.021,0,.112.02.02,0c.178.033.354.073.526.115l.108.027.022.006q.26.067.513.143l.1.031.024.008c.335.105.659.224.973.35l.088.037L305.6,15A36.71,36.71,0,0,1,333.526.044v0Q334.373,0,335.221,0q.56,0,1.12.017l.556.021h0c.184.009.369.018.554.029a36.729,36.729,0,0,1,27.153,14.605,11.137,11.137,0,0,1,2.876-.607h.027l.094-.006.1,0h.05l.1,0h.394l.122,0,.1,0h.022l.1,0h.023l.1.007h.019l.1.008h.02l.1.01.018,0a7.358,7.358,0,0,1,.728.112l.107.022.014,0,.105.025.015,0,.106.027.014,0,.107.029.012,0,.11.031.01,0,.108.033.012,0,.109.036.009,0,.118.041.111.039.007,0,.11.043.007,0L371,14.6l.007,0c.194.082.386.172.575.275l0,0,.112.06h0l.112.065h0l.112.068h0l.111.07h0l.112.072a21.746,21.746,0,0,0,4.256,2.414c.456.182.879.318,1.328.465l.236.082.936.228a17.2,17.2,0,0,1,1.715.445,10.41,10.41,0,0,1,5.267,3.935c.132.177.19.25,1.2.327a11.045,11.045,0,0,1,8.378,3.954c.982,1.113,2.38,1.672,4.662,1.844,2.648.208,5.372.7,7.416,2.741a20.433,20.433,0,0,0,6.074,4.033c3.2,1.121,5.421.291,6.184-1.032a2.658,2.658,0,0,0,.337-.91,2.955,2.955,0,0,0,.046-.51c0-1.443-.964-3.146-2.707-4.676l-.217-.18-.989-.81c-2.1-1.648-3.61-2.941-3.974-4.376a4.993,4.993,0,0,1-.137-1.236,6.079,6.079,0,0,1,1.042-3.431,5.7,5.7,0,0,1,4.276-2.289,10.653,10.653,0,0,0,6.23-2.7c.61-.871,1.58-1.339,2.607.364a9.465,9.465,0,0,1,.327,2.406,6.722,6.722,0,0,1-1.317,4.168c-.927,1.2-2.8,2.625-6.461,2.625a.861.861,0,0,0-.276.072,5.828,5.828,0,0,0,1.859,1.362,10.228,10.228,0,0,1,5.21,8.926,9.642,9.642,0,0,1-.714,2.96,7.047,7.047,0,0,1-1.551,2.516c-.093.1-.19.192-.293.285-1.514,1.406-4.036,2.51-8.237,2.259q-.664-.041-1.324-.12a13.908,13.908,0,0,1-1.508,5.911,1.613,1.613,0,0,0-.3.8c0,.055.005.087.005.11.026.009,1.864,1.094,1.864,1.094l.3.15s.173.082.2.1c.026-.01.635-.037.635-.037l.12-.017h.012c1.149-.109,2.9-.672,3.651,1.412.2.553.314,1.034.426,1.461a3.333,3.333,0,0,0,1.186,2.108s.377-.324.806-.7q.5-.438.973-.9c.532-.545,1.516-.268,2.225,0a18.423,18.423,0,0,1,2.233,1.248,2.359,2.359,0,0,1,1.162,1.341,2.4,2.4,0,0,0,1.3,1.244,3.754,3.754,0,0,1,1.572,3.132,2.173,2.173,0,0,0,.1.673,3.224,3.224,0,0,0,.2.472c.9,1.821.178,2.737-.345,3.124a4.349,4.349,0,0,1-3.109.554l.01.3-1.7-.227a6.987,6.987,0,0,0-2.049.194l-.122.033a3.527,3.527,0,0,1-3.687-1.615c-.033-.054-.065-.107-.1-.165a5.68,5.68,0,0,0-1.508-1.743,5.987,5.987,0,0,1-2.229.228,5.324,5.324,0,0,1-2.9-1.27c-.169-.141-.34-.3-.509-.465a5.7,5.7,0,0,0-4.733-1.625l-.743.132c-1.534.277-3.451.631-5.221-.449a14.134,14.134,0,0,0-1.7-.809c-1.607-.7-3.269-1.421-3.5-2.943a4.341,4.341,0,0,0-.573-1.162,9.7,9.7,0,0,1-.622-1.139,3.3,3.3,0,0,1-.307-1.24,5.427,5.427,0,0,1-1.613.164q-.287-.014-.573-.056l-.7-.108c-1.176-.2-3.639-.605-4.423-.319a24.116,24.116,0,0,1-7.823.527s-.5-.109-.963-.208a11.8,11.8,0,0,1-1.476,1.285,17.413,17.413,0,0,1,2.449.085l1.238.326a7.137,7.137,0,0,1,1.91-.054l1.45.109,1.654.159c.8.16,1.643.5,1.5,2.065a2.885,2.885,0,0,1-.73,1.562,15.607,15.607,0,0,0-1.277,1.893l-.062.123a2.178,2.178,0,0,1-2.289,1.376,5.257,5.257,0,0,0-.553.022c-.044.118-.163.336-.163.336a5.25,5.25,0,0,1-1.7,2.379l-.241.173a3.755,3.755,0,0,1-3.782.7l-.637-.228a47.393,47.393,0,0,1-5.28-2.125l-.173-.1c-1.146-.627-1.4-.753-1.816-.694l-.231.036a3.264,3.264,0,0,1-3.681-1.553l-.1-.165A36.78,36.78,0,0,1,341.94,72.92l-.042.009c-.321.059-.645.113-.968.164l-.12.018-.443.065c-.172.026-.345.049-.519.071l-.316.039-.5.054-.345.036c-.224.021-.451.04-.677.057l-.214.014c-.207.014-.413.028-.622.039l-.227.012c-.241.011-.48.02-.722.028l-.246,0q-.775.019-1.55,0l-.231,0q-.347-.011-.694-.026l-.283-.016c-.2-.011-.39-.021-.586-.036l-.248-.016q-.346-.027-.692-.058l-.341-.035-.452-.049-.252-.029q-.356-.044-.711-.1l-.286-.042-.506-.079-.26-.044c-.2-.036-.407-.071-.609-.111l-.439-.088-.224-.046c-.3-.065-.6-.13-.9-.2l-.079-.018-.469-.114-.241-.062c-.28-.072-.558-.15-.835-.227l-.1-.029a36.808,36.808,0,0,1-20.078-14.5l-.626.953a3.252,3.252,0,0,1-3.678,1.553l-.231-.036c-.415-.059-.677.067-1.812.694l-.182.1a46.313,46.313,0,0,1-5.275,2.125l-.638.228a3.73,3.73,0,0,1-3.771-.7l-.25-.174a5.275,5.275,0,0,1-1.7-2.379s-.109-.218-.162-.336a5.306,5.306,0,0,0-.554-.022,2.179,2.179,0,0,1-2.285-1.376l-.059-.123a14.8,14.8,0,0,0-1.285-1.893,2.846,2.846,0,0,1-.728-1.562,1.642,1.642,0,0,1,1.5-2.065l1.655-.159,1.453-.109a7.074,7.074,0,0,1,1.9.054l1.239-.327a17.353,17.353,0,0,1,2.443-.085,14.047,14.047,0,0,1-1.471-1.285c-.473.1-.964.208-.964.208a24,24,0,0,1-7.808-.527c-.789-.286-3.25.118-4.431.319l-.709.108a5.409,5.409,0,0,1-2.169-.108,5.2,5.2,0,0,1-.932,2.379,4.4,4.4,0,0,0-.581,1.162c-.212,1.521-1.894,2.243-3.5,2.943a14.3,14.3,0,0,0-1.692.809c-1.757,1.08-3.683.726-5.222.449l-.745-.132a5.7,5.7,0,0,0-4.731,1.625,5.379,5.379,0,0,1-5.639,1.507,5.643,5.643,0,0,0-1.509,1.743,3.533,3.533,0,0,1-3.786,1.78l-.126-.033a6.849,6.849,0,0,0-2.031-.195l-1.712.227.018-.3a4.384,4.384,0,0,1-3.122-.554c-.519-.386-1.246-1.3-.328-3.124a2.365,2.365,0,0,0,.286-1.145,3.753,3.753,0,0,1,1.564-3.132,2.355,2.355,0,0,0,1.3-1.244,2.335,2.335,0,0,1,1.158-1.341,18.526,18.526,0,0,1,2.229-1.248c.712-.268,1.7-.545,2.233,0,.541.526,1.779,1.6,1.779,1.6,1.136-.877,1.028-1.889,1.617-3.569.737-2.084,2.5-1.521,3.643-1.412l.131.018s.617.027.635.037c.032-.018.2-.1.2-.1l.286-.15s1.847-1.085,1.865-1.094a.369.369,0,0,0,.008-.11,1.587,1.587,0,0,0-.294-.8,13.813,13.813,0,0,1-1.508-5.911c-.3.035-.583.065-.864.087C250.48,41.815,247.822,40.684,246.266,39.226Z" transform="translate(-216.323 -0.003)" fill="#f8ee3f"/>
      <path id="Trazado_591655" data-name="Trazado 591655" d="M271.345,181.559a13.65,13.65,0,0,0,1.253,6.787s1.2,1.707-.046,2.8l-2.49,1.447a2.371,2.371,0,0,1-1.445.165s-1.535-.38-2.048.3a20.277,20.277,0,0,1-1,2.378s-1.134,2.6-3.01,3.439a2.879,2.879,0,0,0-1.949,1.64,1.874,1.874,0,0,1-1.448.95s-.72.229-1.2,1.833a8.616,8.616,0,0,0-.246,1.834,5.3,5.3,0,0,1,2.029.129s1.968.661,2.848-.96c0,0,1.7-2.911,2.961-2.474a4.405,4.405,0,0,0,4.321-1,7.17,7.17,0,0,1,5.928-2.132s3.909.792,5.129-.11c0,0,2.465-1.289,3.39-1.608a1.846,1.846,0,0,0,1.249-1.572,12.01,12.01,0,0,1,1.189-2.324l-1.865-.021a9.066,9.066,0,0,1-4.558,3.7,9.68,9.68,0,0,1-4.719.118,9.394,9.394,0,0,0-8.494,3.265,1.17,1.17,0,0,1-1.317.471,10.8,10.8,0,0,1,7.013-4.629,9.274,9.274,0,0,1,2.893-.122,10.679,10.679,0,0,0,9.5-6.2s-.326-5.448,1.111-6.738c0,0,.555-.17.444.883,0,0-.987,5.707.867,6.812a4.113,4.113,0,0,0,3.069.533,16.2,16.2,0,0,1,5.474-.3,23.078,23.078,0,0,0,7.018.481,4.8,4.8,0,0,1-.677-2.831s.464-1.1,1-.394c0,0,1.248,4.123,4.659,5.36a5.058,5.058,0,0,1,3,4.973s-.467.53-4.506,1.965c0,0-1.509.477-2-.651,0,0-1.948-4.169-3.643-4.04l-3.183.258s-1.086.278-.286,1.149a22.388,22.388,0,0,1,1.536,2.314s.13.739,1.154.582c0,0,1.421-.7,2.222,1.939a4.155,4.155,0,0,0,1.974,1.744,3.039,3.039,0,0,0,2.25-.224,54.074,54.074,0,0,0,6.173-2.614,2.989,2.989,0,0,1,2.039-.33,2.047,2.047,0,0,0,2.227-.868l1.63-2.521a2.74,2.74,0,0,0,.308-1.4,2.021,2.021,0,0,0-.5-1.558,3.266,3.266,0,0,1-.713-1.122l-1.162-2.73a3.767,3.767,0,0,0-.988-1.029l-1.551.114A25.8,25.8,0,0,0,316,193.251a6.117,6.117,0,0,1,1,2.646,2.17,2.17,0,0,1-.354,1.021s-.358.573-.5.851a3.932,3.932,0,0,1-.851,1.247,4.817,4.817,0,0,1-.82.406s-.287.08-.074-.435a8.29,8.29,0,0,0,.812-2.807,1.858,1.858,0,0,0-.552-1.615,29,29,0,0,1-1.931-3.464,5.3,5.3,0,0,0-.812-1.249.694.694,0,0,1,.362-1.139,17.634,17.634,0,0,0,2.8-.827s1.141-.346,1.883-2.722a16.828,16.828,0,0,0,1.006-4.483,7.336,7.336,0,0,1-1.19,7.78s2.525.745,3.57,0c0,0,3.146-.46,3.753-.627,0,0,.791-.191.339.37a6.407,6.407,0,0,0-1.029,2.233,1.67,1.67,0,0,1-.638,1.116s-1.788,1.252-1.945,2.451c0,0-.382,1.154.407.878,0,0,1.07-.5,1.449,0,0,0,.111.052-.3.515a3.612,3.612,0,0,0-1.154,2.189,5.613,5.613,0,0,0,.578,1.912,1.215,1.215,0,0,0,1.248.458.633.633,0,0,1,.568-.054,5.078,5.078,0,0,0,1.366-.343s1.5-.411,2-.588a10.733,10.733,0,0,1,2.846-.634,5.039,5.039,0,0,1,1.391.088,5.011,5.011,0,0,0,3.971-1.485s1.208-.958,1.619-.028c0,0,2.9,3.89,7.592,2.865,0,0-3.734-1.536-4.7-3.627a8.7,8.7,0,0,0-2.085-4.242s-.6-.818-.021-1.031c0,0,.334-.25,1.062.482a12.762,12.762,0,0,1,2.529,3.414s2.308,3.487,5.633,2.315a9.144,9.144,0,0,1-3.838-2.886,9.519,9.519,0,0,0-3.307-4.434,9.537,9.537,0,0,0-1.289-4.463s-.606-2.683-.769-3.31a22.15,22.15,0,0,1-.637-3.007,8.518,8.518,0,0,0-1.772-5.474,16.708,16.708,0,0,0-3.4-4.349s-1.574-1.944-2.744-3.135a28.2,28.2,0,0,0-4.9-4.16,21.716,21.716,0,0,1-2.633-2.293s-5.922-4.262-10.2-.843a21.257,21.257,0,0,1-5.422,2.632s-5.071.59-7.233,4.11c0,0-.185.65-2.229.9a9,9,0,0,0-7.795,3.873,8.263,8.263,0,0,1-4.576,1.864,10.177,10.177,0,0,0-8.186,3.294s-8.145,7.1-13,2.5c0,0-2.516-2.382.36-6.7a30.561,30.561,0,0,1,4.938-4.5,3.87,3.87,0,0,0,1.368-4.545s-.611-2.673-4.4-2.743c0,0-4.749-.917-6.67-3.315,0,0-2.144,7.552,6.272,7.427,0,0,2.193.324,1.428,2.065a6.492,6.492,0,0,1-2.518,2.032,7.662,7.662,0,0,0-3.686,4.808s-2.564,6.472,3.692,8.97A15.739,15.739,0,0,0,271.345,181.559ZM259.3,196.809a1.532,1.532,0,0,1,1.278-.34c1,.214.393,1.077.393,1.077a12.361,12.361,0,0,1-1.719,2.027,1.53,1.53,0,0,1-2.1-.167c-.867-.855.261-1.268.261-1.268a10.547,10.547,0,0,0,1.885-1.328m-2.51,4.045a.678.678,0,0,1,.169.8,15.522,15.522,0,0,0-.885,3.4s-2.056.367-2.341-.648a1.626,1.626,0,0,1,.28-.96,3.51,3.51,0,0,0,.439-1.5s-.031-2.439,1.549-1.793A2.881,2.881,0,0,1,256.792,200.855Zm72.465-5.161c-.362-.009-.454-.141-.41-.54a2.5,2.5,0,0,1,1.131-1.586c1.666-1,1.869,0,1.869,0,.305,1.778-1.1,2-1.1,2a9.965,9.965,0,0,1-1.489.122m5.027-7.942c.031-.835.1-2.689-.747-3.352-.313-.249-1.551-1.6-1.551-1.6-.188-.329-.333-.349-.333-.349-.255-.025-.584.569-.584.569-.881,1.7-1.761,1.493-1.761,1.493a1.464,1.464,0,0,1,.2-.656q.638-1.24,1.264-2.485c.128-.3.247-.688.247-.688.851-1.319,1.653-.315,1.653-.315a32.833,32.833,0,0,0,2.265,2.974,2.024,2.024,0,0,1,.464,1.044C335.842,187.5,334.283,187.752,334.283,187.752Zm-17.57-18.816a1.362,1.362,0,0,1,.109-1.4c.59-.9,1.142.082,1.142.082,2.038,2.841.533,7.1.533,7.1A10.189,10.189,0,0,0,316.713,168.936Zm109.437,12.623a13.65,13.65,0,0,1-1.253,6.787s-1.2,1.707.046,2.8l2.491,1.447a2.369,2.369,0,0,0,1.445.165s1.534-.38,2.046.3a20.4,20.4,0,0,0,1,2.378s1.136,2.6,3.012,3.439a2.875,2.875,0,0,1,1.947,1.64,1.877,1.877,0,0,0,1.448.95s.722.229,1.2,1.833a8.624,8.624,0,0,1,.248,1.834,5.311,5.311,0,0,0-2.03.129s-1.967.661-2.848-.96c0,0-1.7-2.911-2.961-2.474a4.406,4.406,0,0,1-4.321-1,7.169,7.169,0,0,0-5.928-2.132s-3.908.792-5.128-.11c0,0-2.465-1.289-3.39-1.608a1.844,1.844,0,0,1-1.248-1.572,12.016,12.016,0,0,0-1.189-2.324l1.864-.021a9.063,9.063,0,0,0,4.557,3.7,9.683,9.683,0,0,0,4.719.118,9.4,9.4,0,0,1,8.494,3.265,1.17,1.17,0,0,0,1.317.471,10.791,10.791,0,0,0-7.013-4.629,9.274,9.274,0,0,0-2.893-.122,10.682,10.682,0,0,1-9.5-6.2s.327-5.448-1.11-6.738c0,0-.554-.17-.445.883,0,0,.987,5.707-.866,6.812a4.115,4.115,0,0,1-3.069.533,16.2,16.2,0,0,0-5.473-.3,23.089,23.089,0,0,1-7.019.481,4.8,4.8,0,0,0,.677-2.831s-.465-1.1-1-.394c0,0-1.248,4.123-4.659,5.36a5.059,5.059,0,0,0-3,4.973s.468.53,4.508,1.965c0,0,1.51.477,2-.651,0,0,1.946-4.169,3.642-4.04l3.185.258s1.085.278.285,1.149a22.621,22.621,0,0,0-1.536,2.314s-.129.739-1.153.582c0,0-1.421-.7-2.223,1.939a4.149,4.149,0,0,1-1.973,1.744,3.039,3.039,0,0,1-2.25-.224,54.012,54.012,0,0,1-6.173-2.614,2.99,2.99,0,0,0-2.039-.33,2.045,2.045,0,0,1-2.225-.868l-1.63-2.521a2.729,2.729,0,0,1-.309-1.4,2.018,2.018,0,0,1,.5-1.558,3.255,3.255,0,0,0,.713-1.122l1.162-2.73a3.772,3.772,0,0,1,.987-1.029l1.552.114a25.8,25.8,0,0,1-1.851,3.838,6.118,6.118,0,0,0-1,2.646,2.179,2.179,0,0,0,.354,1.021s.358.573.5.851a3.9,3.9,0,0,0,.851,1.247,4.791,4.791,0,0,0,.82.406s.288.08.072-.435a8.343,8.343,0,0,1-.811-2.807,1.862,1.862,0,0,1,.552-1.615,29.12,29.12,0,0,0,1.934-3.464,5.265,5.265,0,0,1,.811-1.249.694.694,0,0,0-.362-1.139,17.631,17.631,0,0,1-2.8-.827s-1.141-.346-1.883-2.722a16.857,16.857,0,0,1-1.006-4.483,7.335,7.335,0,0,0,1.191,7.78s-2.525.745-3.57,0c0,0-3.145-.46-3.754-.627,0,0-.789-.191-.339.37a6.43,6.43,0,0,1,1.03,2.233,1.664,1.664,0,0,0,.638,1.116s1.788,1.252,1.944,2.451c0,0,.383,1.154-.407.878,0,0-1.07-.5-1.448,0,0,0-.111.052.3.515a3.61,3.61,0,0,1,1.154,2.189,5.6,5.6,0,0,1-.579,1.912,1.214,1.214,0,0,1-1.247.458.634.634,0,0,0-.57-.054,5.076,5.076,0,0,1-1.365-.343s-1.5-.411-2-.588a10.734,10.734,0,0,0-2.846-.634,5.039,5.039,0,0,0-1.391.088,5.012,5.012,0,0,1-3.972-1.485s-1.208-.958-1.617-.028c0,0-2.9,3.89-7.593,2.865,0,0,3.736-1.536,4.7-3.627a8.689,8.689,0,0,1,2.084-4.242s.6-.818.02-1.031c0,0-.333-.25-1.062.482a12.782,12.782,0,0,0-2.528,3.414s-2.309,3.487-5.633,2.315a9.144,9.144,0,0,0,3.836-2.886,9.515,9.515,0,0,1,3.309-4.434,9.529,9.529,0,0,1,1.289-4.463s.607-2.683.769-3.31a22.179,22.179,0,0,0,.637-3.007,8.517,8.517,0,0,1,1.773-5.474,16.679,16.679,0,0,1,3.4-4.349s1.573-1.944,2.743-3.135a28.225,28.225,0,0,1,4.9-4.16,21.7,21.7,0,0,0,2.632-2.293s5.921-4.262,10.2-.843a21.248,21.248,0,0,0,5.423,2.632s5.069.59,7.23,4.11c0,0,.185.65,2.229.9a9,9,0,0,1,7.8,3.873,8.263,8.263,0,0,0,4.576,1.864,10.172,10.172,0,0,1,8.183,3.294s8.145,7.1,13,2.5c0,0,2.515-2.382-.361-6.7a30.551,30.551,0,0,0-4.936-4.5,3.868,3.868,0,0,1-1.368-4.545s.611-2.673,4.4-2.743c0,0,4.749-.917,6.669-3.315,0,0,2.146,7.552-6.272,7.427,0,0-2.194.324-1.428,2.065a6.492,6.492,0,0,0,2.518,2.032,7.664,7.664,0,0,1,3.687,4.808s2.565,6.472-3.694,8.97A15.722,15.722,0,0,1,426.149,181.559Zm12.044,15.251a1.532,1.532,0,0,0-1.277-.34c-1,.214-.394,1.077-.394,1.077a12.392,12.392,0,0,0,1.72,2.027,1.53,1.53,0,0,0,2.1-.167c.866-.855-.263-1.268-.263-1.268a10.574,10.574,0,0,1-1.883-1.328m2.508,4.045a.682.682,0,0,0-.169.8,15.55,15.55,0,0,1,.886,3.4s2.057.367,2.34-.648a1.628,1.628,0,0,0-.28-.96,3.509,3.509,0,0,1-.439-1.5s.031-2.439-1.549-1.793A2.89,2.89,0,0,0,440.7,200.855Zm-72.464-5.161c.362-.009.456-.141.411-.54a2.5,2.5,0,0,0-1.13-1.586c-1.666-1-1.87,0-1.87,0-.3,1.778,1.1,2,1.1,2A9.951,9.951,0,0,0,368.238,195.694Zm-5.025-7.942c-.031-.835-.1-2.689.747-3.352.314-.249,1.551-1.6,1.551-1.6.188-.329.333-.349.333-.349.254-.025.585.569.585.569.88,1.7,1.761,1.493,1.761,1.493a1.463,1.463,0,0,0-.2-.656q-.638-1.24-1.264-2.485-.14-.338-.247-.688c-.851-1.319-1.652-.315-1.652-.315a32.842,32.842,0,0,1-2.265,2.974,2.025,2.025,0,0,0-.466,1.044C361.654,187.5,363.212,187.752,363.212,187.752Zm17.57-18.816a1.362,1.362,0,0,0-.109-1.4c-.59-.9-1.141.082-1.141.082-2.039,2.841-.534,7.1-.534,7.1A10.18,10.18,0,0,1,380.782,168.936Z" transform="translate(-230.388 -141.741)" fill="#cc2729"/>
      <path id="Trazado_591656" data-name="Trazado 591656" d="M0,925.528v52.124H10.518V935.476h4.955s7.735-.348,7.735,6.693-6.868,6.866-6.868,6.866H13.82v12l10.52,16.62H36.681L21.992,956.34s12.083-1.043,12.083-14.17-9.128-16.641-21.3-16.641Zm153.774,24.38a13.677,13.677,0,0,0,4.606-10.372c0-6.793-4.933-12.917-15.438-12.917H125.349v51.032h21.669s15.531-.176,15.531-14.211c0-8.148-3.162-11.268-8.775-13.533M145.3,968.77h-9.43V935.518h5.04s6.85-.514,6.85,5.462-5.449,5.449-5.449,5.449h-3.139v8.958H145.3c1.606,0,6.721.779,6.721,6.666S145.3,968.77,145.3,968.77ZM220.1,924.5h9.823v53.149H220.1Zm-16.906,0h9.953v53.149h-9.953ZM165.51,946.517h10.082v17.819s.351,6,6,6,5.565-6,5.565-6V946.6h10.168v18.345s1.305,14.343-15.473,14.343-16.341-12.6-16.341-14.864ZM98.664,924.5v24.1s-4.868-3.737-10.435-3.737S73.28,948.779,73.28,961.121s8,17.04,14.864,17.04a14.686,14.686,0,0,0,10.693-4.521v4.014h9.908V924.5H98.664Zm-7.651,44.961c-.522,0-7.042.088-7.042-7.909S91.1,953.3,91.1,953.3s8,.26,8,8.084-7.563,8.084-8.084,8.084m-37.553-24.6c16.864,0,16.168,16.43,16.168,16.43V963.9H46.767a7.135,7.135,0,0,0,7.389,6.954c4.259,0,6.432-4.085,6.432-4.085l8.083,4a16.431,16.431,0,0,1-14.428,7.91c-17.56,0-17.908-14.6-17.908-16.427s.262-17.385,17.125-17.385ZM46.94,957.9H59.459s-.522-5.909-6.172-5.909S46.94,957.9,46.94,957.9" transform="translate(0 -839.45)" fill="#cc2729"/>
    </g>
  </g>
</svg>
