<svg xmlns="http://www.w3.org/2000/svg" xmlns:xlink="http://www.w3.org/1999/xlink" width="70.361" height="70.293" viewBox="0 0 70.361 70.293">
  <defs>
    <clipPath id="clip-path">
      <rect id="Rectángulo_309971" data-name="Rectángulo 309971" width="70.361" height="70.293" fill="none"/>
    </clipPath>
  </defs>
  <g id="Grupo_786767" data-name="Grupo 786767" transform="translate(4.631)">
    <g id="Grupo_786766" data-name="Grupo 786766" transform="translate(-4.631)" clip-path="url(#clip-path)">
      <path id="Trazado_549403" data-name="Trazado 549403" d="M11.171,18.566a6.82,6.82,0,1,1,9.457-.057,18.274,18.274,0,0,1,1.91,1.279,18.536,18.536,0,0,1,1.568,1.693c.6-.644,1.234-1.306,1.846-1.987a.682.682,0,0,0,.138-.448,7.038,7.038,0,0,1,4.4-7.292,6.843,6.843,0,0,1-2.072-5.74,6.638,6.638,0,0,1,2.405-4.438,6.806,6.806,0,0,1,9.055.305,6.877,6.877,0,0,1,.017,9.88c.17.092.33.18.492.264a6.6,6.6,0,0,1,3.84,6.139,2.408,2.408,0,0,0,.835,2.027,12.829,12.829,0,0,1,1.218,1.383,7.087,7.087,0,0,1,3.538-2.993,6.8,6.8,0,0,1,5.13-11.754,1.022,1.022,0,0,0,.965-.375,5.616,5.616,0,0,1,6.461-1.462A5.718,5.718,0,0,1,65.8,10.611a5.648,5.648,0,0,1-4.284,5.058,1.164,1.164,0,0,0-.857.693c-.395.769-.912,1.475-1.4,2.243.089.049.246.141.407.225a6.787,6.787,0,0,1,3.888,6.132,1.8,1.8,0,0,0,.277.969,9.332,9.332,0,0,1-.667,12.253,8.553,8.553,0,0,0-1.418,2.061,9.7,9.7,0,0,1-1.826,2.394c-.457.455-.173.8-.132,1.2a.7.7,0,0,0,.655.688c1.16.214,2.329.41,3.463.726a8.82,8.82,0,0,1,6.428,8.257c.05,5.507.015,11.015.015,16.522,0,.069-.016.138-.03.26H0v-.74q0-7.694,0-15.387a8.968,8.968,0,0,1,7.6-9.2c.765-.147,1.524-.331,2.295-.436.48-.065.617-.345.688-.745.074-.416.3-.786-.2-1.177a6.356,6.356,0,0,1-2.07-2.989,2.14,2.14,0,0,0-.523-.809,10.022,10.022,0,0,1-3.25-7.725c.02-1.607,0-3.215,0-4.822a3.421,3.421,0,0,1,2.236-3.37,1.056,1.056,0,0,0,.507-.413,7.178,7.178,0,0,1,3.889-3.915M44.251,27.5c0,1.928.018,3.841,0,5.753a8.227,8.227,0,0,1-1.977,5.412,32.43,32.43,0,0,1-2.4,2.285,1.936,1.936,0,0,0,1.494,1.412c1.7.367,3.413.649,5.128.968a.148.148,0,0,0,.021-.079c0-4.8.1-9.6-.033-14.395a11.335,11.335,0,0,0-22.652.721c-.012,4.255,0,8.51,0,12.765v.989c1.728-.318,3.427-.581,5.1-.97a3.129,3.129,0,0,0,1.294-.907c.394-.387.377-.739-.177-1.119a8.4,8.4,0,0,1-3.821-6.19c-.181-1.708-.095-3.444-.123-5.168-.009-.512,0-1.025,0-1.537.876-.177,1.662-.335,2.447-.494a8.542,8.542,0,0,0,5.17-3.1,1.64,1.64,0,0,0,.311-.887c.042-.819.014-1.641.014-2.488H36.31c0,.818-.044,1.6.019,2.368a2.19,2.19,0,0,0,.41,1.133,7.465,7.465,0,0,0,3.6,2.541c1.253.4,2.552.652,3.915.991m-16.97,40.53h6.76c0-3.237.005-6.424-.011-9.61a1.653,1.653,0,0,0-.241-.72c-2.163-4.033-4.346-8.056-6.49-12.1a.793.793,0,0,0-1.049-.478,10.476,10.476,0,0,0-5.771,3.488c-2.6,3.052-2.428,6.69-2.277,10.353h4.535a15.047,15.047,0,0,1,1.191-7.114l2.083.71c-.064.222-.092.359-.142.488a12.25,12.25,0,0,0,.337,9.964,8.682,8.682,0,0,1,1.036,4.833.739.739,0,0,0,.04.184m24.906-9.061c0-1.491.048-2.95-.009-4.405a10.2,10.2,0,0,0-8.093-9.445.806.806,0,0,0-1.039.5c-2.135,4.021-4.309,8.022-6.452,12.039a2.386,2.386,0,0,0-.271,1.065c-.022,2.881-.013,5.763-.011,8.644,0,.226.02.453.03.655H43.2c-.442-1.938.328-3.574,1.037-5.224.139-.325.268-.655.39-.987a11.194,11.194,0,0,0,.5-6.47c-.212-.932-.5-1.847-.757-2.806l2.058-.681a15.181,15.181,0,0,1,1.19,7.114ZM2.28,68.027H4.572v-12.4H6.819V68.026h6.8c0-2.5.008-4.957-.012-7.41a1.693,1.693,0,0,0-.27-.712q-3.145-5.862-6.3-11.718c-.108-.2-.239-.387-.383-.62a6.622,6.622,0,0,0-4.231,4.9,4.091,4.091,0,0,0-.13.909C2.278,58.24,2.28,63.1,2.28,68.027m63.558-12.4V68.04h2.186a1.152,1.152,0,0,0,.053-.228c0-4.8.079-9.6-.037-14.4a6.284,6.284,0,0,0-3.683-5.576c-.492-.259-.749-.227-1.033.313-1.539,2.925-3,5.9-4.724,8.716a11.7,11.7,0,0,0-1.885,7.56,34.97,34.97,0,0,1,.021,3.6h6.822V55.63ZM28.511,29.265a35.219,35.219,0,0,0,.041,4.992,6.7,6.7,0,0,0,6.872,5.449,6.451,6.451,0,0,0,6.422-5.477,42.516,42.516,0,0,0,.147-4.378c.018-.443-.125-.595-.569-.678a10.944,10.944,0,0,1-5.55-2.786c-.234-.218-.467-.439-.724-.68a11.254,11.254,0,0,1-6.639,3.557M15.92,28.409h2.265L17.939,30a5.9,5.9,0,0,1,3.573,4.4c.029-.291.044-.381.046-.471.046-2.053.1-4.107.124-6.161a1.163,1.163,0,0,0-.269-.688,5.381,5.381,0,0,0-4.164-2.106c-3.048-.048-6.1-.022-9.146-.013a1.136,1.136,0,0,0-1.288,1.255C6.8,28.107,6.781,30,6.83,31.888A6.478,6.478,0,0,0,7.9,35.326c.023-.225.036-.308.04-.391a3.408,3.408,0,0,1,3.17-3.465c.632-.086,1.261-.188,1.893-.272a2.941,2.941,0,0,0,2.915-2.789m46.521,6.777c.065-.01.1-.006.107-.018A6.616,6.616,0,0,0,58.29,25.124a23.014,23.014,0,0,0-4.168-.157,6.294,6.294,0,0,0-4.262,1.652,2.723,2.723,0,0,0-1.114,2.488c.151,1.683.039,3.39.039,5.087a6.175,6.175,0,0,1,3.621-4.2L52.178,28.4h2.253a2.946,2.946,0,0,0,2.92,2.793c.727.087,1.453.186,2.175.306a3.44,3.44,0,0,1,2.848,2.873c.042.266.046.538.067.81M10.215,36.331c0,.4-.009.8,0,1.205a4.561,4.561,0,0,0,4.1,4.424A4.432,4.432,0,0,0,19.142,38.4a13.993,13.993,0,0,0,.07-3.665,3,3,0,0,0-2.075-2.562.978.978,0,0,0-.812.1,6.057,6.057,0,0,1-3.132,1.2c-.656.078-1.31.178-1.962.284a1.108,1.108,0,0,0-1.013,1.166c-.016.472,0,.945,0,1.418m49.969.059-.045,0c0-.071,0-.141,0-.212.008-1.923.258-2.359-2.226-2.608a6.626,6.626,0,0,1-4.009-1.4.792.792,0,0,0-.642-.023,3.336,3.336,0,0,0-2.193,3.024c-.025.779-.019,1.56,0,2.339A4.554,4.554,0,0,0,55.2,41.963a4.5,4.5,0,0,0,4.817-3.6,16.468,16.468,0,0,0,.165-1.97m-19.17,8.231a4.62,4.62,0,0,1-3.275-2.795H32.6a4.6,4.6,0,0,1-3.256,2.8c.719,1.333,1.4,2.621,2.115,3.888a.755.755,0,0,0,.569.26q3.15.028,6.3,0a.755.755,0,0,0,.57-.259c.717-1.267,1.4-2.555,2.119-3.894M30.667,6.827a4.521,4.521,0,0,0,4.832,4.5c2.363-.157,4.44-2.416,4.12-4.5ZM11.382,13.636a4.507,4.507,0,0,0,4.743,4.506c2.389-.109,4.486-2.336,4.216-4.506Zm38.577,0a4.518,4.518,0,0,0,4.823,4.5c2.362-.152,4.424-2.386,4.134-4.5Zm-.032,54.41V61.268c-.852,0-1.606-.026-2.356.019a.742.742,0,0,0-.5.411c-.454,1.112-.807,2.268-1.309,3.356a6.377,6.377,0,0,0-.347,2.989Zm-24.884,0a13.264,13.264,0,0,0-.275-2.446c-.412-1.349-.975-2.652-1.5-3.964a.615.615,0,0,0-.409-.351c-.793-.034-1.588-.016-2.436-.016v6.778ZM61.286,13.341a3.329,3.329,0,0,0,2.253-3.279,3.446,3.446,0,0,0-2.326-3.086,3.01,3.01,0,0,0-3.269.78,6.975,6.975,0,0,1,3.342,5.585M52.222,68.027h2.2a43.908,43.908,0,0,0-.116-7.792l-2.083,1.27Zm-34.1.033V61.508L15.983,60.2v7.865Zm1.583-56.735A4.321,4.321,0,0,0,15.458,9.1a4.377,4.377,0,0,0-3.436,2.228Zm11.6-6.838h7.735a4.489,4.489,0,0,0-7.735,0m26.965,6.837a4.273,4.273,0,0,0-4.155-2.231A4.384,4.384,0,0,0,50.6,11.324Zm-23.1,44.14,2.352-4.371H32.821l2.355,4.371M48.792,38.958c0,1.639.015,3.1,0,4.556-.02,1.59.025,1.367,1.4,1.12.631-.114,1.243-.167,1.317-1.056.036-.442.04-.719-.34-1.017a4.587,4.587,0,0,1-1.051-1.141c-.457-.729-.823-1.515-1.325-2.463m-27.234.182-.194-.048a7.285,7.285,0,0,1-2.447,3.73c-.333.271.062,1.547.5,1.654a9.494,9.494,0,0,0,1.6.3c.172.012.521-.266.524-.417.037-1.737.024-3.476.024-5.214m11.4-25.5a2.224,2.224,0,1,0,4.448,0ZM18.1,20.449H13.654a2.23,2.23,0,0,0,2.276,2.236A2.2,2.2,0,0,0,18.1,20.449m34.122-.009a2.262,2.262,0,0,0,2.39,2.241,2.145,2.145,0,0,0,2.037-2.241Zm2.129,32.885c.155,2.358.527,3.536,1.327,4.252a6.41,6.41,0,0,1,.589-1.049,2.1,2.1,0,0,0-.074-2.861.79.79,0,0,0-.464-.327,13.7,13.7,0,0,0-1.377-.016M14.7,57.622A5.645,5.645,0,0,0,15.969,53.4c-1.464-.28-1.579-.226-2.213,1.046a1.838,1.838,0,0,0-.213.443,1.026,1.026,0,0,0,.012.591c.352.713.746,1.4,1.142,2.137m33.382-32.6,2.763-1.759-.951-2.131c-1.578.791-2.427,2.616-1.812,3.89M53.73,44.136c-.283.712-.283.712.372,1.149,1.506,1,1.486.973,3.052-.012.607-.381.569-.741.336-1.137Zm-37.086,0H12.859c-.307.476-.162.818.393,1.168,1.52.957,1.487.956,3,0,.556-.351.7-.694.391-1.167M22.357,24.7c.567-1.017-.716-3.273-1.951-3.518L19.624,23.1c.478.237.953.441,1.4.7.462.271.892.6,1.337.9m9.124-8.322-.852-2.043a3.7,3.7,0,0,0-2.077,3.244c.476-.218.936-.448,1.41-.642.5-.2,1.011-.373,1.519-.558m10.347,1.18a3.706,3.706,0,0,0-2.119-3.2l-.832,1.983,2.951,1.215M16.894,50.076c-1.572-1.144-2.138-1.268-2.964-.66.405,1.64.408,1.585,1.872,1.661.822.043.975-.4,1.092-1m39.574-.812c-.388-.085-.782-.3-1.066-.206a17.188,17.188,0,0,0-1.989.963c.246.455.106,1.066.916,1.052,1.663-.029,1.664.01,2.139-1.809m3.952-.475.925-1.743c-1.261-.342-2.423-.769-3.358.524l2.433,1.219M12.39,47.553c-1.105-1.065-1.818-1.152-3.349-.428l.9,1.667,2.452-1.24m48.639-23.98a4.568,4.568,0,0,0-2.022-2.509l-.6,1.68,2.62.829M11.9,22.658l-.588-1.711L9.73,22.52l.125.138Zm-.049,27.725-.833.429,1.052,1.9c.555-.929-.119-1.535-.219-2.331M58.31,52.7l1.029-1.909-.911-.414c.059.837-.773,1.424-.118,2.323M19.022,46.789c-.713-.221-1.191-.015-1.877.788l.914.445.962-1.233m34.219.762c-.956-.916-1.229-1.02-1.893-.731l.942,1.2.951-.466" transform="translate(0.001 0)"/>
      <path id="Trazado_549404" data-name="Trazado 549404" d="M162.936,178.339l1.935-.972a2.72,2.72,0,0,0,2.392,1.611,2.653,2.653,0,0,0,2.449-1.621l1.952.974a4.721,4.721,0,0,1-8.727.009" transform="translate(-132.122 -143.815)"/>
    </g>
  </g>
</svg>
