<svg xmlns="http://www.w3.org/2000/svg" xmlns:xlink="http://www.w3.org/1999/xlink" width="65.898" height="69.971" viewBox="0 0 65.898 69.971">
  <defs>
    <clipPath id="clip-path">
      <rect id="Rectángulo_309960" data-name="Rectángulo 309960" width="65.898" height="69.97" fill="none"/>
    </clipPath>
  </defs>
  <g id="Grupo_786761" data-name="Grupo 786761" transform="translate(-674.551 -10237.015)">
    <g id="Grupo_786760" data-name="Grupo 786760" transform="translate(674.551 10237.015)">
      <g id="Grupo_786759" data-name="Grupo 786759" clip-path="url(#clip-path)">
        <path id="Trazado_549391" data-name="Trazado 549391" d="M86.26,69.97a3.214,3.214,0,0,1-2.2-3.569c.077-1.612.011-3.232.018-4.848a2.827,2.827,0,0,1,3.032-3.027c.409,0,.818,0,1.341,0v-3.85H83.673c-1.237,0-1.892-.467-1.9-1.356s.66-1.387,1.873-1.388H88.4V45.757c-1.336-.081-2.673-.143-4.007-.247A56.141,56.141,0,0,1,70.782,42.82c-1.062-.357-1.33-.772-1.246-1.874.56-7.353,4.663-11.989,11.276-14.7.546-.223,1.11-.4,1.741-.628-.173-.155-.311-.288-.458-.41a10.509,10.509,0,0,1-4.134-8.663c.037-1.82,0-3.642.008-5.463A10.446,10.446,0,0,1,85.549.685c.9-.292,1.84-.46,2.761-.685h2.733A27.892,27.892,0,0,1,93.87.71a11.1,11.1,0,0,1,7.394,8.434,28.3,28.3,0,0,1,.252,9.646,9.721,9.721,0,0,1-3.51,6.079c-.249.223-.507.438-.773.667,1.258.533,2.5.972,3.656,1.564A16.049,16.049,0,0,1,109.8,38.043a24.284,24.284,0,0,1,.439,3.171,1.357,1.357,0,0,1-1.079,1.532A52.916,52.916,0,0,1,98,45.22c-2.057.226-4.127.331-6.191.492-.179.014-.356.041-.566.065v6.154h4.447c.3,0,.593-.014.888.006a1.344,1.344,0,0,1,1.314,1.378,1.311,1.311,0,0,1-1.337,1.348c-1.548.027-3.1.011-4.644.012h-.654v3.85h1.09a2.875,2.875,0,0,1,3.191,3.218c0,1.548-.058,3.1.016,4.644a3.243,3.243,0,0,1-2.184,3.583ZM84.207,12.437c-.763.6-1.378,1.413-2.15,1.606-1.354.339-1.462,1.131-1.327,2.212a.794.794,0,0,1,0,.136,7.911,7.911,0,0,0,3.739,7.159,9.184,9.184,0,0,0,10.518.173,8.586,8.586,0,0,0,3.88-9.147c-.8,0-1.611,0-2.424,0-1.775-.012-3.551,0-5.326-.052a12.944,12.944,0,0,1-6.91-2.087m1.06,30.45a12.283,12.283,0,0,1-.19-2.739c.489-2.961,1.11-5.9,1.671-8.849a1.892,1.892,0,0,0,.042-.871c-.288-.9-.64-1.789-.96-2.663-6.5.169-13.224,6.492-13.461,12.689l2.83.806c0-1.033-.02-1.965.006-2.9a1.367,1.367,0,1,1,2.733,0c.019.614.006,1.23.006,1.845,0,1.634-.007,1.682,1.611,1.933,1.927.3,3.868.505,5.713.741m22.165-2.457a12.814,12.814,0,0,0-4.122-8.389,18.228,18.228,0,0,0-9.343-4.361c-.311.846-.624,1.624-.875,2.421a2.294,2.294,0,0,0-.1,1.056c.482,2.638.972,5.275,1.515,7.9a4.943,4.943,0,0,1-.16,3.571c-.014.026.022.08.08.262,2.11-.284,4.244-.583,6.381-.85.528-.066.722-.265.694-.819-.048-.953-.035-1.912,0-2.866a1.321,1.321,0,0,1,1.319-1.371,1.353,1.353,0,0,1,1.417,1.351c.028.316.012.637.013.955,0,.649,0,1.3,0,2.031l3.176-.891M80.774,11.653a1.516,1.516,0,0,0,.995-1.545,1.445,1.445,0,0,1,2.6-1.072,9.556,9.556,0,0,0,6.528,2.716c2.525.08,5.055.045,7.582.055a1.923,1.923,0,0,0,.4-.09A10.161,10.161,0,0,0,97.1,6.385c-3.352-4.744-11.354-4.878-14.872-.251a7.727,7.727,0,0,0-1.458,5.518m6.1,55.516h5.854V61.322H86.877Zm2.559-35.275c-.524,2.747-1,5.456-1.578,8.142a4.189,4.189,0,0,0,.393,2.294c.381,1.2,1.373.448,2.069.642a.747.747,0,0,0,.471-.011c.233-.106.537-.227.636-.428a4.03,4.03,0,0,0,.35-3.15,20.476,20.476,0,0,1-.469-2.408c-.326-1.69-.656-3.379-.987-5.081Zm1.431-3.81H88.941c.09.7.306,1.13,1.119,1.058.776-.068.564-.681.806-1.058" transform="translate(-56.853)"/>
        <path id="Trazado_549392" data-name="Trazado 549392" d="M277.612,303.034a3.169,3.169,0,0,1-2.307-3.555c.07-1.614.007-3.233.017-4.85a2.841,2.841,0,0,1,3.08-3.057c.386,0,.773,0,1.219,0v-3.833h-.709q-3.587,0-7.174,0c-1.064,0-1.661-.511-1.652-1.388S270.7,285,271.773,285q4.509,0,9.018,0c1.141,0,1.63.477,1.638,1.61.011,1.389,0,2.778,0,4.167v.8c.511,0,.939,0,1.366,0a2.812,2.812,0,0,1,2.967,2.954c.009,1.685,0,3.37,0,5.056,0,2.018-.46,2.7-2.323,3.452Zm.512-2.814h5.858v-5.859h-5.858Z" transform="translate(-220.873 -233.064)"/>
        <path id="Trazado_549393" data-name="Trazado 549393" d="M2.211,303.034a3.194,3.194,0,0,1-2.2-3.561c.08-1.636.011-3.279.019-4.919a2.806,2.806,0,0,1,2.955-2.964c.45-.006.9,0,1.417,0,0-1.613,0-3.156,0-4.7,0-1.487.413-1.9,1.913-1.9q4.441,0,8.883,0a1.376,1.376,0,0,1,1.556,1.416,1.361,1.361,0,0,1-1.512,1.322c-2.414.01-4.829,0-7.243,0H7.2v3.85c.424,0,.848,0,1.272,0a2.825,2.825,0,0,1,3,3c.015,1.594-.058,3.192.02,4.782a3.3,3.3,0,0,1-2.172,3.664Zm.617-2.789H8.651v-5.85H2.828Z" transform="translate(0 -233.064)"/>
        <path id="Trazado_549394" data-name="Trazado 549394" d="M240.061,286.381a1.353,1.353,0,0,1,1.39-1.366,1.367,1.367,0,0,1-.006,2.734,1.344,1.344,0,0,1-1.384-1.368" transform="translate(-196.318 -233.08)"/>
        <path id="Trazado_549395" data-name="Trazado 549395" d="M108.211,287.749a1.368,1.368,0,1,1,.042-2.736,1.368,1.368,0,0,1-.042,2.736" transform="translate(-87.36 -233.079)"/>
      </g>
    </g>
  </g>
</svg>
