<svg id="Grupo_786763" data-name="Grupo 786763" xmlns="http://www.w3.org/2000/svg" xmlns:xlink="http://www.w3.org/1999/xlink" width="74.961" height="74.792" viewBox="0 0 74.961 74.792">
  <defs>
    <clipPath id="clip-path">
      <rect id="Rectángulo_309966" data-name="Rectángulo 309966" width="74.961" height="74.792" fill="none"/>
    </clipPath>
  </defs>
  <g id="Grupo_786762" data-name="Grupo 786762" clip-path="url(#clip-path)">
    <path id="Trazado_549396" data-name="Trazado 549396" d="M0,19.252V16.909c.051-.209.114-.417.15-.629A10.869,10.869,0,0,1,13.806,7.66a11.2,11.2,0,0,1,4.95,2.995,2.772,2.772,0,0,0,.285-.146A32.808,32.808,0,0,1,28.67,6.016a1.15,1.15,0,0,0,.591-.692A7.122,7.122,0,0,1,34.44.317,15.879,15.879,0,0,1,38.723.053a7.271,7.271,0,0,1,6.8,5.29.942.942,0,0,0,.751.749,29.985,29.985,0,0,1,7.2,3,3.832,3.832,0,0,0,1.984.583,2.305,2.305,0,0,1,2.426,2.154c.06.58.034,1.17.037,1.755,0,1.088,0,2.176,0,3.267h1.213v-.846c0-2.855-.006-5.71,0-8.565a2.382,2.382,0,0,1,2.591-2.6c.634-.009,1.269,0,1.9,0a2.418,2.418,0,0,1,2.717,2.7q.008,4.282,0,8.565v.766h1.213v-.89q0-6.406,0-12.811c0-.22-.005-.439,0-.659A2.4,2.4,0,0,1,70.054.015C70.736-.008,71.42,0,72.1.01a2.447,2.447,0,0,1,2.7,2.731q.006,6.918,0,13.836A2.437,2.437,0,0,1,72.1,19.3c-2.245.01-4.49,0-6.735,0H64.59c.8,1.487,1.549,2.851,2.255,4.239a.907.907,0,0,0,.9.617,5.968,5.968,0,0,1,5.271,8.489,16.246,16.246,0,0,1-1.561,2.269c.58.682,1.266,1.374,1.817,2.162a8.65,8.65,0,0,1,1.1,4.048c.181,1.4.39,2.793.586,4.19V45.9c-1.828-.012-3.657,0-5.484-.051-.536-.015-.664.222-.832.661-.764,2-1.554,3.988-2.4,5.952a.791.791,0,0,0,.2,1.1,10.344,10.344,0,0,1,3.282,10.155,10.279,10.279,0,0,1-8.42,8.421c-4.477.938-8.141-.638-10.954-4.221-.118-.15-.239-.3-.361-.447-.213.08-.4.146-.577.218a31.57,31.57,0,0,1-11.258,2.268c-2.073.025-4.147.052-6.219.006-.684-.015-.95.211-1.047.854a16.453,16.453,0,0,1-.432,1.773,2.758,2.758,0,0,1-5.4.028c-.177-.658-.35-1.32-.48-1.988a.689.689,0,0,0-.828-.662c-1.365.042-2.732.018-4.1.013a2.456,2.456,0,0,1-2.764-2.741c-.008-1.342.017-2.684-.018-4.025a1.2,1.2,0,0,0-.341-.806,34.824,34.824,0,0,1-5.949-6.525,1.186,1.186,0,0,0-.76-.432A10.894,10.894,0,0,1,.493,47.87C.293,47.225.163,46.557,0,45.9V43.411A2.609,2.609,0,0,0,.132,43a10.537,10.537,0,0,1,2.756-5.7c.637-.686,1.574-1.193,1.958-1.984a11.059,11.059,0,0,0,.383-2.8c.269-1.529.612-3.045.934-4.615-.18-.1-.391-.215-.6-.335a10.8,10.8,0,0,1-5.049-6.2C.294,20.679.169,19.958,0,19.252M48.883,65.235c-1.316-4.4-.589-8.321,2.72-11.484,3.566-3.409,7.759-3.85,12.413-1.968l2.438-5.934H60.162c.239-1.881.522-3.686.685-5.5a7.114,7.114,0,0,1,2.9-5.35c.03-.022.027-.088.038-.134-2.927-2.412-3.381-7.352,1.091-10.173-.987-1.608-1.984-3.215-2.96-4.834a1.085,1.085,0,0,0-1.071-.567q-3.805.039-7.611.006a2.394,2.394,0,0,1-2.562-2.566c-.011-1.146-.034-2.294.008-3.439.033-.9.155-1.806.257-2.913l-5.17-2.018c-.25,2.364-1.641,3.922-2.955,5.523a6.886,6.886,0,0,1-.507.625,4.331,4.331,0,0,0-1.327,3.589,3.513,3.513,0,0,1-3.588,3.633A3.62,3.62,0,0,1,33.8,18.135a7.533,7.533,0,0,1,0-1.1,2.19,2.19,0,0,0-.578-1.651c-1.619-2.161-3.829-3.965-4.183-6.954a29,29,0,0,0-8.774,4.176c2.07,4.117,2.062,8.12-.652,11.851-2.727,3.749-6.556,5.007-11.183,4.281L7.326,34.347a11,11,0,0,1,13.855,6.9,11.049,11.049,0,0,1-8.112,14.1l3.879,4.33A2.815,2.815,0,0,1,19.875,57.9c5.318.03,10.636.011,15.954.014a2.489,2.489,0,0,1,2.789,2.8c.005,2,0,4,0,6,0,.259.022.518.034.772a28.044,28.044,0,0,0,10.229-2.256M2.435,18.123a8.434,8.434,0,1,0,8.387-8.444,8.452,8.452,0,0,0-8.387,8.444M36.144,60.4H19.372v7.176h6.91c.367,1.447.71,2.839,1.083,4.222.054.2.254.362.387.541a1.994,1.994,0,0,0,.384-.544c.333-1.221.659-2.444.93-3.68.1-.461.3-.572.739-.565,1.462.024,2.925.009,4.387.009h1.953Zm24.23,9.362A8.227,8.227,0,0,0,67.506,61.7c.059-4.246-3.15-8.061-7.16-8.417,0,.684-.026,1.366.017,2.043a.774.774,0,0,0,.361.526A3.88,3.88,0,0,1,62.765,59.9a.627.627,0,0,1-.4.453c-.671.049-1.347.021-2,.021-.285-2.351-.68-2.727-2.343-2.33-.208,1.609-.012,2.191,1.684,2.34a3.166,3.166,0,0,1,2.686,2.008c.73,1.673.295,3.431.375,5.227H60.374ZM57.853,53.28a8.383,8.383,0,0,0-7.136,8.77c.334,4.012,3.82,7.806,7.146,7.664,0-.549-.021-1.1.007-1.657a.9.9,0,0,0-.543-.97,3.752,3.752,0,0,1-1.732-4.369h2.174a6.894,6.894,0,0,0,.563,2.024c.429.636,1.229.345,1.882.322.317-1.594-.221-2.307-1.619-2.356A3.379,3.379,0,0,1,55.52,59.65C55.4,58.3,55.5,56.929,55.5,55.461c.64,0,1.245.027,1.845-.017.178-.013.476-.214.489-.349.054-.6.023-1.2.023-1.815M36.167,14.635c0-.917-.02-1.55.007-2.18a.787.787,0,0,0-.491-.841,3.566,3.566,0,0,1-1.658-4.507,3.63,3.63,0,1,1,5.189,4.481c-.222.134-.531.355-.548.557-.066.746-.026,1.5-.026,2.455.37-.2.666-.262.818-.447,1.023-1.242,2.067-2.472,3.005-3.777a4.967,4.967,0,0,0-3.17-7.823,14.463,14.463,0,0,0-2.841-.114,4.838,4.838,0,0,0-4.53,2.81,4.812,4.812,0,0,0,.576,5.357c.9,1.183,1.841,2.337,2.791,3.481a3.913,3.913,0,0,0,.877.548M72.178,43.351c-.155-1.2-.292-2.359-.454-3.511a4.2,4.2,0,0,0-7.82-1.457c-.823,1.547-.651,3.286-.956,4.968Zm-4.579-9.6a3.582,3.582,0,1,0-3.616-3.526A3.565,3.565,0,0,0,67.6,33.748M70.034,2.5V15.458c0,1.394,0,1.354,1.389,1.407.722.027.888-.219.883-.908-.03-4.2-.014-8.393-.017-12.59,0-.282-.026-.565-.041-.867ZM14.145,42.3H7.551a9.681,9.681,0,0,0-.075,4.238c.04.191.292.479.45.482,2.067.032,4.134.021,6.218.021a9.27,9.27,0,0,0,0-4.741M61.632,12.081c0,1.121-.006,2.242,0,3.362.012,1.638-.168,1.354,1.389,1.418.646.027.84-.181.831-.823-.033-2.412-.013-4.824-.013-7.236,0-1.527,0-1.5-1.5-1.517-.542-.005-.729.156-.717.7.03,1.364.01,2.728.009,4.093M16.816,47.044c.559,0,1.167.031,1.768-.021a.681.681,0,0,0,.437-.434,7.324,7.324,0,0,0,0-3.9.671.671,0,0,0-.453-.413c-.6-.05-1.209-.02-1.748-.02ZM53.186,12.169c0,1.465-.007,2.874.011,4.282,0,.128.156.36.25.365a16.746,16.746,0,0,0,1.751,0c.083,0,.223-.2.224-.311.015-1.431.01-2.862.01-4.332ZM4.888,47.015V42.282h-2.1A8.4,8.4,0,0,0,2.8,47.015Zm5.959-10.427L8.389,39.708h4.958l-2.5-3.121m2.374,13.144-.144-.167H8.353L10.867,52.7l2.354-2.965M36.25,16.974c-.006.79-.257,1.63.559,2.071a1.461,1.461,0,0,0,1.262-.055c.722-.478.479-1.27.44-2.016Zm2.3-8.519A1.179,1.179,0,0,0,37.4,7.275a1.209,1.209,0,0,0-1.176,1.166A1.153,1.153,0,0,0,37.391,9.6a1.123,1.123,0,0,0,1.162-1.142M17.708,39.773A8.605,8.605,0,0,0,14.559,37.1c.463.861.853,1.61,1.272,2.343a.66.66,0,0,0,.421.311c.424.042.855.015,1.456.015M4.043,39.5l.167.276a7.655,7.655,0,0,0,.937-.009c.239-.029.584-.072.681-.231.458-.751.848-1.544,1.261-2.321l-.142-.16L4.043,39.5m2.9,12.737.181-.183c-.157-.257-.316-.513-.469-.773s-.32-.541-.465-.82c-.553-1.06-.812-1.17-2.264-.769l3.017,2.544m7.618-.053a6.968,6.968,0,0,0,2.959-2.635c-.582-.017-1.33-.1-1.61.225a13.048,13.048,0,0,0-1.349,2.41" transform="translate(0 0)"/>
    <path id="Trazado_549397" data-name="Trazado 549397" d="M140.166,140.192c0,1.625,0,3.209,0,4.792a2.411,2.411,0,0,1-2.667,2.671c-.707,0-1.415.01-2.122,0a2.3,2.3,0,0,1-2.4-2.317,1.221,1.221,0,0,0-.741-1.276,13.325,13.325,0,0,0-2.908-1.083,23.356,23.356,0,0,0-3.639-.044v.829c0,2.049.008,4.1,0,6.147a2.384,2.384,0,0,1-2.541,2.575c-.756.009-1.512.015-2.268,0a2.346,2.346,0,0,1-2.4-2.419c-.021-2.122-.006-4.244-.007-6.366,0-.262,0-.525,0-.681a22.5,22.5,0,0,1-2.953-.828,7.188,7.188,0,0,1-4.15-8.052,7.262,7.262,0,0,1,7.218-5.776c3.146-.03,6.293-.022,9.439,0a6.955,6.955,0,0,0,4.445-1.389,1.365,1.365,0,0,0,.459-.892,2.454,2.454,0,0,1,2.6-2.553q1.024-.025,2.049,0a2.427,2.427,0,0,1,2.588,2.626c.008,1.607,0,3.214,0,4.873.546.14,1.061.263,1.57.4a4.295,4.295,0,0,1,0,8.335c-.512.143-1.025.28-1.566.427M132.9,129.8a18.719,18.719,0,0,1-3.435.863c-2.55.154-5.112.1-7.669.132-.284,0-.568,0-.882,0v9.638c2.059,0,4.076-.045,6.09.016a32.309,32.309,0,0,1,3.98.384,10.2,10.2,0,0,1,1.918.7Zm4.756,5.824v-8.264c0-1.34,0-1.3-1.367-1.353-.7-.027-.907.184-.9.894.028,5.606.011,11.213.019,16.82,0,1.626-.212,1.38,1.447,1.439.654.023.827-.2.82-.833-.03-2.9-.013-5.8-.015-8.7M118.3,130.94a.857.857,0,0,0-.212-.066,4.747,4.747,0,0,0-.646,9.373c.767.162.912.054.914-.729q.007-3.95,0-7.9c0-.235-.038-.471-.055-.676m4.907,15.583c0-.73.007-1.461,0-2.191-.019-1.533.224-1.4-1.471-1.435-.6-.011-.812.2-.8.8.029,1.582-.006,3.165.013,4.748.021,1.751-.3,1.531,1.617,1.559.467.007.657-.162.647-.636-.021-.949-.006-1.9,0-2.849m17.02-8.993c1.487-.058,2.329-.795,2.3-1.985-.028-1.135-.931-1.866-2.3-1.851Z" transform="translate(-89.501 -99.403)"/>
    <path id="Trazado_549398" data-name="Trazado 549398" d="M30.775,67.844c0-.95-.019-1.9,0-2.851a3.1,3.1,0,0,1,4.734-2.7Q37.8,63.6,40.021,65a3.317,3.317,0,0,1,.025,5.715q-2.246,1.432-4.572,2.74a3.1,3.1,0,0,1-4.7-2.689c-.026-.974,0-1.949,0-2.924m2.519,0c0,.876-.007,1.753,0,2.629.008.844.439,1.108,1.165.685q2.047-1.2,4.066-2.44c.815-.5.822-1.2.008-1.7q-2.048-1.266-4.13-2.475c-.687-.4-1.1-.138-1.108.675-.009.876,0,1.753,0,2.629" transform="translate(-24.761 -49.765)"/>
    <rect id="Rectángulo_309961" data-name="Rectángulo 309961" width="2.369" height="2.337" transform="translate(31.384 62.786)"/>
    <rect id="Rectángulo_309962" data-name="Rectángulo 309962" width="2.35" height="2.338" transform="translate(21.755 62.771)"/>
    <rect id="Rectángulo_309963" data-name="Rectángulo 309963" width="2.371" height="2.322" transform="translate(26.57 62.797)"/>
    <rect id="Rectángulo_309964" data-name="Rectángulo 309964" width="2.32" height="2.352" transform="translate(33.824 35.026)"/>
    <rect id="Rectángulo_309965" data-name="Rectángulo 309965" width="2.337" height="2.336" transform="translate(38.647 35.028)"/>
  </g>
</svg>
