<svg xmlns="http://www.w3.org/2000/svg" xmlns:xlink="http://www.w3.org/1999/xlink" width="1089.7" height="180.477" viewBox="0 0 1089.7 180.477">
  <defs>
    <clipPath id="clip-path">
      <rect id="Rectángulo_277789" data-name="Rectángulo 277789" width="1089.7" height="180.477" fill="none"/>
    </clipPath>
    <filter id="Trazado_501706" x="-6.895" y="-3.896" width="193.406" height="193.408" filterUnits="userSpaceOnUse">
      <feOffset dy="3" input="SourceAlpha"/>
      <feGaussianBlur stdDeviation="9" result="blur"/>
      <feFlood flood-opacity="0.161"/>
      <feComposite operator="in" in2="blur"/>
      <feComposite in="SourceGraphic"/>
    </filter>
    <filter id="Trazado_501703" x="217.191" y="-4.79" width="193.408" height="193.408" filterUnits="userSpaceOnUse">
      <feOffset dy="3" input="SourceAlpha"/>
      <feGaussianBlur stdDeviation="9" result="blur-2"/>
      <feFlood flood-opacity="0.161"/>
      <feComposite operator="in" in2="blur-2"/>
      <feComposite in="SourceGraphic"/>
    </filter>
    <filter id="Rectángulo_277788" x="444.598" y="-3.896" width="193.408" height="193.408" filterUnits="userSpaceOnUse">
      <feOffset dy="3" input="SourceAlpha"/>
      <feGaussianBlur stdDeviation="9" result="blur-3"/>
      <feFlood flood-opacity="0.161"/>
      <feComposite operator="in" in2="blur-3"/>
      <feComposite in="SourceGraphic"/>
    </filter>
    <filter id="Trazado_501704" x="670.281" y="-4.79" width="193.408" height="193.408" filterUnits="userSpaceOnUse">
      <feOffset dy="3" input="SourceAlpha"/>
      <feGaussianBlur stdDeviation="9" result="blur-4"/>
      <feFlood flood-opacity="0.161"/>
      <feComposite operator="in" in2="blur-4"/>
      <feComposite in="SourceGraphic"/>
    </filter>
    <filter id="Trazado_501706-2" x="903.188" y="0.118" width="193.407" height="193.408" filterUnits="userSpaceOnUse">
      <feOffset dy="3" input="SourceAlpha"/>
      <feGaussianBlur stdDeviation="9" result="blur-5"/>
      <feFlood flood-opacity="0.161"/>
      <feComposite operator="in" in2="blur-5"/>
      <feComposite in="SourceGraphic"/>
    </filter>
  </defs>
  <g id="Grupo_868483" data-name="Grupo 868483" transform="translate(-230.5 -11388.289)">
    <g id="Grupo_786782" data-name="Grupo 786782" transform="translate(230.5 11388.289)">
      <g id="Grupo_736622" data-name="Grupo 736622" transform="translate(0 0)">
        <g id="Grupo_736621" data-name="Grupo 736621" transform="translate(0 0)" clip-path="url(#clip-path)">
          <path id="Trazado_501648" data-name="Trazado 501648" d="M429.2,34.9a2.7,2.7,0,1,0,2.7,2.7,2.7,2.7,0,0,0-2.7-2.7" transform="translate(255.18 20.879)" fill="#333"/>
          <path id="Trazado_501649" data-name="Trazado 501649" d="M429.2,28.184a2.7,2.7,0,1,0,2.7,2.7,2.7,2.7,0,0,0-2.7-2.7" transform="translate(255.18 16.863)" fill="#333"/>
          <path id="Trazado_501650" data-name="Trazado 501650" d="M429.2,41.609a2.7,2.7,0,1,0,2.7,2.7,2.7,2.7,0,0,0-2.7-2.7" transform="translate(255.18 24.895)" fill="#333"/>
          <path id="Trazado_501651" data-name="Trazado 501651" d="M429.2,48.322a2.7,2.7,0,1,0,2.7,2.7,2.7,2.7,0,0,0-2.7-2.7" transform="translate(255.18 28.912)" fill="#333"/>
          <path id="Trazado_501652" data-name="Trazado 501652" d="M429.2,21.46a2.7,2.7,0,1,0,2.7,2.7,2.7,2.7,0,0,0-2.7-2.7" transform="translate(255.18 12.84)" fill="#333"/>
          <path id="Trazado_501653" data-name="Trazado 501653" d="M433.845,9.276A2.823,2.823,0,0,0,432.17,8.7a2.658,2.658,0,0,0-2.123,1.045,2.7,2.7,0,1,0,3.8-.468" transform="translate(256.958 5.205)" fill="#333"/>
          <path id="Trazado_501654" data-name="Trazado 501654" d="M429.923,14.813a2.3,2.3,0,0,0-.486-.053,2.737,2.737,0,1,0,.486.053" transform="translate(255.318 8.831)" fill="#333"/>
          <path id="Trazado_501655" data-name="Trazado 501655" d="M532.565,41.575a2.709,2.709,0,1,0,2.7,2.717,2.711,2.711,0,0,0-2.7-2.717" transform="translate(317.027 24.875)" fill="#333"/>
          <path id="Trazado_501656" data-name="Trazado 501656" d="M531.254,13.5a2.69,2.69,0,0,0,.449-3.78V9.7a2.747,2.747,0,0,0-2.123-1.026,2.645,2.645,0,0,0-1.675.595,2.7,2.7,0,1,0,3.348,4.229" transform="translate(315.24 5.192)" fill="#333"/>
          <path id="Trazado_501657" data-name="Trazado 501657" d="M532.565,34.863a2.7,2.7,0,1,0,2.7,2.7,2.7,2.7,0,0,0-2.7-2.7" transform="translate(317.027 20.859)" fill="#333"/>
          <path id="Trazado_501658" data-name="Trazado 501658" d="M532.565,48.3a2.7,2.7,0,1,0,2.7,2.7,2.7,2.7,0,0,0-2.7-2.7" transform="translate(317.027 28.898)" fill="#333"/>
          <path id="Trazado_501659" data-name="Trazado 501659" d="M532.565,28.15a2.7,2.7,0,1,0,2.7,2.7,2.7,2.7,0,0,0-2.7-2.7" transform="translate(317.027 16.843)" fill="#333"/>
          <path id="Trazado_501660" data-name="Trazado 501660" d="M437.4,4.589a2.705,2.705,0,1,0,1.116,5.166A2.7,2.7,0,0,0,437.4,4.589" transform="translate(260.083 2.746)" fill="#333"/>
          <path id="Trazado_501661" data-name="Trazado 501661" d="M529.668,17.941a2.7,2.7,0,1,0,2.664-3.2,2.5,2.5,0,0,0-.505.054,2.7,2.7,0,0,0-2.159,3.15" transform="translate(316.881 8.817)" fill="#333"/>
          <path id="Trazado_501662" data-name="Trazado 501662" d="M532.565,21.438a2.7,2.7,0,1,0,2.7,2.7,2.7,2.7,0,0,0-2.7-2.7" transform="translate(317.027 12.827)" fill="#333"/>
          <path id="Trazado_501663" data-name="Trazado 501663" d="M504.376,3.349a2.71,2.71,0,1,0,2.7,2.7,2.709,2.709,0,0,0-2.7-2.7" transform="translate(300.16 2.004)" fill="#333"/>
          <path id="Trazado_501664" data-name="Trazado 501664" d="M497.651,3.349a2.71,2.71,0,1,0,2.7,2.7,2.721,2.721,0,0,0-2.7-2.7" transform="translate(296.136 2.004)" fill="#333"/>
          <path id="Trazado_501665" data-name="Trazado 501665" d="M511.088,3.349a2.71,2.71,0,1,0,2.7,2.7,2.708,2.708,0,0,0-2.7-2.7" transform="translate(304.176 2.004)" fill="#333"/>
          <path id="Trazado_501666" data-name="Trazado 501666" d="M525.443,4.829h.018a2.7,2.7,0,1,0-2.231,4.913,2.694,2.694,0,1,0,2.214-4.913" transform="translate(312.106 2.739)" fill="#333"/>
          <path id="Trazado_501667" data-name="Trazado 501667" d="M443.929,3.349a2.71,2.71,0,1,0,2.7,2.7,2.722,2.722,0,0,0-2.7-2.7" transform="translate(263.993 2.004)" fill="#333"/>
          <path id="Trazado_501668" data-name="Trazado 501668" d="M517.8,3.349a2.71,2.71,0,1,0,2.7,2.7,2.708,2.708,0,0,0-2.7-2.7" transform="translate(308.192 2.004)" fill="#333"/>
          <path id="Trazado_501669" data-name="Trazado 501669" d="M490.939,3.349a2.71,2.71,0,1,0,2.7,2.7,2.708,2.708,0,0,0-2.7-2.7" transform="translate(292.121 2.004)" fill="#333"/>
          <path id="Trazado_501670" data-name="Trazado 501670" d="M457.365,3.349a2.71,2.71,0,1,0,2.7,2.7,2.708,2.708,0,0,0-2.7-2.7" transform="translate(272.033 2.004)" fill="#333"/>
          <path id="Trazado_501671" data-name="Trazado 501671" d="M484.227,3.349a2.71,2.71,0,1,0,2.7,2.7,2.709,2.709,0,0,0-2.7-2.7" transform="translate(288.104 2.004)" fill="#333"/>
          <path id="Trazado_501672" data-name="Trazado 501672" d="M464.077,3.349a2.71,2.71,0,1,0,2.7,2.7,2.708,2.708,0,0,0-2.7-2.7" transform="translate(276.049 2.004)" fill="#333"/>
          <path id="Trazado_501673" data-name="Trazado 501673" d="M450.653,3.349a2.71,2.71,0,1,0,2.7,2.7,2.709,2.709,0,0,0-2.7-2.7" transform="translate(268.016 2.004)" fill="#333"/>
          <path id="Trazado_501674" data-name="Trazado 501674" d="M477.514,3.349a2.71,2.71,0,1,0,2.7,2.7,2.708,2.708,0,0,0-2.7-2.7" transform="translate(284.088 2.004)" fill="#333"/>
          <path id="Trazado_501675" data-name="Trazado 501675" d="M470.8,3.349a2.71,2.71,0,1,0,2.682,2.7,2.7,2.7,0,0,0-2.682-2.7" transform="translate(280.072 2.004)" fill="#333"/>
          <path id="Trazado_501676" data-name="Trazado 501676" d="M532.565,55.034a2.4,2.4,0,0,0-.523.054,3.055,3.055,0,0,0-1.386.737,2.734,2.734,0,0,0-.791,1.908,2.487,2.487,0,0,0,.216,1.044,2.216,2.216,0,0,0,.233.468,3.6,3.6,0,0,0,.342.414,2.747,2.747,0,0,0,2.431.721,2.882,2.882,0,0,0,.521-.144,3.6,3.6,0,0,0,.451-.253,2.514,2.514,0,0,0,.414-.324,3.587,3.587,0,0,0,.342-.414,3.843,3.843,0,0,0,.252-.468c.053-.161.107-.342.144-.5a2.818,2.818,0,0,0,.053-.54,2.734,2.734,0,0,0-.791-1.908,2.7,2.7,0,0,0-1.908-.791" transform="translate(317.027 32.928)" fill="#333"/>
          <path id="Trazado_501677" data-name="Trazado 501677" d="M7.2,97.008a7.2,7.2,0,0,1-7.2-7.2V29.513A29.547,29.547,0,0,1,29.514,0H150.1a29.547,29.547,0,0,1,29.514,29.513V62.272a7.2,7.2,0,1,1-14.4,0V29.513A15.131,15.131,0,0,0,150.1,14.4H29.514A15.13,15.13,0,0,0,14.4,29.513V89.808a7.2,7.2,0,0,1-7.2,7.2" transform="translate(0 0)" fill="#efd800"/>
          <path id="Trazado_501678" data-name="Trazado 501678" d="M4.842,88.35a.9.9,0,0,1-.9-.9V27.155A23.239,23.239,0,0,1,27.156,3.941H147.744a23.24,23.24,0,0,1,23.214,23.214V59.912a.9.9,0,1,1-1.8,0V27.155A21.439,21.439,0,0,0,147.744,5.742H27.156A21.437,21.437,0,0,0,5.742,27.155V87.45a.9.9,0,0,1-.9.9" transform="translate(2.359 2.358)" fill="#333"/>
          <path id="Trazado_501679" data-name="Trazado 501679" d="M5.515,59.891a2.711,2.711,0,0,1-1.908-4.626,2.823,2.823,0,0,1,3.815,0,3.749,3.749,0,0,1,.344.414,3.836,3.836,0,0,1,.251.468,4.959,4.959,0,0,1,.144.5,2.693,2.693,0,0,1,.054.54A2.729,2.729,0,0,1,7.421,59.1a2.7,2.7,0,0,1-1.907.791" transform="translate(1.684 32.622)" fill="#333"/>
          <path id="Trazado_501680" data-name="Trazado 501680" d="M144.43,135.8a2.7,2.7,0,1,1,2.7,2.7,2.714,2.714,0,0,1-2.7-2.7m-10.728,0a2.7,2.7,0,1,1,2.7,2.7,2.713,2.713,0,0,1-2.7-2.7m-10.729,0a2.7,2.7,0,1,1,2.7,2.7,2.714,2.714,0,0,1-2.7-2.7m-10.747,0a2.7,2.7,0,1,1,2.7,2.7,2.725,2.725,0,0,1-2.7-2.7m-10.728,0a2.7,2.7,0,1,1,2.7,2.7,2.713,2.713,0,0,1-2.7-2.7m-10.729,0a2.7,2.7,0,1,1,2.7,2.7,2.714,2.714,0,0,1-2.7-2.7m-10.728,0a2.7,2.7,0,1,1,2.7,2.7,2.713,2.713,0,0,1-2.7-2.7m-10.729,0a2.691,2.691,0,1,1,2.7,2.7,2.7,2.7,0,0,1-2.7-2.7m-10.747,0a2.7,2.7,0,1,1,2.7,2.7,2.714,2.714,0,0,1-2.7-2.7m-10.728,0a2.7,2.7,0,1,1,2.7,2.7,2.713,2.713,0,0,1-2.7-2.7m-10.729,0a2.7,2.7,0,1,1,2.7,2.7,2.714,2.714,0,0,1-2.7-2.7m-10.747,0a2.7,2.7,0,1,1,2.7,2.7,2.726,2.726,0,0,1-2.7-2.7m128.763-.865a2.7,2.7,0,1,1,4.915-2.214,2.671,2.671,0,0,1-1.351,3.563h.018a2.672,2.672,0,0,1-3.582-1.349M17.5,136.263a2.673,2.673,0,1,1,1.116.253,2.718,2.718,0,0,1-1.116-.253m146.781-6.876a2.7,2.7,0,1,1,3.8-.451v.018a2.745,2.745,0,0,1-2.124,1.026,2.656,2.656,0,0,1-1.675-.593M8.144,128.9a2.7,2.7,0,1,1,3.8.468,2.823,2.823,0,0,1-1.675.577A2.657,2.657,0,0,1,8.144,128.9m161.7-8.66a2.691,2.691,0,1,1,.991-5.29,2.695,2.695,0,0,1-.486,5.345,2.5,2.5,0,0,1-.505-.054M3.229,118.047a2.7,2.7,0,1,1,3.15,2.159,2.3,2.3,0,0,1-.486.053,2.729,2.729,0,0,1-2.664-2.212m164.8-11.163a2.7,2.7,0,1,1,2.7,2.7,2.7,2.7,0,0,1-2.7-2.7M2.815,106.849a2.7,2.7,0,1,1,2.7,2.7,2.7,2.7,0,0,1-2.7-2.7M168.03,96.156a2.7,2.7,0,1,1,2.7,2.7,2.7,2.7,0,0,1-2.7-2.7M2.815,96.1a2.7,2.7,0,1,1,2.7,2.7,2.71,2.71,0,0,1-2.7-2.7M168.03,85.427a2.7,2.7,0,1,1,2.7,2.7,2.7,2.7,0,0,1-2.7-2.7M2.815,85.372a2.7,2.7,0,1,1,2.7,2.7,2.7,2.7,0,0,1-2.7-2.7M168.03,74.681a2.7,2.7,0,1,1,2.7,2.717,2.708,2.708,0,0,1-2.7-2.717M2.815,74.644a2.7,2.7,0,1,1,2.7,2.7,2.7,2.7,0,0,1-2.7-2.7M168.03,63.952a2.7,2.7,0,1,1,2.7,2.7,2.709,2.709,0,0,1-2.7-2.7M2.815,63.917a2.7,2.7,0,1,1,2.7,2.7,2.7,2.7,0,0,1-2.7-2.7" transform="translate(1.684 36.627)" fill="#333"/>
          <path id="Trazado_501681" data-name="Trazado 501681" d="M108.884,59.9a2.4,2.4,0,0,1-.523-.054,2.316,2.316,0,0,1-.5-.161,2.283,2.283,0,0,1-.468-.253,2.316,2.316,0,0,1-.414-.323,2.734,2.734,0,0,1-.791-1.908,2.489,2.489,0,0,1,.216-1.044,2.209,2.209,0,0,1,.233-.468,3.736,3.736,0,0,1,.342-.414,2.752,2.752,0,0,1,2.431-.721,2.88,2.88,0,0,1,.521.144,3.82,3.82,0,0,1,.451.253,2.512,2.512,0,0,1,.414.324,3.733,3.733,0,0,1,.342.414,3.844,3.844,0,0,1,.253.468c.053.161.107.342.144.5a2.813,2.813,0,0,1,.053.54,2.734,2.734,0,0,1-.791,1.908,2.7,2.7,0,0,1-1.908.791" transform="translate(63.531 32.611)" fill="#333"/>
          <path id="Trazado_501682" data-name="Trazado 501682" d="M114.2,57.2a2.7,2.7,0,1,1,2.7,2.7,2.7,2.7,0,0,1-2.7-2.7" transform="translate(68.329 32.611)" fill="#333"/>
          <path id="Trazado_501683" data-name="Trazado 501683" d="M124.921,59.891a2.637,2.637,0,0,1-.521-.054,2.33,2.33,0,0,1-.505-.161,2.413,2.413,0,0,1-1.205-.991,2.846,2.846,0,0,1-.414-.972,2.638,2.638,0,0,1-.054-.521,2.733,2.733,0,0,1,.793-1.926,2.823,2.823,0,0,1,3.815,0,2.718,2.718,0,0,1,0,3.834,2.7,2.7,0,0,1-1.908.791" transform="translate(73.127 32.622)" fill="#333"/>
          <path id="Trazado_501685" data-name="Trazado 501685" d="M147.4,51.125a7.2,7.2,0,0,0-7.2,7.2V118.62a29.548,29.548,0,0,0,29.514,29.514H290.3a29.548,29.548,0,0,0,29.514-29.514V85.861a7.2,7.2,0,1,0-14.4,0V118.62A15.131,15.131,0,0,1,290.3,133.732H169.715A15.13,15.13,0,0,1,154.6,118.62V58.325a7.2,7.2,0,0,0-7.2-7.2" transform="translate(83.884 30.589)" fill="#94bf10"/>
          <path id="Trazado_501686" data-name="Trazado 501686" d="M145.043,55.067a.9.9,0,0,0-.9.9v60.295a23.239,23.239,0,0,0,23.214,23.214H287.945a23.24,23.24,0,0,0,23.214-23.214V83.5a.9.9,0,1,0-1.8,0v32.759a21.438,21.438,0,0,1-21.414,21.413H167.357a21.438,21.438,0,0,1-21.414-21.413V55.967a.9.9,0,0,0-.9-.9" transform="translate(86.243 32.947)" fill="#333"/>
          <path id="Trazado_501687" data-name="Trazado 501687" d="M145.717,53.937a2.711,2.711,0,0,0-1.908,4.626,2.823,2.823,0,0,0,3.815,0,3.573,3.573,0,0,0,.344-.414,3.837,3.837,0,0,0,.251-.468,4.954,4.954,0,0,0,.144-.5,2.7,2.7,0,0,0-2.645-3.24" transform="translate(85.569 32.271)" fill="#333"/>
          <path id="Trazado_501688" data-name="Trazado 501688" d="M287.332,2.253h0a2.709,2.709,0,1,1-2.7,2.7,2.707,2.707,0,0,1,2.7-2.7m-10.728,0h0a2.709,2.709,0,1,1-2.7,2.7,2.708,2.708,0,0,1,2.7-2.7m-10.729,0h0a2.709,2.709,0,1,1-2.7,2.7,2.72,2.72,0,0,1,2.7-2.7m-10.747,0h0a2.709,2.709,0,1,1-2.7,2.7,2.707,2.707,0,0,1,2.7-2.7m-10.728,0h0a2.709,2.709,0,1,1-2.7,2.7,2.708,2.708,0,0,1,2.7-2.7m-10.729,0h0a2.709,2.709,0,1,1-2.7,2.7,2.707,2.707,0,0,1,2.7-2.7m-10.728,0h0a2.709,2.709,0,1,1-2.7,2.7,2.708,2.708,0,0,1,2.7-2.7m-10.729,0h0a2.709,2.709,0,1,1-2.7,2.7,2.7,2.7,0,0,1,2.7-2.7m-10.747,0h0a2.709,2.709,0,1,1-2.7,2.7,2.709,2.709,0,0,1,2.7-2.7m-10.728,0h0a2.709,2.709,0,1,1-2.7,2.7,2.708,2.708,0,0,1,2.7-2.7m-10.729,0h0a2.709,2.709,0,1,1-2.7,2.7,2.709,2.709,0,0,1,2.7-2.7m-10.747,0h0a2.709,2.709,0,1,1-2.7,2.7,2.709,2.709,0,0,1,2.7-2.7m128.53,1.963h0a2.731,2.731,0,0,1,1.116.251h-.018a2.7,2.7,0,0,1-2.215,4.915,2.7,2.7,0,0,1,1.117-5.166m-138.97.018h0a2.728,2.728,0,1,1-1.116.251,2.706,2.706,0,0,1,1.116-.251m147.341,6.534h0a2.743,2.743,0,0,1,2.123,1.028v.018a2.7,2.7,0,1,1-3.8-.451,2.655,2.655,0,0,1,1.675-.595M150.468,10.8h0a2.823,2.823,0,0,1,1.675.577,2.7,2.7,0,1,1-3.8.468,2.662,2.662,0,0,1,2.124-1.045m160.086,9.651h0a2.743,2.743,0,1,1-.505.054,2.5,2.5,0,0,1,.505-.054m-164.46.037h0a2.3,2.3,0,0,1,.488.053,2.66,2.66,0,1,1-.488-.053M310.931,31.163h0a2.7,2.7,0,1,1-2.7,2.7,2.7,2.7,0,0,1,2.7-2.7M145.717,31.2h0a2.7,2.7,0,1,1-2.7,2.7,2.7,2.7,0,0,1,2.7-2.7M310.931,41.891h0a2.7,2.7,0,1,1-2.7,2.7,2.7,2.7,0,0,1,2.7-2.7m-165.215.056h0a2.7,2.7,0,1,1-2.7,2.7,2.7,2.7,0,0,1,2.7-2.7M310.931,52.621h0a2.7,2.7,0,1,1-2.7,2.7,2.7,2.7,0,0,1,2.7-2.7m-165.215.054h0a2.7,2.7,0,1,1-2.7,2.7,2.7,2.7,0,0,1,2.7-2.7M310.931,63.349h0a2.709,2.709,0,1,1-2.7,2.719,2.713,2.713,0,0,1,2.7-2.719M145.717,63.4h0a2.7,2.7,0,1,1-2.7,2.7,2.7,2.7,0,0,1,2.7-2.7M310.931,74.1h0a2.7,2.7,0,1,1-2.7,2.7,2.7,2.7,0,0,1,2.7-2.7m-165.215.037h0a2.7,2.7,0,1,1-2.7,2.7,2.7,2.7,0,0,1,2.7-2.7" transform="translate(85.569 1.348)" fill="#333"/>
          <path id="Trazado_501689" data-name="Trazado 501689" d="M249.085,53.937a2.509,2.509,0,0,0-.523.053,3.031,3.031,0,0,0-1.386.738,2.734,2.734,0,0,0-.791,1.908,2.828,2.828,0,0,0,.053.54,2.8,2.8,0,0,0,.163.5,2.208,2.208,0,0,0,.233.468,3.921,3.921,0,0,0,.342.414,2.752,2.752,0,0,0,2.431.721,2.88,2.88,0,0,0,.521-.144,3.822,3.822,0,0,0,.451-.253,2.6,2.6,0,0,0,.414-.324,3.735,3.735,0,0,0,.342-.414,3.852,3.852,0,0,0,.253-.468c.053-.161.107-.342.144-.5a2.826,2.826,0,0,0,.053-.54,2.734,2.734,0,0,0-.791-1.908,2.7,2.7,0,0,0-1.908-.791" transform="translate(147.416 32.271)" fill="#333"/>
          <path id="Trazado_501690" data-name="Trazado 501690" d="M254.4,56.638a2.7,2.7,0,1,0,2.7-2.7,2.7,2.7,0,0,0-2.7,2.7" transform="translate(152.214 32.272)" fill="#333"/>
          <path id="Trazado_501691" data-name="Trazado 501691" d="M265.123,53.937a2.759,2.759,0,0,0-.523.053,2.931,2.931,0,0,0-.972.414,2.171,2.171,0,0,0-.738.74,2.4,2.4,0,0,0-.253.467,2.33,2.33,0,0,0-.161.505,2.694,2.694,0,0,0,.738,2.447,2.823,2.823,0,0,0,3.815,0,2.715,2.715,0,0,0,0-3.834,2.691,2.691,0,0,0-1.907-.791" transform="translate(157.011 32.271)" fill="#333"/>
          <path id="Trazado_501693" data-name="Trazado 501693" d="M289.682,97.008a7.2,7.2,0,0,1-7.2-7.2V29.513A29.547,29.547,0,0,1,312,0H432.584A29.547,29.547,0,0,1,462.1,29.513V62.272a7.2,7.2,0,1,1-14.4,0V29.513A15.131,15.131,0,0,0,432.584,14.4H312a15.13,15.13,0,0,0-15.114,15.112V89.808a7.2,7.2,0,0,1-7.2,7.2" transform="translate(169.013 0)" fill="#08afaf"/>
          <path id="Trazado_501694" data-name="Trazado 501694" d="M287.324,88.35a.9.9,0,0,1-.9-.9V27.155A23.239,23.239,0,0,1,309.638,3.941H430.226A23.24,23.24,0,0,1,453.44,27.155V59.912a.9.9,0,1,1-1.8,0V27.155A21.439,21.439,0,0,0,430.226,5.742H309.638a21.437,21.437,0,0,0-21.414,21.413V87.45a.9.9,0,0,1-.9.9" transform="translate(171.372 2.358)" fill="#333"/>
          <path id="Trazado_501695" data-name="Trazado 501695" d="M288,59.891a2.711,2.711,0,0,1-1.908-4.626,2.823,2.823,0,0,1,3.815,0,3.586,3.586,0,0,1,.344.414,3.841,3.841,0,0,1,.251.468,4.97,4.97,0,0,1,.144.5,2.69,2.69,0,0,1,.054.54A2.729,2.729,0,0,1,289.9,59.1a2.7,2.7,0,0,1-1.907.791" transform="translate(170.697 32.622)" fill="#333"/>
          <path id="Trazado_501696" data-name="Trazado 501696" d="M426.912,135.8a2.7,2.7,0,1,1,2.7,2.7,2.714,2.714,0,0,1-2.7-2.7m-10.728,0a2.7,2.7,0,1,1,2.7,2.7,2.713,2.713,0,0,1-2.7-2.7m-10.729,0a2.7,2.7,0,1,1,2.7,2.7,2.714,2.714,0,0,1-2.7-2.7m-10.747,0a2.7,2.7,0,1,1,2.7,2.7,2.725,2.725,0,0,1-2.7-2.7m-10.728,0a2.7,2.7,0,1,1,2.7,2.7,2.713,2.713,0,0,1-2.7-2.7m-10.729,0a2.7,2.7,0,1,1,2.7,2.7,2.714,2.714,0,0,1-2.7-2.7m-10.729,0a2.7,2.7,0,1,1,2.7,2.7,2.714,2.714,0,0,1-2.7-2.7m-10.728,0a2.691,2.691,0,1,1,2.7,2.7,2.7,2.7,0,0,1-2.7-2.7m-10.747,0a2.7,2.7,0,1,1,2.7,2.7,2.714,2.714,0,0,1-2.7-2.7m-10.728,0a2.7,2.7,0,1,1,2.7,2.7,2.713,2.713,0,0,1-2.7-2.7m-10.729,0a2.7,2.7,0,1,1,2.7,2.7,2.714,2.714,0,0,1-2.7-2.7m-10.747,0a2.7,2.7,0,1,1,2.7,2.7,2.725,2.725,0,0,1-2.7-2.7m128.763-.865a2.7,2.7,0,0,1,4.915-2.214,2.671,2.671,0,0,1-1.351,3.563h.018a2.672,2.672,0,0,1-3.582-1.349m-137.62,1.331a2.672,2.672,0,1,1,1.116.253,2.716,2.716,0,0,1-1.116-.253m146.781-6.876a2.7,2.7,0,1,1,3.8-.451v.018a2.745,2.745,0,0,1-2.124,1.026,2.653,2.653,0,0,1-1.675-.593M290.626,128.9a2.7,2.7,0,1,1,3.8.468,2.822,2.822,0,0,1-1.675.577,2.657,2.657,0,0,1-2.123-1.045m161.7-8.66a2.691,2.691,0,1,1,.991-5.29,2.695,2.695,0,0,1-.486,5.345,2.5,2.5,0,0,1-.505-.054m-166.618-2.194a2.7,2.7,0,1,1,3.15,2.159,2.3,2.3,0,0,1-.486.053,2.729,2.729,0,0,1-2.664-2.212m164.8-11.163a2.7,2.7,0,1,1,2.7,2.7,2.7,2.7,0,0,1-2.7-2.7M285.3,106.849a2.7,2.7,0,1,1,2.7,2.7,2.7,2.7,0,0,1-2.7-2.7M450.512,96.156a2.7,2.7,0,1,1,2.7,2.7,2.7,2.7,0,0,1-2.7-2.7M285.3,96.1a2.7,2.7,0,1,1,2.7,2.7,2.71,2.71,0,0,1-2.7-2.7M450.512,85.427a2.7,2.7,0,1,1,2.7,2.7,2.7,2.7,0,0,1-2.7-2.7M285.3,85.372a2.7,2.7,0,1,1,2.7,2.7,2.7,2.7,0,0,1-2.7-2.7M450.512,74.681a2.7,2.7,0,1,1,2.7,2.717,2.708,2.708,0,0,1-2.7-2.717M285.3,74.644a2.7,2.7,0,1,1,2.7,2.7,2.7,2.7,0,0,1-2.7-2.7M450.512,63.952a2.7,2.7,0,1,1,2.7,2.7,2.709,2.709,0,0,1-2.7-2.7M285.3,63.917a2.7,2.7,0,1,1,2.7,2.7,2.7,2.7,0,0,1-2.7-2.7" transform="translate(170.697 36.627)" fill="#333"/>
          <path id="Trazado_501697" data-name="Trazado 501697" d="M391.365,59.9a2.394,2.394,0,0,1-.523-.054,2.315,2.315,0,0,1-.5-.161,2.28,2.28,0,0,1-.468-.253,2.318,2.318,0,0,1-.414-.323,2.734,2.734,0,0,1-.791-1.908,2.486,2.486,0,0,1,.216-1.044,2.209,2.209,0,0,1,.233-.468,3.729,3.729,0,0,1,.342-.414,2.752,2.752,0,0,1,2.431-.721,2.88,2.88,0,0,1,.521.144,3.949,3.949,0,0,1,.451.253,2.513,2.513,0,0,1,.414.324,3.736,3.736,0,0,1,.342.414,3.849,3.849,0,0,1,.253.468c.053.161.107.342.144.5a2.813,2.813,0,0,1,.053.54,2.734,2.734,0,0,1-.791,1.908,2.7,2.7,0,0,1-1.908.791" transform="translate(232.544 32.611)" fill="#333"/>
          <path id="Trazado_501698" data-name="Trazado 501698" d="M396.684,57.2a2.7,2.7,0,1,1,2.7,2.7,2.7,2.7,0,0,1-2.7-2.7" transform="translate(237.342 32.611)" fill="#333"/>
          <path id="Trazado_501699" data-name="Trazado 501699" d="M407.4,59.891a2.637,2.637,0,0,1-.521-.054,2.3,2.3,0,0,1-.505-.161,2.414,2.414,0,0,1-1.205-.991,2.849,2.849,0,0,1-.414-.972,2.634,2.634,0,0,1-.054-.521,2.733,2.733,0,0,1,.793-1.926,2.823,2.823,0,0,1,3.815,0,2.719,2.719,0,0,1,0,3.834,2.7,2.7,0,0,1-1.908.791" transform="translate(242.14 32.622)" fill="#333"/>
          <path id="Trazado_501701" data-name="Trazado 501701" d="M430.882,52.223a7.2,7.2,0,0,0-7.2,7.2v60.295A29.548,29.548,0,0,0,453.2,149.233H573.785A29.548,29.548,0,0,0,603.3,119.718V86.959a7.2,7.2,0,1,0-14.4,0v32.759a15.131,15.131,0,0,1-15.114,15.112H453.2a15.129,15.129,0,0,1-15.114-15.112V59.423a7.2,7.2,0,0,0-7.2-7.2" transform="translate(253.495 31.246)" fill="#04425b"/>
          <path id="Trazado_501702" data-name="Trazado 501702" d="M428.524,56.165a.9.9,0,0,0-.9.9V117.36a23.239,23.239,0,0,0,23.214,23.214H571.426A23.24,23.24,0,0,0,594.64,117.36V84.6a.9.9,0,0,0-1.8,0V117.36a21.439,21.439,0,0,1-21.414,21.413H450.838a21.437,21.437,0,0,1-21.414-21.413V57.065a.9.9,0,0,0-.9-.9" transform="translate(255.854 33.604)" fill="#fff"/>
          <g transform="matrix(1, 0, 0, 1, 0, 0)" filter="url(#Trazado_501706)">
            <path id="Trazado_501706-3" data-name="Trazado 501706" d="M8.241,0H131.166a8.241,8.241,0,0,1,8.241,8.241V131.167a8.241,8.241,0,0,1-8.241,8.241H8.242A8.242,8.242,0,0,1,0,131.166V8.241A8.241,8.241,0,0,1,8.241,0Z" transform="translate(20.11 20.1)" fill="#fff"/>
          </g>
          <g transform="matrix(1, 0, 0, 1, 0, 0)" filter="url(#Trazado_501703)">
            <path id="Trazado_501703-2" data-name="Trazado 501703" d="M152.78,24.627V138.82a12.606,12.606,0,0,0,12.608,12.607H279.581a12.607,12.607,0,0,0,12.607-12.607V24.627a12.608,12.608,0,0,0-12.607-12.608H165.388A12.607,12.607,0,0,0,152.78,24.627" transform="translate(91.41 7.19)" fill="#fff"/>
          </g>
          <g transform="matrix(1, 0, 0, 1, 0, 0)" filter="url(#Rectángulo_277788)">
            <rect id="Rectángulo_277788-2" data-name="Rectángulo 277788" width="139.408" height="139.408" rx="7.888" transform="translate(471.6 20.1)" fill="#fff"/>
          </g>
          <g transform="matrix(1, 0, 0, 1, 0, 0)" filter="url(#Trazado_501704)">
            <path id="Trazado_501704-2" data-name="Trazado 501704" d="M436.26,24.627V138.82a12.606,12.606,0,0,0,12.608,12.607H563.061a12.607,12.607,0,0,0,12.608-12.607V24.627a12.608,12.608,0,0,0-12.608-12.608H448.867A12.607,12.607,0,0,0,436.26,24.627" transform="translate(261.02 7.19)" fill="#fff"/>
          </g>
          <path id="Trazado_501705" data-name="Trazado 501705" d="M429.2,53.937a2.711,2.711,0,0,0-1.908,4.626,2.823,2.823,0,0,0,3.815,0,3.573,3.573,0,0,0,.344-.414,3.836,3.836,0,0,0,.251-.468,4.954,4.954,0,0,0,.144-.5,2.7,2.7,0,0,0-2.645-3.24" transform="translate(255.18 32.271)" fill="#fff"/>
          <g id="Grupo_786784" data-name="Grupo 786784" transform="translate(202.475 78.362)">
            <path id="Trazado_501684" data-name="Trazado 501684" d="M127.58,71.921a.917.917,0,0,1-.4-.091.906.906,0,0,1-.5-.809V49.926a.9.9,0,0,1,1.45-.713L141.8,59.761a.9.9,0,0,1,0,1.426L128.13,71.732a.9.9,0,0,1-.55.189m.9-20.163V69.189l11.3-8.716Z" transform="translate(-126.68 -49.028)" fill="#ecd500"/>
            <path id="Polígono_62" data-name="Polígono 62" d="M9.4,0l9.4,12.538H0Z" transform="translate(13.814 1.791) rotate(90)" fill="#ecd500"/>
          </g>
          <g id="Grupo_786785" data-name="Grupo 786785" transform="translate(426.56 77.469)">
            <path id="Trazado_501684-2" data-name="Trazado 501684" d="M127.58,71.921a.917.917,0,0,1-.4-.091.906.906,0,0,1-.5-.809V49.926a.9.9,0,0,1,1.45-.713L141.8,59.761a.9.9,0,0,1,0,1.426L128.13,71.732a.9.9,0,0,1-.55.189m.9-20.163V69.189l11.3-8.716Z" transform="translate(-126.68 -49.028)" fill="#92bc0f"/>
            <path id="Polígono_62-2" data-name="Polígono 62" d="M9.4,0l9.4,12.538H0Z" transform="translate(13.814 1.791) rotate(90)" fill="#92bc0f"/>
          </g>
          <g id="Grupo_786786" data-name="Grupo 786786" transform="translate(657.476 79.261)">
            <path id="Trazado_501684-3" data-name="Trazado 501684" d="M127.58,71.921a.917.917,0,0,1-.4-.091.906.906,0,0,1-.5-.809V49.926a.9.9,0,0,1,1.45-.713L141.8,59.761a.9.9,0,0,1,0,1.426L128.13,71.732a.9.9,0,0,1-.55.189m.9-20.163V69.189l11.3-8.716Z" transform="translate(-126.68 -49.028)" fill="#07adad"/>
            <path id="Polígono_62-3" data-name="Polígono 62" d="M9.4,0l9.4,12.538H0Z" transform="translate(13.814 1.791) rotate(90)" fill="#07adad"/>
          </g>
          <g id="Grupo_868486" data-name="Grupo 868486" transform="translate(861.76 79.262)">
            <path id="Trazado_591691" data-name="Trazado 591691" d="M396.684,57.2a2.7,2.7,0,1,1,2.7,2.7,2.7,2.7,0,0,1-2.7-2.7" transform="translate(-396.684 -46.651)" fill="#333"/>
            <path id="Trazado_591690" data-name="Trazado 591690" d="M407.4,59.891a2.637,2.637,0,0,1-.521-.054,2.3,2.3,0,0,1-.505-.161,2.414,2.414,0,0,1-1.205-.991,2.849,2.849,0,0,1-.414-.972,2.634,2.634,0,0,1-.054-.521,2.733,2.733,0,0,1,.793-1.926,2.823,2.823,0,0,1,3.815,0,2.719,2.719,0,0,1,0,3.834,2.7,2.7,0,0,1-1.908.791" transform="translate(-391.886 -46.639)" fill="#333"/>
            <g id="Grupo_868485" data-name="Grupo 868485" transform="translate(23.45)">
              <path id="Trazado_501684-4" data-name="Trazado 501684" d="M127.58,71.921a.917.917,0,0,1-.4-.091.906.906,0,0,1-.5-.809V49.926a.9.9,0,0,1,1.45-.713L141.8,59.761a.9.9,0,0,1,0,1.426L128.13,71.732a.9.9,0,0,1-.55.189m.9-20.163V69.189l11.3-8.716Z" transform="translate(-126.68 -49.028)" fill="#034059"/>
              <path id="Polígono_62-4" data-name="Polígono 62" d="M9.4,0l9.4,12.538H0Z" transform="translate(13.814 1.791) rotate(90)" fill="#034059"/>
            </g>
          </g>
          <g id="Grupo_868484" data-name="Grupo 868484" transform="translate(910.083 4.014)">
            <path id="Trazado_501677-2" data-name="Trazado 501677" d="M7.2,97.008a7.2,7.2,0,0,1-7.2-7.2V29.513A29.547,29.547,0,0,1,29.514,0H150.1a29.547,29.547,0,0,1,29.514,29.513V62.272a7.2,7.2,0,1,1-14.4,0V29.513A15.131,15.131,0,0,0,150.1,14.4H29.514A15.13,15.13,0,0,0,14.4,29.513V89.808a7.2,7.2,0,0,1-7.2,7.2" transform="translate(0)" fill="#efd800"/>
            <path id="Trazado_501678-2" data-name="Trazado 501678" d="M4.842,88.35a.9.9,0,0,1-.9-.9V27.155A23.239,23.239,0,0,1,27.156,3.941H147.744a23.24,23.24,0,0,1,23.214,23.214V59.912a.9.9,0,1,1-1.8,0V27.155A21.439,21.439,0,0,0,147.744,5.742H27.156A21.437,21.437,0,0,0,5.742,27.155V87.45a.9.9,0,0,1-.9.9" transform="translate(2.358 2.358)" fill="#333"/>
            <path id="Trazado_501679-2" data-name="Trazado 501679" d="M5.515,59.891a2.711,2.711,0,0,1-1.908-4.626,2.823,2.823,0,0,1,3.815,0,3.749,3.749,0,0,1,.344.414,3.836,3.836,0,0,1,.251.468,4.959,4.959,0,0,1,.144.5,2.693,2.693,0,0,1,.054.54A2.729,2.729,0,0,1,7.421,59.1a2.7,2.7,0,0,1-1.907.791" transform="translate(1.684 32.622)" fill="#333"/>
            <path id="Trazado_501680-2" data-name="Trazado 501680" d="M144.43,135.8a2.7,2.7,0,1,1,2.7,2.7,2.714,2.714,0,0,1-2.7-2.7m-10.728,0a2.7,2.7,0,1,1,2.7,2.7,2.713,2.713,0,0,1-2.7-2.7m-10.729,0a2.7,2.7,0,1,1,2.7,2.7,2.714,2.714,0,0,1-2.7-2.7m-10.747,0a2.7,2.7,0,1,1,2.7,2.7,2.725,2.725,0,0,1-2.7-2.7m-10.728,0a2.7,2.7,0,1,1,2.7,2.7,2.713,2.713,0,0,1-2.7-2.7m-10.729,0a2.7,2.7,0,1,1,2.7,2.7,2.714,2.714,0,0,1-2.7-2.7m-10.728,0a2.7,2.7,0,1,1,2.7,2.7,2.713,2.713,0,0,1-2.7-2.7m-10.729,0a2.691,2.691,0,1,1,2.7,2.7,2.7,2.7,0,0,1-2.7-2.7m-10.747,0a2.7,2.7,0,1,1,2.7,2.7,2.714,2.714,0,0,1-2.7-2.7m-10.728,0a2.7,2.7,0,1,1,2.7,2.7,2.713,2.713,0,0,1-2.7-2.7m-10.729,0a2.7,2.7,0,1,1,2.7,2.7,2.714,2.714,0,0,1-2.7-2.7m-10.747,0a2.7,2.7,0,1,1,2.7,2.7,2.726,2.726,0,0,1-2.7-2.7m128.763-.865a2.7,2.7,0,1,1,4.915-2.214,2.671,2.671,0,0,1-1.351,3.563h.018a2.672,2.672,0,0,1-3.582-1.349M17.5,136.263a2.673,2.673,0,1,1,1.116.253,2.718,2.718,0,0,1-1.116-.253m146.781-6.876a2.7,2.7,0,1,1,3.8-.451v.018a2.745,2.745,0,0,1-2.124,1.026,2.656,2.656,0,0,1-1.675-.593M8.144,128.9a2.7,2.7,0,1,1,3.8.468,2.823,2.823,0,0,1-1.675.577A2.657,2.657,0,0,1,8.144,128.9m161.7-8.66a2.691,2.691,0,1,1,.991-5.29,2.695,2.695,0,0,1-.486,5.345,2.5,2.5,0,0,1-.505-.054M3.229,118.047a2.7,2.7,0,1,1,3.15,2.159,2.3,2.3,0,0,1-.486.053,2.729,2.729,0,0,1-2.664-2.212m164.8-11.163a2.7,2.7,0,1,1,2.7,2.7,2.7,2.7,0,0,1-2.7-2.7M2.815,106.849a2.7,2.7,0,1,1,2.7,2.7,2.7,2.7,0,0,1-2.7-2.7M168.03,96.156a2.7,2.7,0,1,1,2.7,2.7,2.7,2.7,0,0,1-2.7-2.7M2.815,96.1a2.7,2.7,0,1,1,2.7,2.7,2.71,2.71,0,0,1-2.7-2.7M168.03,85.427a2.7,2.7,0,1,1,2.7,2.7,2.7,2.7,0,0,1-2.7-2.7M2.815,85.372a2.7,2.7,0,1,1,2.7,2.7,2.7,2.7,0,0,1-2.7-2.7M168.03,74.681a2.7,2.7,0,1,1,2.7,2.717,2.708,2.708,0,0,1-2.7-2.717M2.815,74.644a2.7,2.7,0,1,1,2.7,2.7,2.7,2.7,0,0,1-2.7-2.7M168.03,63.952a2.7,2.7,0,1,1,2.7,2.7,2.709,2.709,0,0,1-2.7-2.7M2.815,63.917a2.7,2.7,0,1,1,2.7,2.7,2.7,2.7,0,0,1-2.7-2.7" transform="translate(1.684 36.627)" fill="#333"/>
            <path id="Trazado_501681-2" data-name="Trazado 501681" d="M108.884,59.9a2.4,2.4,0,0,1-.523-.054,2.316,2.316,0,0,1-.5-.161,2.283,2.283,0,0,1-.468-.253,2.316,2.316,0,0,1-.414-.323,2.734,2.734,0,0,1-.791-1.908,2.489,2.489,0,0,1,.216-1.044,2.209,2.209,0,0,1,.233-.468,3.736,3.736,0,0,1,.342-.414,2.752,2.752,0,0,1,2.431-.721,2.88,2.88,0,0,1,.521.144,3.82,3.82,0,0,1,.451.253,2.512,2.512,0,0,1,.414.324,3.733,3.733,0,0,1,.342.414,3.844,3.844,0,0,1,.253.468c.053.161.107.342.144.5a2.813,2.813,0,0,1,.053.54,2.734,2.734,0,0,1-.791,1.908,2.7,2.7,0,0,1-1.908.791" transform="translate(63.531 32.611)" fill="#333"/>
            <g transform="matrix(1, 0, 0, 1, -910.08, -4.01)" filter="url(#Trazado_501706-2)">
              <path id="Trazado_501706-4" data-name="Trazado 501706" d="M8.241,0H131.166a8.241,8.241,0,0,1,8.241,8.241V131.167a8.241,8.241,0,0,1-8.241,8.241H8.242A8.242,8.242,0,0,1,0,131.166V8.241A8.241,8.241,0,0,1,8.241,0Z" transform="translate(930.19 24.12)" fill="#fff"/>
            </g>
            <text id="Fiestas_o_eventos_culturales_autóctonos._" data-name="Fiestas o eventos culturales autóctonos.
" transform="translate(26.167 56.79)" fill="#12263f" font-size="16" font-family="Roboto-Regular, Roboto"><tspan x="3.027" y="17">Fiestas o eventos </tspan><tspan x="30.535" y="41">culturales </tspan><tspan x="22.875" y="65">autóctonos.</tspan></text>
          </g>
        </g>
      </g>
      <text id="Productos_locales_comidas_artesanías_etc._._" data-name="Productos locales (comidas, artesanías, etc.).
" transform="translate(25.077 53.668)" fill="#12263f" font-size="16" font-family="Roboto-Regular, Roboto"><tspan x="1.406" y="17">Productos locales </tspan><tspan x="30.308" y="41">(comidas, </tspan><tspan x="6.273" y="65">artesanías, etc.).</tspan></text>
      <text id="Ofertas_de_turismo_diferentes." data-name="Ofertas de turismo diferentes." transform="translate(249.257 54.19)" fill="#12263f" font-size="16" font-family="Roboto-Regular, Roboto"><tspan x="28.066" y="17">Ofertas de </tspan><tspan x="37.933" y="41">turismo </tspan><tspan x="27.394" y="65">diferentes.</tspan></text>
      <text id="Historia_local_de_los_pueblos_originarios_que_habitan_o_habitaban_la_zona._" data-name="Historia local de los pueblos originarios que habitan o habitaban la zona.
" transform="translate(473.416 27.163)" fill="#12263f" font-size="16" font-family="Roboto-Regular, Roboto"><tspan x="10.354" y="17">Historia local de </tspan><tspan x="27.053" y="41">los pueblos </tspan><tspan x="14.999" y="65">originarios que </tspan><tspan x="34.807" y="89">habitan o </tspan><tspan x="2.921" y="113">habitaban la zona.</tspan></text>
      <text id="Características_principales_de_los_atractivos_naturales_culturales_y_científicos._" data-name="Características principales de los atractivos naturales, culturales y científicos.
" transform="translate(702.288 20.185)" fill="#12263f" font-size="16" font-family="Roboto-Regular, Roboto"><tspan x="11.777" y="17">Características </tspan><tspan x="3.14" y="40">principales de los </tspan><tspan x="30.191" y="63">atractivos </tspan><tspan x="30.738" y="86">naturales, </tspan><tspan x="24.769" y="109">culturales y </tspan><tspan x="26.523" y="132">científicos.</tspan></text>
    </g>
  </g>
</svg>
