<svg xmlns="http://www.w3.org/2000/svg" xmlns:xlink="http://www.w3.org/1999/xlink" width="820" height="172.727" viewBox="0 0 820 172.727">
  <defs>
    <clipPath id="clip-path">
      <rect id="Rectángulo_277789" data-name="Rectángulo 277789" width="820" height="172.727" fill="none"/>
    </clipPath>
    <filter id="Trazado_501706" x="-7.758" y="-4.76" width="187.42" height="187.421" filterUnits="userSpaceOnUse">
      <feOffset dy="3" input="SourceAlpha"/>
      <feGaussianBlur stdDeviation="9" result="blur"/>
      <feFlood flood-opacity="0.161"/>
      <feComposite operator="in" in2="blur"/>
      <feComposite in="SourceGraphic"/>
    </filter>
    <filter id="Trazado_501703" x="206.704" y="-5.615" width="187.421" height="187.421" filterUnits="userSpaceOnUse">
      <feOffset dy="3" input="SourceAlpha"/>
      <feGaussianBlur stdDeviation="9" result="blur-2"/>
      <feFlood flood-opacity="0.161"/>
      <feComposite operator="in" in2="blur-2"/>
      <feComposite in="SourceGraphic"/>
    </filter>
    <filter id="Rectángulo_277788" x="424.346" y="-4.76" width="187.422" height="187.421" filterUnits="userSpaceOnUse">
      <feOffset dy="3" input="SourceAlpha"/>
      <feGaussianBlur stdDeviation="9" result="blur-3"/>
      <feFlood flood-opacity="0.161"/>
      <feComposite operator="in" in2="blur-3"/>
      <feComposite in="SourceGraphic"/>
    </filter>
    <filter id="Trazado_501704" x="640.337" y="-5.615" width="187.422" height="187.421" filterUnits="userSpaceOnUse">
      <feOffset dy="3" input="SourceAlpha"/>
      <feGaussianBlur stdDeviation="9" result="blur-4"/>
      <feFlood flood-opacity="0.161"/>
      <feComposite operator="in" in2="blur-4"/>
      <feComposite in="SourceGraphic"/>
    </filter>
  </defs>
  <g id="Grupo_868436" data-name="Grupo 868436" transform="translate(-230.5 -11388.289)">
    <g id="Grupo_786782" data-name="Grupo 786782" transform="translate(-159 -3637)">
      <g id="Grupo_736622" data-name="Grupo 736622" transform="translate(389.5 15025.289)">
        <g id="Grupo_736621" data-name="Grupo 736621" transform="translate(0 0)" clip-path="url(#clip-path)">
          <path id="Trazado_501648" data-name="Trazado 501648" d="M429.081,34.9a2.584,2.584,0,1,0,2.584,2.584,2.58,2.58,0,0,0-2.584-2.584" transform="translate(225.906 18.484)" fill="#333"/>
          <path id="Trazado_501649" data-name="Trazado 501649" d="M429.081,28.184a2.584,2.584,0,1,0,2.584,2.584,2.58,2.58,0,0,0-2.584-2.584" transform="translate(225.906 14.928)" fill="#333"/>
          <path id="Trazado_501650" data-name="Trazado 501650" d="M429.081,41.609a2.584,2.584,0,1,0,2.584,2.584,2.58,2.58,0,0,0-2.584-2.584" transform="translate(225.906 22.039)" fill="#333"/>
          <path id="Trazado_501651" data-name="Trazado 501651" d="M429.081,48.322a2.584,2.584,0,1,0,2.584,2.584,2.58,2.58,0,0,0-2.584-2.584" transform="translate(225.906 25.595)" fill="#333"/>
          <path id="Trazado_501652" data-name="Trazado 501652" d="M429.081,21.46a2.584,2.584,0,1,0,2.584,2.584,2.58,2.58,0,0,0-2.584-2.584" transform="translate(225.906 11.367)" fill="#333"/>
          <path id="Trazado_501653" data-name="Trazado 501653" d="M433.657,9.251a2.7,2.7,0,0,0-1.6-.552,2.543,2.543,0,0,0-2.031,1,2.583,2.583,0,1,0,3.635-.448" transform="translate(227.48 4.608)" fill="#333"/>
          <path id="Trazado_501654" data-name="Trazado 501654" d="M429.786,14.81a2.2,2.2,0,0,0-.465-.05,2.619,2.619,0,1,0,.465.05" transform="translate(226.028 7.818)" fill="#333"/>
          <path id="Trazado_501655" data-name="Trazado 501655" d="M532.45,41.575a2.593,2.593,0,1,0,2.584,2.6,2.595,2.595,0,0,0-2.584-2.6" transform="translate(280.658 22.021)" fill="#333"/>
          <path id="Trazado_501656" data-name="Trazado 501656" d="M531.067,13.294a2.575,2.575,0,0,0,.43-3.618V9.659a2.629,2.629,0,0,0-2.031-.982,2.532,2.532,0,0,0-1.6.569,2.581,2.581,0,1,0,3.2,4.048" transform="translate(279.076 4.596)" fill="#333"/>
          <path id="Trazado_501657" data-name="Trazado 501657" d="M532.45,34.863a2.584,2.584,0,1,0,2.584,2.584,2.58,2.58,0,0,0-2.584-2.584" transform="translate(280.658 18.466)" fill="#333"/>
          <path id="Trazado_501658" data-name="Trazado 501658" d="M532.45,48.3a2.584,2.584,0,1,0,2.584,2.585A2.581,2.581,0,0,0,532.45,48.3" transform="translate(280.658 25.583)" fill="#333"/>
          <path id="Trazado_501659" data-name="Trazado 501659" d="M532.45,28.15a2.584,2.584,0,1,0,2.584,2.584,2.58,2.58,0,0,0-2.584-2.584" transform="translate(280.658 14.91)" fill="#333"/>
          <path id="Trazado_501660" data-name="Trazado 501660" d="M437.281,4.589a2.589,2.589,0,1,0,1.068,4.944,2.588,2.588,0,0,0-1.068-4.944" transform="translate(230.247 2.431)" fill="#333"/>
          <path id="Trazado_501661" data-name="Trazado 501661" d="M529.666,17.8a2.586,2.586,0,1,0,2.55-3.067,2.389,2.389,0,0,0-.483.052,2.586,2.586,0,0,0-2.067,3.015" transform="translate(280.529 7.805)" fill="#333"/>
          <path id="Trazado_501662" data-name="Trazado 501662" d="M532.45,21.438a2.584,2.584,0,1,0,2.584,2.584,2.58,2.58,0,0,0-2.584-2.584" transform="translate(280.658 11.355)" fill="#333"/>
          <path id="Trazado_501663" data-name="Trazado 501663" d="M504.26,3.349a2.594,2.594,0,1,0,2.582,2.584,2.592,2.592,0,0,0-2.582-2.584" transform="translate(265.726 1.774)" fill="#333"/>
          <path id="Trazado_501664" data-name="Trazado 501664" d="M497.535,3.349a2.594,2.594,0,1,0,2.584,2.584,2.6,2.6,0,0,0-2.584-2.584" transform="translate(262.164 1.774)" fill="#333"/>
          <path id="Trazado_501665" data-name="Trazado 501665" d="M510.972,3.349a2.594,2.594,0,1,0,2.584,2.584,2.592,2.592,0,0,0-2.584-2.584" transform="translate(269.281 1.774)" fill="#333"/>
          <path id="Trazado_501666" data-name="Trazado 501666" d="M525.28,4.818h.017a2.582,2.582,0,1,0-2.135,4.7,2.579,2.579,0,1,0,2.119-4.7" transform="translate(276.301 2.425)" fill="#333"/>
          <path id="Trazado_501667" data-name="Trazado 501667" d="M443.813,3.349A2.594,2.594,0,1,0,446.4,5.933a2.605,2.605,0,0,0-2.584-2.584" transform="translate(233.708 1.774)" fill="#333"/>
          <path id="Trazado_501668" data-name="Trazado 501668" d="M517.684,3.349a2.594,2.594,0,1,0,2.584,2.584,2.592,2.592,0,0,0-2.584-2.584" transform="translate(272.836 1.774)" fill="#333"/>
          <path id="Trazado_501669" data-name="Trazado 501669" d="M490.823,3.349a2.594,2.594,0,1,0,2.584,2.584,2.592,2.592,0,0,0-2.584-2.584" transform="translate(258.609 1.774)" fill="#333"/>
          <path id="Trazado_501670" data-name="Trazado 501670" d="M457.249,3.349a2.594,2.594,0,1,0,2.584,2.584,2.592,2.592,0,0,0-2.584-2.584" transform="translate(240.826 1.774)" fill="#333"/>
          <path id="Trazado_501671" data-name="Trazado 501671" d="M484.111,3.349a2.594,2.594,0,1,0,2.584,2.584,2.592,2.592,0,0,0-2.584-2.584" transform="translate(255.053 1.774)" fill="#333"/>
          <path id="Trazado_501672" data-name="Trazado 501672" d="M463.961,3.349a2.594,2.594,0,1,0,2.584,2.584,2.592,2.592,0,0,0-2.584-2.584" transform="translate(244.381 1.774)" fill="#333"/>
          <path id="Trazado_501673" data-name="Trazado 501673" d="M450.537,3.349a2.594,2.594,0,1,0,2.584,2.584,2.592,2.592,0,0,0-2.584-2.584" transform="translate(237.27 1.774)" fill="#333"/>
          <path id="Trazado_501674" data-name="Trazado 501674" d="M477.4,3.349a2.594,2.594,0,1,0,2.584,2.584A2.592,2.592,0,0,0,477.4,3.349" transform="translate(251.498 1.774)" fill="#333"/>
          <path id="Trazado_501675" data-name="Trazado 501675" d="M470.685,3.349a2.594,2.594,0,1,0,2.567,2.584,2.581,2.581,0,0,0-2.567-2.584" transform="translate(247.942 1.774)" fill="#333"/>
          <path id="Trazado_501676" data-name="Trazado 501676" d="M532.45,55.034a2.3,2.3,0,0,0-.5.052,2.924,2.924,0,0,0-1.326.705,2.616,2.616,0,0,0-.757,1.826,2.38,2.38,0,0,0,.206,1,2.121,2.121,0,0,0,.223.448,3.445,3.445,0,0,0,.327.4,2.629,2.629,0,0,0,2.327.69,2.757,2.757,0,0,0,.5-.138,3.443,3.443,0,0,0,.431-.242,2.4,2.4,0,0,0,.4-.311,3.431,3.431,0,0,0,.327-.4,3.676,3.676,0,0,0,.242-.448c.051-.154.1-.327.138-.482a2.694,2.694,0,0,0,.05-.517,2.616,2.616,0,0,0-.757-1.826,2.587,2.587,0,0,0-1.826-.757" transform="translate(280.658 29.15)" fill="#333"/>
          <path id="Trazado_501677" data-name="Trazado 501677" d="M6.891,92.842A6.891,6.891,0,0,1,0,85.951V28.245A28.278,28.278,0,0,1,28.247,0h115.41A28.278,28.278,0,0,1,171.9,28.245V59.6a6.891,6.891,0,1,1-13.782,0V28.245a14.481,14.481,0,0,0-14.465-14.463H28.247A14.48,14.48,0,0,0,13.782,28.245V85.951a6.891,6.891,0,0,1-6.891,6.891" transform="translate(0 0)" fill="#efd800"/>
          <path id="Trazado_501678" data-name="Trazado 501678" d="M4.8,84.725a.861.861,0,0,1-.861-.861V26.158A22.241,22.241,0,0,1,26.159,3.941h115.41a22.242,22.242,0,0,1,22.217,22.217V57.509a.861.861,0,1,1-1.722,0V26.158A20.518,20.518,0,0,0,141.569,5.665H26.159A20.517,20.517,0,0,0,5.664,26.158V83.864a.861.861,0,0,1-.861.861" transform="translate(2.088 2.087)" fill="#333"/>
          <path id="Trazado_501679" data-name="Trazado 501679" d="M5.4,59.661a2.595,2.595,0,0,1-1.826-4.427,2.7,2.7,0,0,1,3.651,0,3.587,3.587,0,0,1,.329.4,3.672,3.672,0,0,1,.24.448,4.746,4.746,0,0,1,.138.482,2.578,2.578,0,0,1,.052.517A2.611,2.611,0,0,1,7.224,58.9a2.581,2.581,0,0,1-1.825.757" transform="translate(1.491 28.88)" fill="#333"/>
          <path id="Trazado_501680" data-name="Trazado 501680" d="M138.349,132.593a2.584,2.584,0,1,1,2.584,2.584,2.6,2.6,0,0,1-2.584-2.584m-10.267,0a2.584,2.584,0,1,1,2.584,2.584,2.6,2.6,0,0,1-2.584-2.584m-10.269,0a2.584,2.584,0,1,1,2.584,2.584,2.6,2.6,0,0,1-2.584-2.584m-10.286,0a2.584,2.584,0,1,1,2.584,2.584,2.608,2.608,0,0,1-2.584-2.584m-10.267,0a2.584,2.584,0,1,1,2.584,2.584,2.6,2.6,0,0,1-2.584-2.584m-10.269,0a2.584,2.584,0,1,1,2.584,2.584,2.6,2.6,0,0,1-2.584-2.584m-10.267,0a2.584,2.584,0,1,1,2.584,2.584,2.6,2.6,0,0,1-2.584-2.584m-10.269,0a2.575,2.575,0,1,1,2.585,2.584,2.586,2.586,0,0,1-2.585-2.584m-10.286,0a2.584,2.584,0,1,1,2.584,2.584,2.6,2.6,0,0,1-2.584-2.584m-10.267,0a2.584,2.584,0,1,1,2.584,2.584,2.6,2.6,0,0,1-2.584-2.584m-10.269,0a2.584,2.584,0,1,1,2.585,2.584,2.6,2.6,0,0,1-2.585-2.584m-10.286,0a2.584,2.584,0,1,1,2.585,2.584,2.609,2.609,0,0,1-2.585-2.584m123.234-.828a2.579,2.579,0,1,1,4.7-2.119,2.556,2.556,0,0,1-1.293,3.41h.017a2.557,2.557,0,0,1-3.428-1.291M16.873,133.04a2.559,2.559,0,1,1,1.068.242,2.6,2.6,0,0,1-1.068-.242m140.478-6.581a2.581,2.581,0,1,1,3.636-.431v.017a2.627,2.627,0,0,1-2.033.982,2.542,2.542,0,0,1-1.6-.568M7.915,125.994a2.583,2.583,0,1,1,3.635.448,2.7,2.7,0,0,1-1.6.552,2.543,2.543,0,0,1-2.031-1m154.759-8.288a2.576,2.576,0,1,1,.948-5.063,2.579,2.579,0,0,1-.465,5.115,2.391,2.391,0,0,1-.483-.052m-159.463-2.1a2.585,2.585,0,1,1,3.015,2.067,2.2,2.2,0,0,1-.465.05,2.611,2.611,0,0,1-2.55-2.117m157.723-10.683a2.584,2.584,0,1,1,2.585,2.585,2.582,2.582,0,0,1-2.585-2.585m-158.12-.034A2.584,2.584,0,1,1,5.4,107.474a2.581,2.581,0,0,1-2.584-2.585m158.12-10.234a2.584,2.584,0,1,1,2.585,2.584,2.581,2.581,0,0,1-2.585-2.584M2.815,94.6A2.584,2.584,0,1,1,5.4,97.187,2.593,2.593,0,0,1,2.815,94.6m158.12-10.217a2.584,2.584,0,1,1,2.585,2.585,2.582,2.582,0,0,1-2.585-2.585M2.815,84.335A2.584,2.584,0,1,1,5.4,86.92a2.581,2.581,0,0,1-2.584-2.585M160.935,74.1a2.584,2.584,0,1,1,2.585,2.6,2.591,2.591,0,0,1-2.585-2.6M2.815,74.068A2.584,2.584,0,1,1,5.4,76.651a2.58,2.58,0,0,1-2.584-2.584m158.12-10.234a2.584,2.584,0,1,1,2.585,2.585,2.592,2.592,0,0,1-2.585-2.585M2.815,63.8A2.584,2.584,0,1,1,5.4,66.384,2.58,2.58,0,0,1,2.815,63.8" transform="translate(1.491 32.425)" fill="#333"/>
          <path id="Trazado_501681" data-name="Trazado 501681" d="M108.768,59.671a2.3,2.3,0,0,1-.5-.052,2.216,2.216,0,0,1-.482-.154,2.185,2.185,0,0,1-.448-.242,2.216,2.216,0,0,1-.4-.309,2.617,2.617,0,0,1-.757-1.826,2.381,2.381,0,0,1,.207-1,2.114,2.114,0,0,1,.223-.448,3.576,3.576,0,0,1,.327-.4,2.633,2.633,0,0,1,2.327-.69,2.756,2.756,0,0,1,.5.138,3.655,3.655,0,0,1,.431.242,2.4,2.4,0,0,1,.4.311,3.573,3.573,0,0,1,.327.4,3.679,3.679,0,0,1,.242.448c.05.154.1.327.138.482a2.693,2.693,0,0,1,.05.517,2.617,2.617,0,0,1-.757,1.826,2.587,2.587,0,0,1-1.826.757" transform="translate(56.243 28.87)" fill="#333"/>
          <path id="Trazado_501682" data-name="Trazado 501682" d="M114.2,57.088a2.584,2.584,0,1,1,2.584,2.584,2.58,2.58,0,0,1-2.584-2.584" transform="translate(60.49 28.869)" fill="#333"/>
          <path id="Trazado_501683" data-name="Trazado 501683" d="M124.8,59.661a2.524,2.524,0,0,1-.5-.052,2.229,2.229,0,0,1-.483-.154,2.31,2.31,0,0,1-1.153-.948,2.724,2.724,0,0,1-.4-.93,2.525,2.525,0,0,1-.052-.5,2.616,2.616,0,0,1,.759-1.843,2.7,2.7,0,0,1,3.651,0,2.6,2.6,0,0,1,0,3.67,2.581,2.581,0,0,1-1.826.757" transform="translate(64.738 28.88)" fill="#333"/>
          <path id="Trazado_501685" data-name="Trazado 501685" d="M147.092,51.125a6.891,6.891,0,0,0-6.891,6.891v57.706a28.279,28.279,0,0,0,28.247,28.247h115.41A28.279,28.279,0,0,0,312.1,115.722V84.369a6.891,6.891,0,1,0-13.782,0v31.352a14.481,14.481,0,0,1-14.465,14.463H168.448a14.48,14.48,0,0,1-14.465-14.463V58.016a6.891,6.891,0,0,0-6.891-6.891" transform="translate(74.261 27.08)" fill="#94bf10"/>
          <path id="Trazado_501686" data-name="Trazado 501686" d="M145,55.067a.861.861,0,0,0-.861.861v57.706a22.241,22.241,0,0,0,22.217,22.217H281.77a22.242,22.242,0,0,0,22.217-22.217V82.281a.861.861,0,1,0-1.722,0v31.352a20.518,20.518,0,0,1-20.495,20.493H166.36a20.517,20.517,0,0,1-20.495-20.493V55.928a.861.861,0,0,0-.861-.861" transform="translate(76.349 29.168)" fill="#333"/>
          <path id="Trazado_501687" data-name="Trazado 501687" d="M145.6,53.937a2.595,2.595,0,0,0-1.826,4.427,2.7,2.7,0,0,0,3.651,0,3.418,3.418,0,0,0,.329-.4,3.67,3.67,0,0,0,.24-.448,4.745,4.745,0,0,0,.138-.482,2.587,2.587,0,0,0-2.532-3.1" transform="translate(75.753 28.569)" fill="#333"/>
          <path id="Trazado_501688" data-name="Trazado 501688" d="M281.135,2.253h0a2.593,2.593,0,1,1-2.584,2.584,2.591,2.591,0,0,1,2.584-2.584m-10.267,0h0a2.593,2.593,0,1,1-2.585,2.584,2.592,2.592,0,0,1,2.585-2.584m-10.269,0h0a2.593,2.593,0,1,1-2.584,2.584A2.6,2.6,0,0,1,260.6,2.253m-10.286,0h0a2.593,2.593,0,1,1-2.584,2.584,2.591,2.591,0,0,1,2.584-2.584m-10.267,0h0a2.593,2.593,0,1,1-2.585,2.584,2.592,2.592,0,0,1,2.585-2.584m-10.269,0h0a2.593,2.593,0,1,1-2.584,2.584,2.591,2.591,0,0,1,2.584-2.584m-10.267,0h0a2.593,2.593,0,1,1-2.585,2.584,2.592,2.592,0,0,1,2.585-2.584m-10.269,0h0a2.593,2.593,0,1,1-2.584,2.584,2.589,2.589,0,0,1,2.584-2.584m-10.286,0h0a2.593,2.593,0,1,1-2.584,2.584,2.592,2.592,0,0,1,2.584-2.584m-10.267,0h0A2.593,2.593,0,1,1,186.1,4.837a2.592,2.592,0,0,1,2.585-2.584m-10.269,0h0a2.593,2.593,0,1,1-2.584,2.584,2.592,2.592,0,0,1,2.584-2.584m-10.286,0h0a2.593,2.593,0,1,1-2.584,2.584,2.592,2.592,0,0,1,2.584-2.584m123.01,1.878h0a2.614,2.614,0,0,1,1.068.24H292.2a2.58,2.58,0,0,1-2.12,4.7,2.588,2.588,0,0,1,1.069-4.944m-133,.017h0a2.611,2.611,0,1,1-1.068.24,2.59,2.59,0,0,1,1.068-.24M299.156,10.4h0a2.626,2.626,0,0,1,2.031.984V11.4a2.582,2.582,0,1,1-3.635-.431,2.541,2.541,0,0,1,1.6-.569m-149.007.034h0a2.7,2.7,0,0,1,1.6.552,2.589,2.589,0,1,1-3.636.448,2.548,2.548,0,0,1,2.033-1m153.211,9.236h0a2.625,2.625,0,1,1-.483.052,2.39,2.39,0,0,1,.483-.052m-157.4.035h0a2.2,2.2,0,0,1,.467.05,2.545,2.545,0,1,1-.467-.05M303.72,29.922h0a2.584,2.584,0,1,1-2.584,2.584,2.581,2.581,0,0,1,2.584-2.584m-158.12.034h0a2.584,2.584,0,1,1-2.584,2.584,2.581,2.581,0,0,1,2.584-2.584M303.72,40.189h0a2.584,2.584,0,1,1-2.584,2.585,2.582,2.582,0,0,1,2.584-2.585m-158.12.054h0a2.584,2.584,0,1,1-2.584,2.584,2.58,2.58,0,0,1,2.584-2.584M303.72,50.458h0a2.584,2.584,0,1,1-2.584,2.584,2.581,2.581,0,0,1,2.584-2.584M145.6,50.51h0a2.584,2.584,0,1,1-2.584,2.584A2.58,2.58,0,0,1,145.6,50.51M303.72,60.725h0a2.593,2.593,0,1,1-2.584,2.6,2.6,2.6,0,0,1,2.584-2.6m-158.12.054h0a2.584,2.584,0,1,1-2.584,2.584,2.58,2.58,0,0,1,2.584-2.584M303.72,71.01h0a2.584,2.584,0,1,1-2.584,2.585,2.581,2.581,0,0,1,2.584-2.585m-158.12.035h0a2.584,2.584,0,1,1-2.584,2.584,2.581,2.581,0,0,1,2.584-2.584" transform="translate(75.753 1.193)" fill="#333"/>
          <path id="Trazado_501689" data-name="Trazado 501689" d="M248.969,53.937a2.4,2.4,0,0,0-.5.05,2.9,2.9,0,0,0-1.326.707,2.617,2.617,0,0,0-.757,1.826,2.7,2.7,0,0,0,.05.517,2.677,2.677,0,0,0,.156.482,2.114,2.114,0,0,0,.223.448,3.753,3.753,0,0,0,.327.4,2.633,2.633,0,0,0,2.327.69,2.757,2.757,0,0,0,.5-.138,3.659,3.659,0,0,0,.431-.242,2.488,2.488,0,0,0,.4-.311,3.571,3.571,0,0,0,.327-.4,3.679,3.679,0,0,0,.242-.448c.05-.154.1-.327.138-.482a2.7,2.7,0,0,0,.05-.517,2.617,2.617,0,0,0-.757-1.826,2.587,2.587,0,0,0-1.826-.757" transform="translate(130.504 28.569)" fill="#333"/>
          <path id="Trazado_501690" data-name="Trazado 501690" d="M254.4,56.522a2.584,2.584,0,1,0,2.582-2.584,2.58,2.58,0,0,0-2.582,2.584" transform="translate(134.752 28.57)" fill="#333"/>
          <path id="Trazado_501691" data-name="Trazado 501691" d="M265.007,53.937a2.641,2.641,0,0,0-.5.05,2.805,2.805,0,0,0-.93.4,2.078,2.078,0,0,0-.707.708,2.3,2.3,0,0,0-.242.447,2.229,2.229,0,0,0-.155.483,2.578,2.578,0,0,0,.707,2.342,2.7,2.7,0,0,0,3.651,0,2.6,2.6,0,0,0,0-3.67,2.575,2.575,0,0,0-1.825-.757" transform="translate(138.999 28.569)" fill="#333"/>
          <path id="Trazado_501693" data-name="Trazado 501693" d="M289.373,92.842a6.891,6.891,0,0,1-6.891-6.891V28.245A28.278,28.278,0,0,1,310.729,0H426.138a28.278,28.278,0,0,1,28.247,28.245V59.6a6.891,6.891,0,1,1-13.782,0V28.245a14.481,14.481,0,0,0-14.465-14.463H310.729a14.48,14.48,0,0,0-14.465,14.463V85.951a6.891,6.891,0,0,1-6.891,6.891" transform="translate(149.624 0)" fill="#08afaf"/>
          <path id="Trazado_501694" data-name="Trazado 501694" d="M287.285,84.725a.861.861,0,0,1-.861-.861V26.158A22.241,22.241,0,0,1,308.641,3.941H424.05a22.242,22.242,0,0,1,22.217,22.217V57.509a.861.861,0,1,1-1.722,0V26.158A20.518,20.518,0,0,0,424.05,5.665H308.641a20.517,20.517,0,0,0-20.495,20.493V83.864a.861.861,0,0,1-.861.861" transform="translate(151.712 2.087)" fill="#333"/>
          <path id="Trazado_501695" data-name="Trazado 501695" d="M287.881,59.661a2.595,2.595,0,0,1-1.826-4.427,2.7,2.7,0,0,1,3.651,0,3.429,3.429,0,0,1,.329.4,3.673,3.673,0,0,1,.24.448,4.758,4.758,0,0,1,.138.482,2.575,2.575,0,0,1,.052.517,2.612,2.612,0,0,1-.759,1.826,2.581,2.581,0,0,1-1.825.757" transform="translate(151.115 28.88)" fill="#333"/>
          <path id="Trazado_501696" data-name="Trazado 501696" d="M420.831,132.593a2.584,2.584,0,1,1,2.584,2.584,2.6,2.6,0,0,1-2.584-2.584m-10.267,0a2.584,2.584,0,1,1,2.584,2.584,2.6,2.6,0,0,1-2.584-2.584m-10.269,0a2.584,2.584,0,1,1,2.584,2.584,2.6,2.6,0,0,1-2.584-2.584m-10.286,0a2.584,2.584,0,1,1,2.584,2.584,2.608,2.608,0,0,1-2.584-2.584m-10.267,0a2.584,2.584,0,1,1,2.584,2.584,2.6,2.6,0,0,1-2.584-2.584m-10.269,0a2.584,2.584,0,1,1,2.584,2.584,2.6,2.6,0,0,1-2.584-2.584m-10.269,0a2.584,2.584,0,1,1,2.585,2.584,2.6,2.6,0,0,1-2.585-2.584m-10.267,0a2.575,2.575,0,1,1,2.584,2.584,2.586,2.586,0,0,1-2.584-2.584m-10.286,0a2.584,2.584,0,1,1,2.584,2.584,2.6,2.6,0,0,1-2.584-2.584m-10.267,0a2.584,2.584,0,1,1,2.584,2.584,2.6,2.6,0,0,1-2.584-2.584m-10.269,0a2.584,2.584,0,1,1,2.584,2.584,2.6,2.6,0,0,1-2.584-2.584m-10.286,0a2.584,2.584,0,1,1,2.584,2.584,2.608,2.608,0,0,1-2.584-2.584m123.234-.828a2.579,2.579,0,0,1,4.7-2.119,2.556,2.556,0,0,1-1.293,3.41h.017a2.557,2.557,0,0,1-3.428-1.291m-131.71,1.274a2.557,2.557,0,1,1,1.068.242,2.6,2.6,0,0,1-1.068-.242m140.478-6.581a2.581,2.581,0,1,1,3.636-.431v.017a2.627,2.627,0,0,1-2.033.982,2.539,2.539,0,0,1-1.6-.568M290.4,125.994a2.583,2.583,0,1,1,3.634.448,2.7,2.7,0,0,1-1.6.552,2.543,2.543,0,0,1-2.031-1m154.759-8.288a2.576,2.576,0,1,1,.948-5.063,2.579,2.579,0,0,1-.465,5.115,2.391,2.391,0,0,1-.483-.052m-159.463-2.1a2.585,2.585,0,1,1,3.015,2.067,2.2,2.2,0,0,1-.465.05,2.611,2.611,0,0,1-2.55-2.117m157.723-10.683A2.584,2.584,0,1,1,446,107.508a2.582,2.582,0,0,1-2.585-2.585m-158.12-.034a2.584,2.584,0,1,1,2.584,2.585,2.581,2.581,0,0,1-2.584-2.585m158.12-10.234A2.584,2.584,0,1,1,446,97.239a2.581,2.581,0,0,1-2.585-2.584M285.3,94.6a2.584,2.584,0,1,1,2.584,2.584A2.593,2.593,0,0,1,285.3,94.6m158.12-10.217A2.584,2.584,0,1,1,446,86.972a2.582,2.582,0,0,1-2.585-2.585M285.3,84.335a2.584,2.584,0,1,1,2.584,2.585,2.581,2.581,0,0,1-2.584-2.585M443.417,74.1A2.584,2.584,0,1,1,446,76.7a2.591,2.591,0,0,1-2.585-2.6M285.3,74.068a2.584,2.584,0,1,1,2.584,2.584,2.58,2.58,0,0,1-2.584-2.584m158.12-10.234A2.584,2.584,0,1,1,446,66.419a2.592,2.592,0,0,1-2.585-2.585M285.3,63.8a2.584,2.584,0,1,1,2.584,2.584A2.58,2.58,0,0,1,285.3,63.8" transform="translate(151.115 32.425)" fill="#333"/>
          <path id="Trazado_501697" data-name="Trazado 501697" d="M391.249,59.671a2.291,2.291,0,0,1-.5-.052,2.215,2.215,0,0,1-.482-.154,2.182,2.182,0,0,1-.448-.242,2.218,2.218,0,0,1-.4-.309,2.617,2.617,0,0,1-.757-1.826,2.379,2.379,0,0,1,.206-1,2.114,2.114,0,0,1,.223-.448,3.573,3.573,0,0,1,.327-.4,2.633,2.633,0,0,1,2.327-.69,2.756,2.756,0,0,1,.5.138,3.78,3.78,0,0,1,.431.242,2.406,2.406,0,0,1,.4.311,3.58,3.58,0,0,1,.327.4,3.689,3.689,0,0,1,.242.448c.05.154.1.327.138.482a2.691,2.691,0,0,1,.05.517,2.616,2.616,0,0,1-.757,1.826,2.587,2.587,0,0,1-1.826.757" transform="translate(205.867 28.87)" fill="#333"/>
          <path id="Trazado_501698" data-name="Trazado 501698" d="M396.684,57.088a2.584,2.584,0,1,1,2.584,2.584,2.58,2.58,0,0,1-2.584-2.584" transform="translate(210.114 28.869)" fill="#333"/>
          <path id="Trazado_501699" data-name="Trazado 501699" d="M407.287,59.661a2.524,2.524,0,0,1-.5-.052,2.2,2.2,0,0,1-.483-.154,2.31,2.31,0,0,1-1.153-.948,2.726,2.726,0,0,1-.4-.93,2.524,2.524,0,0,1-.052-.5,2.616,2.616,0,0,1,.759-1.843,2.7,2.7,0,0,1,3.651,0,2.6,2.6,0,0,1,0,3.67,2.582,2.582,0,0,1-1.826.757" transform="translate(214.362 28.88)" fill="#333"/>
          <path id="Trazado_501701" data-name="Trazado 501701" d="M430.573,52.223a6.891,6.891,0,0,0-6.891,6.891V116.82a28.279,28.279,0,0,0,28.247,28.247h115.41a28.279,28.279,0,0,0,28.247-28.247V85.467a6.891,6.891,0,1,0-13.782,0V116.82a14.481,14.481,0,0,1-14.465,14.463H451.929a14.48,14.48,0,0,1-14.465-14.463V59.114a6.891,6.891,0,0,0-6.891-6.891" transform="translate(224.415 27.661)" fill="#04425b"/>
          <path id="Trazado_501702" data-name="Trazado 501702" d="M428.485,56.165a.861.861,0,0,0-.861.861v57.706a22.241,22.241,0,0,0,22.217,22.217H565.25a22.242,22.242,0,0,0,22.217-22.217V83.379a.861.861,0,0,0-1.722,0v31.352a20.518,20.518,0,0,1-20.495,20.493H449.841a20.517,20.517,0,0,1-20.495-20.493V57.026a.861.861,0,0,0-.861-.861" transform="translate(226.503 29.749)" fill="#fff"/>
          <g transform="matrix(1, 0, 0, 1, 0, 0)" filter="url(#Trazado_501706)">
            <path id="Trazado_501706-2" data-name="Trazado 501706" d="M7.887,0H125.533a7.887,7.887,0,0,1,7.887,7.887V125.534a7.887,7.887,0,0,1-7.887,7.887H7.888A7.888,7.888,0,0,1,0,125.533V7.887A7.887,7.887,0,0,1,7.887,0Z" transform="translate(19.24 19.24)" fill="#fff"/>
          </g>
          <g transform="matrix(1, 0, 0, 1, 0, 0)" filter="url(#Trazado_501703)">
            <path id="Trazado_501703-2" data-name="Trazado 501703" d="M152.78,24.085V133.374a12.065,12.065,0,0,0,12.066,12.066H274.135A12.066,12.066,0,0,0,286.2,133.374V24.085a12.067,12.067,0,0,0-12.066-12.066H164.846A12.066,12.066,0,0,0,152.78,24.085" transform="translate(80.92 6.37)" fill="#fff"/>
          </g>
          <g transform="matrix(1, 0, 0, 1, 0, 0)" filter="url(#Rectángulo_277788)">
            <rect id="Rectángulo_277788-2" data-name="Rectángulo 277788" width="133.421" height="133.421" rx="7.888" transform="translate(451.35 19.24)" fill="#fff"/>
          </g>
          <g transform="matrix(1, 0, 0, 1, 0, 0)" filter="url(#Trazado_501704)">
            <path id="Trazado_501704-2" data-name="Trazado 501704" d="M436.26,24.085V133.374a12.065,12.065,0,0,0,12.066,12.066H557.615a12.066,12.066,0,0,0,12.066-12.066V24.085a12.067,12.067,0,0,0-12.066-12.066H448.326A12.066,12.066,0,0,0,436.26,24.085" transform="translate(231.08 6.37)" fill="#fff"/>
          </g>
          <path id="Trazado_501705" data-name="Trazado 501705" d="M429.081,53.937a2.595,2.595,0,0,0-1.826,4.427,2.7,2.7,0,0,0,3.651,0,3.422,3.422,0,0,0,.329-.4,3.681,3.681,0,0,0,.24-.448,4.741,4.741,0,0,0,.138-.482,2.587,2.587,0,0,0-2.532-3.1" transform="translate(225.906 28.569)" fill="#fff"/>
          <g id="Grupo_786784" data-name="Grupo 786784">
            <path id="Trazado_501684" data-name="Trazado 501684" d="M127.541,70.938a.878.878,0,0,1-.381-.087.867.867,0,0,1-.48-.774V49.888a.861.861,0,0,1,1.387-.682L141.149,59.3a.862.862,0,0,1,0,1.364L128.067,70.757a.86.86,0,0,1-.526.181m.861-19.3V68.324l10.81-8.341Z" transform="translate(67.1 25.969)" fill="#ecd500"/>
            <path id="Polígono_62" data-name="Polígono 62" d="M9,0l9,12H0Z" transform="translate(207 76.711) rotate(90)" fill="#ecd500"/>
          </g>
          <g id="Grupo_786785" data-name="Grupo 786785" transform="translate(214.462 -0.854)">
            <path id="Trazado_501684-2" data-name="Trazado 501684" d="M127.541,70.938a.878.878,0,0,1-.381-.087.867.867,0,0,1-.48-.774V49.888a.861.861,0,0,1,1.387-.682L141.149,59.3a.862.862,0,0,1,0,1.364L128.067,70.757a.86.86,0,0,1-.526.181m.861-19.3V68.324l10.81-8.341Z" transform="translate(67.1 25.969)" fill="#92bc0f"/>
            <path id="Polígono_62-2" data-name="Polígono 62" d="M9,0l9,12H0Z" transform="translate(207 76.711) rotate(90)" fill="#92bc0f"/>
          </g>
          <g id="Grupo_786786" data-name="Grupo 786786" transform="translate(435.462 0.861)">
            <path id="Trazado_501684-3" data-name="Trazado 501684" d="M127.541,70.938a.878.878,0,0,1-.381-.087.867.867,0,0,1-.48-.774V49.888a.861.861,0,0,1,1.387-.682L141.149,59.3a.862.862,0,0,1,0,1.364L128.067,70.757a.86.86,0,0,1-.526.181m.861-19.3V68.324l10.81-8.341Z" transform="translate(67.1 25.969)" fill="#07adad"/>
            <path id="Polígono_62-3" data-name="Polígono 62" d="M9,0l9,12H0Z" transform="translate(207 76.711) rotate(90)" fill="#07adad"/>
          </g>
        </g>
      </g>
      <text id="Refrigerios." transform="translate(415.5 15101.652)" fill="#12263f" font-size="16" font-family="Roboto-Regular, Roboto"><tspan x="18.242" y="17">Refrigerios.</tspan></text>
      <text id="Noticias_en_un_periódico_gratuitamente._" data-name="Noticias en un periódico gratuitamente.
" transform="translate(630.5 15076.969)" fill="#12263f" font-size="16" font-family="Roboto-Regular, Roboto"><tspan x="8.137" y="17">Noticias en un </tspan><tspan x="25.859" y="41">periódico </tspan><tspan x="7.059" y="65">gratuitamente.</tspan></text>
      <text id="Apoyo_financiero_del_evento." data-name="Apoyo financiero del evento." transform="translate(847.5 15075.285)" fill="#12263f" font-size="16" font-family="Roboto-Regular, Roboto"><tspan x="36.383" y="17">Apoyo </tspan><tspan x="11.16" y="41">financiero del </tspan><tspan x="33.082" y="65">evento.</tspan></text>
      <text id="Puesto_de_tinto_aromática_gratuito." data-name="Puesto de tinto, aromática gratuito." transform="translate(1065.5 15076.469)" fill="#12263f" font-size="16" font-family="Roboto-Regular, Roboto"><tspan x="3.734" y="17">Puesto de tinto, </tspan><tspan x="23" y="41">aromática </tspan><tspan x="29.441" y="65">gratuito.</tspan></text>
    </g>
  </g>
</svg>
