<svg id="Grupo_786696" data-name="Grupo 786696" xmlns="http://www.w3.org/2000/svg" xmlns:xlink="http://www.w3.org/1999/xlink" width="299.342" height="94.453" viewBox="0 0 299.342 94.453">
  <defs>
    <clipPath id="clip-path">
      <rect id="Rectángulo_309908" data-name="Rectángulo 309908" width="299.342" height="94.453" fill="none"/>
    </clipPath>
  </defs>
  <g id="Grupo_786695" data-name="Grupo 786695" clip-path="url(#clip-path)">
    <path id="Trazado_549268" data-name="Trazado 549268" d="M269.707,90.45l-2.164-.114H248.09L274.036,64.39l-.114-2.164a6.55,6.55,0,0,0-6.378-6.378l-2.164-.114H232.964l.114,2.164a6.7,6.7,0,0,0,6.378,6.378l2.164.114h19.454L235.128,90.336l.114,2.164a6.615,6.615,0,0,0,6.378,6.378l2.164.114H276.2l-.114-2.164a6.665,6.665,0,0,0-6.378-6.378" transform="translate(-126.019 -30.149)" fill="#08f"/>
    <path id="Trazado_549269" data-name="Trazado 549269" d="M344.05,55.784h-.023a21.606,21.606,0,1,0,.023,0m9.134,30.775a12.975,12.975,0,1,1,0-18.383l.023.023a12.991,12.991,0,0,1-.023,18.36" transform="translate(-174.415 -30.176)" fill="#08f"/>
    <path id="Trazado_549270" data-name="Trazado 549270" d="M563.439,55.779a17.3,17.3,0,0,0-12.962,5.854,17.279,17.279,0,0,0-22.643-2.893c-1.663-1.891-5.445-2.961-7.609-2.961V99.015l2.164-.114a6.518,6.518,0,0,0,6.378-6.378l.114-2.164V75.233L529,73.069a9.574,9.574,0,0,1,1.071-4.328,8.635,8.635,0,0,1,14.943,0h-.023a9.291,9.291,0,0,1,1.071,4.328l.114,2.164V90.359l.114,2.164a6.627,6.627,0,0,0,6.355,6.378l2.164.114V75.233l.114-2.164a9.31,9.31,0,0,1,1.071-4.351,8.659,8.659,0,0,1,14.966.023A9.549,9.549,0,0,1,572,73.069l.114,2.164V90.359l.114,2.164a6.611,6.611,0,0,0,6.356,6.378l2.164.114V73.069a17.329,17.329,0,0,0-17.313-17.29" transform="translate(-281.409 -30.171)" fill="#08f"/>
    <path id="Trazado_549271" data-name="Trazado 549271" d="M458.2,62.116a21.608,21.608,0,1,0,.023,30.548,21.6,21.6,0,0,0-.023-30.548m-6.128,24.443a12.975,12.975,0,1,1,0-18.383l.023.023a12.992,12.992,0,0,1-.023,18.36" transform="translate(-227.902 -30.176)" fill="#08f"/>
    <path id="Trazado_549272" data-name="Trazado 549272" d="M47.227,0A47.226,47.226,0,1,1,0,47.227,47.227,47.227,0,0,1,47.227,0" fill="#08f"/>
    <path id="Trazado_549273" data-name="Trazado 549273" d="M80.93,77.368l13.354-9.762c1.169-.952,2.056-.736,2.056,1.017v29.76c0,1.969-1.1,1.753-2.056,1.017L80.93,89.64ZM35.738,68.71V90.873a9.09,9.09,0,0,0,9.134,9.047H77.229A1.677,1.677,0,0,0,78.9,98.275V76.091a9.089,9.089,0,0,0-9.134-9.047H37.4a1.7,1.7,0,0,0-1.666,1.666" transform="translate(-19.332 -36.266)" fill="#fff"/>
  </g>
</svg>
