<svg xmlns="http://www.w3.org/2000/svg" xmlns:xlink="http://www.w3.org/1999/xlink" width="389" height="72" viewBox="0 0 389 72">
  <defs>
    <clipPath id="clip-path">
      <rect id="Rect치ngulo_309924" data-name="Rect치ngulo 309924" width="389" height="72" transform="translate(223.39 19257.494)" fill="#fff" stroke="#707070" stroke-width="1" opacity="0.58"/>
    </clipPath>
    <clipPath id="clip-path-2">
      <rect id="Rect치ngulo_309923" data-name="Rect치ngulo 309923" width="380" height="380" transform="translate(0.101 0.086)" fill="none"/>
    </clipPath>
  </defs>
  <g id="Enmascarar_grupo_744787" data-name="Enmascarar grupo 744787" transform="translate(-223.39 -19257.494)" clip-path="url(#clip-path)">
    <g id="Grupo_786717" data-name="Grupo 786717" transform="translate(228.289 19104.408)">
      <g id="Grupo_786716" data-name="Grupo 786716" transform="translate(0 0)" clip-path="url(#clip-path-2)">
        <path id="Trazado_549297" data-name="Trazado 549297" d="M186.994,372.426l.592-4.362A24.525,24.525,0,0,0,200.858,372c6.932,0,10.821-2.737,10.821-7.569,0-12.7-25.15-4.234-25.15-20.656,0-7.783,5.072-11.974,14.2-11.974,8.792,0,12.977,3.635,13.737,9.75l-4.312.855c-.676-4.576-3.762-6.757-9.51-6.757-6.087,0-9.68,2.737-9.68,7.7,0,13.257,24.939,4.063,25.108,21,.042,7.911-5.03,11.8-15.133,11.8-7.439-.085-11.624-2.181-13.949-3.72" transform="translate(-92.207 -163.596)" fill="#121a2c"/>
        <path id="Trazado_549298" data-name="Trazado 549298" d="M257.622,355.925v18.132c0,3.336,1.48,4.106,3.719,4.106a10.4,10.4,0,0,0,4.354-.984l.338,3.806a16.947,16.947,0,0,1-5.791.984c-4.438,0-6.932-1.582-6.932-7.869V355.925h-5.326v-3.678h5.326V343.78h4.311v8.467h9.088v3.678Z" transform="translate(-122.512 -169.503)" fill="#121a2c"/>
        <path id="Trazado_549299" data-name="Trazado 549299" d="M307.963,359.69l-.3,4.276a7.36,7.36,0,0,0-2.2-.256c-4.312,0-7.059,5.132-7.059,9.835v16.042H294.1V359.9h3.763l.3,5.559c1.606-3.678,4.184-6.158,7.228-6.158a7.16,7.16,0,0,1,2.578.385" transform="translate(-145.252 -177.159)" fill="#121a2c"/>
        <path id="Trazado_549300" data-name="Trazado 549300" d="M349.689,386.631c-1.48,1.283-5.326,3.036-11.245,3.036-9.214,0-13.821-5.559-13.821-15.01,0-8.938,4.523-15.353,14.159-15.353,7.609,0,10.737,3.977,10.737,8.339,0,7.356-6.173,9.665-20.373,10.264.886,5.73,4.479,7.911,9.636,7.911a17.262,17.262,0,0,0,10.061-3.164ZM328.934,374.4c12.427-.47,16.315-1.882,16.315-6.457,0-2.309-1.605-4.833-6.592-4.833-5.284,0-9.6,2.951-9.722,11.29" transform="translate(-160.304 -177.159)" fill="#121a2c"/>
        <path id="Trazado_549301" data-name="Trazado 549301" d="M405.783,359.9v29.764H402.19l-.465-4.918a11.039,11.039,0,0,1-9.637,4.918c-7.65,0-12.6-5.431-12.6-14.711,0-9.793,5.452-15.652,13.186-15.652,4.356,0,7.357,1.711,9.089,4.191l.423-3.549h3.592Zm-4.31,17.7V372.39c0-4.063-2.03-9.323-8.371-9.323-5.917,0-9.34,4.533-9.34,11.846,0,7.013,3.171,10.862,8.917,10.862,5.5.043,8.794-3.507,8.794-8.168" transform="translate(-187.361 -177.159)" fill="#121a2c"/>
        <path id="Trazado_549302" data-name="Trazado 549302" d="M487.474,370.851v18.9h-4.31V371.535c0-5.217-2.03-8.3-6.51-8.3a8.134,8.134,0,0,0-8.369,8.083V389.71h-4.227V371.193c0-5.089-2.072-8-6.468-8a8.137,8.137,0,0,0-8.326,8.168V389.71h-4.312V359.9h3.339l.592,4.961a10.633,10.633,0,0,1,9.807-5.559c4.48,0,7.525,2.1,8.835,6.03a10.721,10.721,0,0,1,10.143-6.03c6.3,0,9.807,3.849,9.807,11.547" transform="translate(-219.641 -177.159)" fill="#121a2c"/>
        <path id="Trazado_549303" data-name="Trazado 549303" d="M564.614,333.065l-15.555,26.429v17.14h-8.074v-17.14l-15.556-26.429h9.089l10.568,18.859,10.65-18.859Z" transform="translate(-259.326 -164.22)" fill="#121a2c"/>
        <path id="Trazado_549304" data-name="Trazado 549304" d="M619.344,359.9v29.764h-5.961l-.972-4.276a10.972,10.972,0,0,1-9.215,4.276c-7.609,0-12.893-5.516-12.893-14.754,0-9.75,5.791-15.609,13.442-15.609a10.673,10.673,0,0,1,8.624,3.677l.675-3.079Zm-7.906,16.635v-4.191c-.3-3.379-2.2-6.329-6.382-6.329-4.227,0-7.1,3.036-7.1,8.767,0,5.388,2.493,8.168,6.805,8.168,4.226-.043,6.677-2.737,6.677-6.415" transform="translate(-291.317 -177.159)" fill="#121a2c"/>
        <path id="Trazado_549305" data-name="Trazado 549305" d="M675.594,359.774l-.466,7.57a7.36,7.36,0,0,0-2.621-.428c-3.043,0-5.875,2.78-5.875,8.3v14.346h-7.947V359.9h6.383l.677,4.362c1.564-3.036,3.931-4.961,6.931-4.961a7.738,7.738,0,0,1,2.917.47" transform="translate(-325.038 -177.159)" fill="#121a2c"/>
        <path id="Trazado_549306" data-name="Trazado 549306" d="M721.874,333.065v43.663h-6.636l-.761-4.063a12.125,12.125,0,0,1-9.382,4.063c-6.976,0-12.132-4.833-12.132-14.712s5.451-15.651,14.116-15.651a17.7,17.7,0,0,1,6.89,1.283V333.065Zm-7.948,29.593v-7.783a10.094,10.094,0,0,0-5.959-1.8c-4.228,0-7.059,2.78-7.059,8.809,0,5.816,2.621,8.083,6.043,8.083a6.93,6.93,0,0,0,6.974-7.313" transform="translate(-341.941 -164.219)" fill="#121a2c"/>
        <path id="Trazado_549307" data-name="Trazado 549307" d="M69.331,347.609c-.763-.518-1.525-1.08-2.245-1.6a93.1,93.1,0,0,1-11.224-10.2,28.291,28.291,0,0,0-4.616-11.838c-2.414-4.321-6.777-6.827-9.4-7.993-2.244-5.876-13.341-6.74-17.62-7.043-.508-.043-1.016-.043-1.525-.043-8.47,0-10.207,5.919-10.547,8.382a12.292,12.292,0,0,0-5.506,1.555C1.775,321.728.42,327.561.124,331.925a31.167,31.167,0,0,0,0,5.962A10.952,10.952,0,0,0,4.7,346.313a190.4,190.4,0,0,0-3.05,22.122l-.042.3.169.259c.169.259,4.7,6.265,14.655,6.87.424.043.889.043,1.313.043a16.451,16.451,0,0,0,15.036-8.943l.17-.346-.127-.346s-.974-2.721.508-7.734c1.228-4.148,5.591-4.882,6.734-4.969,5.252,4.062,19.865,11.839,23.677,13.394a14.48,14.48,0,0,0,5.336,1.21c1.906,0,3.346-.605,4.024-1.642a3.9,3.9,0,0,0-.635-5.227c.424.086.932.13,1.483.216a11.622,11.622,0,0,0,1.821.13,3.6,3.6,0,0,0,3.982-3.457c.381-2.809-3.855-6.049-10.419-10.586M17.785,375.087h0ZM22.528,309.8h.508a1.977,1.977,0,0,0-.508,0m5.888.475c.592.086,1.228.173,1.863.259-.635-.086-1.271-.216-1.863-.259" transform="translate(-0.225 -152.301)" fill="#121a2c"/>
        <path id="Trazado_549308" data-name="Trazado 549308" d="M69.632,347.615a93.082,93.082,0,0,1-11.52-10.5,27.048,27.048,0,0,0-4.532-11.752c-2.457-4.407-7.073-6.827-9.36-7.821-1.694-5.617-12.792-6.524-16.984-6.827-11.478-.864-11.266,8.684-11.266,8.684l-4.109,13.87L8.768,346.665a169.334,169.334,0,0,0-3.177,22.726s4.321,5.919,14.02,6.525c11.436.691,15.5-8.425,15.5-8.425s-1.1-2.9.508-8.3,7.835-5.617,7.835-5.617c5.04,4.018,19.992,11.968,23.719,13.48,4.4,1.815,7.5,1.21,8.3-.086s1.144-2.938-1.271-4.839c-1.567-1.21-2.5-1.858-2.5-1.858a25.649,25.649,0,0,0,5.464,1.3c2.457.3,4.4.3,4.828-2.549.339-2.938-6.777-7.432-12.368-11.407" transform="translate(-2.982 -153.172)" fill="#121a2c"/>
        <path id="Trazado_549309" data-name="Trazado 549309" d="M23.47,420.618c-6.692-.216-10.589-2.549-11.9-3.457l-.466,3.37s5.125,4.925,11.9,4.925c2.414,0,7.158.26,11.817-5.962a19.532,19.532,0,0,1-.085-3.111c-1.694,1.685-4.193,4.45-11.266,4.234" transform="translate(-5.699 -205.306)" fill="#feffff"/>
        <path id="Trazado_549310" data-name="Trazado 549310" d="M11.1,417.195s.169.129.466.345l.042-.389Z" transform="translate(-5.699 -205.684)" fill="#121a2c"/>
        <path id="Trazado_549311" data-name="Trazado 549311" d="M58.538,414.85l-.762.044c0,.259-.042.475-.042.734.3-.3.55-.562.8-.778" transform="translate(-28.695 -204.55)" fill="#121a2c"/>
        <path id="Trazado_549312" data-name="Trazado 549312" d="M57.808,338.485c-2.753-6.87-7.793-12.314-13.427-14.172s-14.146-3.543-16.773,2.938c0,0-12.452,22.035-13.257,27.22l-2.2,16.073-.042.389c1.271.908,5.21,3.24,11.9,3.456,7.073.216,9.615-2.549,11.266-4.277,0-.216.043-.475.043-.735a15.15,15.15,0,0,1,2.753-8.036c3.6-4.58,9.868-4.753,9.868-4.753a10.276,10.276,0,0,0,8.048-2.938c3.3-3.5,4.532-8.252,1.821-15.165" transform="translate(-6.195 -159.077)" fill="#016666"/>
        <path id="Trazado_549313" data-name="Trazado 549313" d="M93.069,383.179s4.659,4.234,6.353,5.7,8.767,6.524,8.81,7.647c0,.259-17.747-8.3-17.747-8.3S75.28,377.476,75.365,377.174s.636-2.463.975-2.592,7.5.129,7.5.129Z" transform="translate(-37.389 -184.674)" fill="#79455b"/>
        <path id="Trazado_549314" data-name="Trazado 549314" d="M75.266,380.157a38.088,38.088,0,0,1,12.2,6.221c4.067,3.37,10.886,8.209,12.876,9.16,1.991.994,7.031,3.11,6.9,3.932s-.72,2.2-5.336.345c-4.617-1.9-16.6-9.16-18.3-10.327s-10.25-7.128-10.25-7.128Z" transform="translate(-36.4 -187.442)" fill="#c8842c"/>
        <path id="Trazado_549315" data-name="Trazado 549315" d="M47.889,353.261a12.965,12.965,0,0,1,10.758,3.586c3.939,3.889,4.617,7,3.515,9.764s-3.134,4.839-7.2,2.635-7.963-4.925-9.191-8.3,2.118-7.691,2.118-7.691" transform="translate(-22.662 -174.112)" fill="#02a484"/>
        <path id="Trazado_549316" data-name="Trazado 549316" d="M2.357,346.882c.381,3.5,1.355,5.833,5.337,8.685,1.821,1.3,3.77,2.333,7.92,1.987a10.41,10.41,0,0,0,8.556-6.309c1.4-3.111,3.77-10.283,2.033-16.073-1.694-5.79-4.87-6.567-6.438-7.086-1.567-.562-7.116-1.9-11.351.6s-5.8,7.6-6.1,12.4a26.685,26.685,0,0,0,.042,5.79" transform="translate(-1.315 -161.339)" fill="#121a2c"/>
        <path id="Trazado_549317" data-name="Trazado 549317" d="M13.05,334.76s2.16-1.426,6.184-.562,6.523,3.8,6.523,7.388-.424,10.067-3.686,13.351C19.4,357.616,12.415,359,9.62,353.555s4.108-9.462,4.108-9.462Z" transform="translate(-4.64 -164.641)" fill="#1565ea"/>
        <path id="Trazado_549318" data-name="Trazado 549318" d="M58.623,337.931c-.55-1.772.889-4.062,4.532-4.839s7.412,0,9.36,3.5-1.737,5.228-3.854,5.7-8.683,0-10.038-4.364" transform="translate(-29.077 -164.097)" fill="#02a484"/>
        <path id="Trazado_549319" data-name="Trazado 549319" d="M66.557,349.907c.339-2.549,1.948-4.407,3.558-4.58a1.923,1.923,0,0,1,1.779.864,5.33,5.33,0,0,0-.974-1.815c-1.779-1.987-5.21-.389-6.269,3.543s.423,7.086,1.948,7.518a3.439,3.439,0,0,0,1.864.043,1.084,1.084,0,0,1-.339-.13c-2.287-1.166-1.694-4.494-1.567-5.444" transform="translate(-31.929 -169.376)" fill="#fdffff"/>
        <path id="Trazado_549320" data-name="Trazado 549320" d="M75.915,348.789a8.965,8.965,0,0,1-.424,6.005c-.72,1.469-1.652,2.852-3.05,3.24" transform="translate(-35.947 -171.973)" fill="#121a2c"/>
        <path id="Trazado_549321" data-name="Trazado 549321" d="M73.528,353.942a9.229,9.229,0,0,0,.423-6.005,1.961,1.961,0,0,0-1.779-.864c-1.61.173-3.261,2.031-3.558,4.58-.127.951-.678,4.321,1.567,5.4.127.043.212.086.339.129,1.4-.389,2.33-1.772,3.007-3.24" transform="translate(-33.985 -171.121)" fill="#121a2c"/>
        <path id="Trazado_549322" data-name="Trazado 549322" d="M112.826,383.7c-1.059-1.037-2.414-2.2-1.991-2.722.254-.3.89-.346,1.822,0-1.948-1.383-4.447-3.068-7.116-4.969-6.014-4.277-13.13-11.061-13.85-11.579-2.456-1.815-2.88.13-2.923,1.08s-.042,2.117-2.2,3.111-4.659.043-6.141-.173-1.355.994-.636,1.6c2.414,1.987,27.362,14.344,32.613,15.425.169.043.3.043.466.086a1.35,1.35,0,0,0-.042-1.858" transform="translate(-39.314 -179.317)" fill="#ffcc34"/>
        <path id="Trazado_549323" data-name="Trazado 549323" d="M147.03,401.351c.169-.691-1.4-2.031-3.812-3.8-.932-.389-1.567-.3-1.821,0-.381.475.974,1.685,1.991,2.722a1.23,1.23,0,0,1-.043,1.858c2.881.562,3.431.432,3.685-.778" transform="translate(-69.918 -195.889)" fill="#c8842c"/>
        <path id="Trazado_549324" data-name="Trazado 549324" d="M102.52,375.153a4.038,4.038,0,0,0,3.6,1.987c1.144-.259.593-1.426-.8-2.809-1.4-1.34-3.6-1.3-2.8.821" transform="translate(-50.695 -184.122)" fill="#c8842c"/>
        <path id="Trazado_549325" data-name="Trazado 549325" d="M22.8,385.783l.254,23.936,2.881.907-.381-24.844Z" transform="translate(-11.469 -190.216)" fill="#121a2c"/>
        <path id="Trazado_549326" data-name="Trazado 549326" d="M21.066,351.8c-2.245,5.185-6.015,5.012-9.233,4.191-3.388-.865-4.278-4.278-4.405-7.475-.042-1.728.593-8.9,2.8-11.839s6.269-2.2,7.5-1.858a7.574,7.574,0,0,1,5.125,8.253c-.678,5.919-.932,6.783-1.779,8.727" transform="translate(-3.886 -164.915)" fill="#fff"/>
        <path id="Trazado_549327" data-name="Trazado 549327" d="M12.106,354.189l.72-2.592s3.05,1.642,4.49,1.037c1.4-.605.762-2.117-.8-2.765-1.567-.691-3.6-1.772-2.8-4.969s2.923-4.148,8.005-2.2l-.932,2.765s-4.151-2.117-4.532.13c-.254,1.685,5.718,1.9,4.659,6.61-1.482,5.919-8.81,1.987-8.81,1.987" transform="translate(-6.195 -168.473)" fill="#1565ea"/>
      </g>
    </g>
  </g>
</svg>
