<svg xmlns="http://www.w3.org/2000/svg" xmlns:xlink="http://www.w3.org/1999/xlink" width="372" height="80" viewBox="0 0 372 80">
  <defs>
    <clipPath id="clip-path">
      <rect id="Rectángulo_309940" data-name="Rectángulo 309940" width="372" height="80" transform="translate(937 20330.975)" fill="#fff" stroke="#707070" stroke-width="1" opacity="0.71"/>
    </clipPath>
    <clipPath id="clip-path-2">
      <rect id="Rectángulo_309939" data-name="Rectángulo 309939" width="372" height="372" transform="translate(0 0.047)" fill="none"/>
    </clipPath>
    <clipPath id="clip-path-4">
      <rect id="Rectángulo_309933" data-name="Rectángulo 309933" width="63.712" height="9.104" fill="none"/>
    </clipPath>
    <clipPath id="clip-path-5">
      <rect id="Rectángulo_309932" data-name="Rectángulo 309932" width="63.712" height="9.102" fill="none"/>
    </clipPath>
    <clipPath id="clip-path-6">
      <rect id="Rectángulo_309935" data-name="Rectángulo 309935" width="45.51" height="9.102" fill="none"/>
    </clipPath>
    <clipPath id="clip-path-8">
      <rect id="Rectángulo_309937" data-name="Rectángulo 309937" width="27.305" height="9.102" fill="none"/>
    </clipPath>
  </defs>
  <g id="Enmascarar_grupo_744788" data-name="Enmascarar grupo 744788" transform="translate(-937 -20330.975)" clip-path="url(#clip-path)">
    <g id="Grupo_786741" data-name="Grupo 786741" transform="translate(937 20185.928)">
      <g id="Grupo_786740" data-name="Grupo 786740" clip-path="url(#clip-path-2)">
        <g id="Grupo_786739" data-name="Grupo 786739">
          <g id="Grupo_786738" data-name="Grupo 786738" clip-path="url(#clip-path-2)">
            <path id="Trazado_549364" data-name="Trazado 549364" d="M49.941,87.041v41.105c0,5.535,3.126,8.794,8.663,8.794a11.739,11.739,0,0,0,4.626-.848v-6.448a4.824,4.824,0,0,1-1.955.325c-2.15,0-3.322-1.042-3.322-3.909V87.041Z" transform="translate(42.944 74.846)" fill="#1c1c1e"/>
            <path id="Trazado_549365" data-name="Trazado 549365" d="M75.61,94.081H66.882L79.26,130.366h9.054L100.1,94.081H91.963l-5.539,18.956c-1.172,4.3-1.825,6.9-2.345,9.7h-.26c-.586-2.866-1.237-5.4-2.474-9.7Z" transform="translate(57.511 80.899)" fill="#1c1c1e"/>
            <path id="Trazado_549366" data-name="Trazado 549366" d="M111.637,121.742a12,12,0,0,1-8.143,3.061c-6.58,0-9.577-3.257-9.837-10.162H115.87a48.5,48.5,0,0,0,.391-6.383c0-8.794-5.079-14.528-14.07-14.528-9.575,0-16.415,6.385-16.415,18.7,0,12.831,5.732,18.889,16.806,18.889,6.255,0,9.9-1.693,12.575-3.777Zm-9.772-21.757c4.626,0,6.776,2.671,6.776,7.622v1.432H93.787c.26-5.927,3.582-9.054,8.078-9.054" transform="translate(73.757 80.598)" fill="#1c1c1e"/>
            <path id="Trazado_549367" data-name="Trazado 549367" d="M123.526,120.764c0,2.215-1.629,4.04-5.407,4.04a13.432,13.432,0,0,1-9.642-4.3l-4.821,5.667c2.085,2.15,6.776,5.146,14.072,5.146,9.837,0,13.81-6.123,13.81-11.009,0-12.182-17.587-9.772-17.587-16.22,0-2.15,1.692-3.779,4.951-3.779a10.082,10.082,0,0,1,7.229,3.259l5.146-5.211c-2.345-2.606-6.45-4.626-12.182-4.626-8.273,0-13.094,5.146-13.094,10.813,0,12.182,17.524,9.835,17.524,16.22" transform="translate(89.134 80.598)" fill="#1c1c1e"/>
            <path id="Trazado_549368" data-name="Trazado 549368" d="M134.926,135c5.407,0,8.077-1.174,9.379-2.02l-2.148-6.123a8.78,8.78,0,0,1-5.148,1.5c-2.669,0-4.365-1.434-4.365-4.56V104.577h9.448v-6.19h-9.448V89.073h-5.21l-2.671,8.859-4.951,1.629v5.016h4.951v19.216c0,8.076,4.038,11.2,10.162,11.2" transform="translate(103.026 76.593)" fill="#1c1c1e"/>
            <path id="Trazado_549369" data-name="Trazado 549369" d="M142.221,112.3c0-8.21,2.15-12.115,7.492-12.115,5.734,0,8.011,4.233,8.011,12.573,0,8.141-1.888,12.115-7.62,12.115-5.667,0-7.882-4.3-7.882-12.573m7.557,19.019c11.595,0,16.155-7.752,16.155-18.952S162.088,93.73,150.1,93.73c-11.661,0-16.155,7.752-16.155,18.958,0,11.141,3.909,18.629,15.829,18.629" transform="translate(115.181 80.598)" fill="#1c1c1e"/>
            <path id="Trazado_549370" data-name="Trazado 549370" d="M175.224,94.021a14.767,14.767,0,0,0-3.255-.325,9.858,9.858,0,0,0-9.316,5.537h-.26l-1.7-4.821h-6.184V130.7h7.947V105.225c1.953-2.343,5.4-3.582,8.663-3.582a21.857,21.857,0,0,1,4.1.391Z" transform="translate(132.863 80.568)" fill="#1c1c1e"/>
            <path id="Trazado_549371" data-name="Trazado 549371" d="M194.826,98.871h-.262c-1.3-2.866-3.777-5.211-9.249-5.211a11.661,11.661,0,0,0-9.511,4.365h-.26l-1.432-3.582h-6.448v36.283h8.012V105.58a7.152,7.152,0,0,1,6.577-5.079c3.846,0,5.866,2.476,5.866,7.294v22.931h8.076v-25.4a7.393,7.393,0,0,1,6.839-4.821c3.259,0,5.6,1.955,5.6,6.644v23.582h8.012V105.712c0-8.143-4.038-12.052-11.141-12.052-5.34,0-8.989,2.476-10.681,5.211" transform="translate(144.171 80.537)" fill="#1c1c1e"/>
            <rect id="Rectángulo_309931" data-name="Rectángulo 309931" width="8.012" height="36.285" transform="translate(111.889 174.98)" fill="#1c1c1e"/>
            <path id="Trazado_549372" data-name="Trazado 549372" d="M59.6,91.141a4.921,4.921,0,0,0,9.837,0,4.921,4.921,0,1,0-9.837,0" transform="translate(51.248 74.002)" fill="#e54538"/>
            <g id="Grupo_786727" data-name="Grupo 786727" transform="translate(11.159 165.939)" opacity="0.2" style="isolation: isolate">
              <g id="Grupo_786726" data-name="Grupo 786726">
                <g id="Grupo_786725" data-name="Grupo 786725" clip-path="url(#clip-path-4)">
                  <g id="Grupo_786724" data-name="Grupo 786724">
                    <g id="Grupo_786723" data-name="Grupo 786723" clip-path="url(#clip-path-5)">
                      <path id="Trazado_549373" data-name="Trazado 549373" d="M6,93.772a4.551,4.551,0,0,1,4.551-4.551h54.61a4.551,4.551,0,1,1,0,9.1H10.551A4.552,4.552,0,0,1,6,93.772" transform="translate(-6 -89.219)" fill="#1c1c1e"/>
                    </g>
                  </g>
                </g>
              </g>
            </g>
            <path id="Trazado_549374" data-name="Trazado 549374" d="M6,93.772a4.551,4.551,0,0,1,4.551-4.551H53.025a4.551,4.551,0,0,1,0,9.1H10.551A4.552,4.552,0,0,1,6,93.772" transform="translate(5.159 76.72)" fill="#1c1c1e"/>
            <g id="Grupo_786732" data-name="Grupo 786732" transform="translate(20.261 184.144)" opacity="0.2" style="isolation: isolate">
              <g id="Grupo_786731" data-name="Grupo 786731">
                <g id="Grupo_786730" data-name="Grupo 786730" clip-path="url(#clip-path-6)">
                  <g id="Grupo_786729" data-name="Grupo 786729" transform="translate(0.001)">
                    <g id="Grupo_786728" data-name="Grupo 786728" clip-path="url(#clip-path-6)">
                      <path id="Trazado_549375" data-name="Trazado 549375" d="M10.894,103.559a4.552,4.552,0,0,1,4.551-4.551H51.853a4.551,4.551,0,0,1,0,9.1H15.445a4.551,4.551,0,0,1-4.551-4.551" transform="translate(-10.894 -99.008)" fill="#1c1c1e"/>
                    </g>
                  </g>
                </g>
              </g>
            </g>
            <path id="Trazado_549376" data-name="Trazado 549376" d="M10.894,103.559a4.552,4.552,0,0,1,4.551-4.551H39.717a4.551,4.551,0,0,1,0,9.1H15.445a4.551,4.551,0,0,1-4.551-4.551" transform="translate(9.368 85.136)" fill="#1c1c1e"/>
            <g id="Grupo_786737" data-name="Grupo 786737" transform="translate(29.363 202.347)" opacity="0.2" style="isolation: isolate">
              <g id="Grupo_786736" data-name="Grupo 786736">
                <g id="Grupo_786735" data-name="Grupo 786735" clip-path="url(#clip-path-8)">
                  <g id="Grupo_786734" data-name="Grupo 786734" transform="translate(-0.001 0)">
                    <g id="Grupo_786733" data-name="Grupo 786733" clip-path="url(#clip-path-8)">
                      <path id="Trazado_549377" data-name="Trazado 549377" d="M15.788,113.346a4.55,4.55,0,0,1,4.551-4.551h18.2a4.551,4.551,0,0,1,0,9.1h-18.2a4.55,4.55,0,0,1-4.551-4.551" transform="translate(-15.786 -108.795)" fill="#1c1c1e"/>
                    </g>
                  </g>
                </g>
              </g>
            </g>
            <path id="Trazado_549378" data-name="Trazado 549378" d="M15.788,113.346a4.55,4.55,0,0,1,4.551-4.551h6.067a4.551,4.551,0,1,1,0,9.1H20.339a4.55,4.55,0,0,1-4.551-4.551" transform="translate(13.576 93.552)" fill="#1c1c1e"/>
          </g>
        </g>
      </g>
    </g>
  </g>
</svg>
